{"glyphs":{"0":{"ha":806,"x_min":69,"x_max":772,"o":"m 482 983 q 596 959 543 983 q 689 885 649 934 q 750 761 728 835 q 772 586 772 686 q 738 323 772 435 q 647 136 704 210 q 515 26 590 63 q 360 -10 440 -10 q 245 15 298 -10 q 153 89 192 40 q 92 213 114 138 q 69 388 69 288 q 103 651 69 539 q 195 837 138 763 q 327 947 252 911 q 482 983 401 983 m 361 4 q 509 39 438 4 q 635 145 581 74 q 723 327 690 217 q 756 586 756 437 q 734 755 756 683 q 676 875 713 827 q 589 946 640 922 q 481 969 539 969 q 332 935 403 969 q 206 828 261 900 q 119 647 151 756 q 86 388 86 537 q 107 218 86 290 q 165 99 128 147 q 252 28 202 51 q 361 4 303 4 z "},"1":{"ha":806,"x_min":186,"x_max":671,"o":"m 188 14 l 424 14 l 535 914 l 544 956 l 263 726 q 255 724 259 724 q 247 729 250 724 l 246 732 l 549 978 l 558 978 l 440 14 l 671 14 l 669 0 l 186 0 l 188 14 z "},"2":{"ha":806,"x_min":63,"x_max":736,"o":"m 497 983 q 587 970 544 983 q 663 931 630 958 q 716 862 697 903 q 736 763 736 820 q 717 652 736 702 q 664 556 697 601 q 587 468 631 511 q 492 381 542 426 l 85 11 q 119 13 100 13 q 163 14 138 14 l 665 14 q 672 7 672 14 l 671 0 l 63 0 l 63 6 q 66 13 63 10 q 69 17 68 15 l 464 372 q 563 465 517 420 q 644 555 610 509 q 699 651 679 601 q 719 761 719 701 q 701 854 719 815 q 651 919 683 893 q 580 957 620 944 q 496 969 540 969 q 394 953 442 969 q 308 906 347 936 q 242 834 269 876 q 200 742 214 792 q 188 731 197 731 l 181 731 q 225 836 195 789 q 295 915 254 883 q 388 966 337 948 q 497 983 440 983 z "},"3":{"ha":806,"x_min":90,"x_max":736,"o":"m 501 983 q 590 971 548 983 q 665 933 633 959 q 717 867 697 907 q 736 772 736 827 q 714 668 736 715 q 656 586 692 621 q 575 529 620 551 q 483 501 529 508 q 579 478 538 496 q 648 432 620 460 q 690 366 676 403 q 704 286 704 329 q 678 172 704 226 q 606 77 652 118 q 499 13 560 37 q 367 -11 438 -11 q 168 53 235 -11 q 90 233 101 117 l 96 233 q 102 232 98 233 q 107 225 106 231 q 131 133 114 174 q 180 63 149 92 q 257 18 211 34 q 368 3 303 3 q 504 29 444 3 q 605 97 564 56 q 666 188 645 138 q 688 285 688 238 q 674 367 688 328 q 627 433 660 405 q 541 477 594 461 q 407 494 487 494 l 408 506 q 535 527 478 508 q 633 582 592 547 q 697 665 674 617 q 719 771 719 713 q 701 860 719 822 q 653 922 683 897 q 583 958 623 946 q 500 969 544 969 q 398 953 446 969 q 311 906 350 936 q 245 834 273 876 q 203 742 217 792 q 192 731 199 731 l 185 731 q 229 836 199 789 q 300 915 258 883 q 392 966 341 948 q 501 983 444 983 z "},"4":{"ha":806,"x_min":54,"x_max":772,"o":"m 566 314 l 772 314 l 771 308 q 760 300 771 300 l 565 300 l 528 0 l 513 0 l 549 300 l 67 300 q 57 302 59 300 q 54 307 56 303 l 54 313 l 638 974 l 647 974 l 566 314 m 625 918 q 630 944 626 932 l 73 314 l 551 314 l 625 918 z "},"5":{"ha":806,"x_min":93,"x_max":742,"o":"m 741 967 q 731 957 740 957 l 338 957 l 219 571 q 318 591 272 585 q 405 597 364 597 q 528 578 476 597 q 616 528 581 560 q 669 450 651 496 q 686 350 686 405 q 655 197 686 264 q 573 84 624 130 q 456 13 522 38 q 319 -11 390 -11 q 248 -5 282 -11 q 186 11 215 1 q 134 34 157 21 q 93 61 110 47 l 97 67 q 106 71 101 71 q 126 61 110 71 q 168 38 142 51 q 232 16 194 26 q 321 6 270 6 q 451 28 388 6 q 562 94 514 50 q 639 202 610 138 q 668 350 668 266 q 652 444 668 401 q 604 518 637 487 q 521 566 572 549 q 401 583 471 583 q 314 577 360 583 q 213 557 267 571 l 201 563 l 325 972 l 742 972 l 741 967 z "},"6":{"ha":806,"x_min":103,"x_max":707,"o":"m 450 568 q 558 549 510 568 q 639 497 606 530 q 690 417 672 463 q 707 317 707 371 q 680 183 707 243 q 606 79 653 122 q 495 13 559 36 q 358 -11 432 -11 q 254 7 301 -11 q 173 58 207 24 q 121 141 140 92 q 103 253 103 190 q 112 328 103 290 q 141 406 122 365 q 193 491 161 447 q 269 588 224 536 l 599 968 q 607 972 603 972 l 621 972 l 282 581 q 203 483 235 526 q 151 399 172 440 q 206 469 174 438 q 278 523 239 501 q 361 556 317 544 q 450 568 405 568 m 118 251 q 135 152 118 198 q 183 74 151 107 q 259 22 214 40 q 360 3 303 3 q 496 26 435 3 q 600 92 557 50 q 667 191 643 134 q 690 317 690 249 q 673 415 690 371 q 625 490 656 458 q 549 538 594 521 q 450 554 505 554 q 313 527 374 554 q 209 457 252 500 q 142 360 165 414 q 118 251 118 306 z "},"7":{"ha":806,"x_min":178,"x_max":814,"o":"m 814 972 l 814 968 q 812 960 814 965 q 808 953 810 956 l 211 11 q 204 3 208 6 q 193 0 201 0 l 185 0 l 786 947 q 790 952 788 950 q 794 957 792 955 l 187 957 q 178 962 178 957 l 179 972 l 814 972 z "},"8":{"ha":806,"x_min":83,"x_max":724,"o":"m 360 -11 q 247 5 298 -11 q 159 51 196 21 q 103 123 123 81 q 83 218 83 165 q 106 339 83 288 q 167 425 129 390 q 255 480 206 460 q 357 508 304 500 q 281 536 314 517 q 226 582 249 555 q 192 643 203 609 q 181 715 181 677 q 202 819 181 770 q 263 905 223 868 q 358 962 302 941 q 482 983 413 983 q 585 966 540 983 q 661 920 631 949 q 708 852 692 891 q 724 768 724 813 q 707 676 724 719 q 660 598 691 633 q 586 540 630 564 q 488 507 543 517 q 569 484 531 500 q 637 440 608 467 q 683 373 666 413 q 700 282 700 334 q 674 159 700 213 q 602 67 648 104 q 494 9 556 29 q 360 -11 432 -11 m 361 3 q 488 22 429 3 q 591 78 547 42 q 659 166 634 114 q 683 282 683 217 q 671 358 683 325 q 639 416 659 392 q 592 456 619 440 q 537 482 566 472 q 478 496 508 492 q 422 500 449 500 q 356 495 392 500 q 285 477 321 490 q 217 445 250 465 q 158 393 183 424 q 117 320 132 363 q 101 221 101 277 q 120 131 101 172 q 173 63 139 91 q 255 18 207 34 q 361 3 303 3 m 424 514 q 546 535 493 514 q 634 592 599 556 q 689 673 670 627 q 707 768 707 719 q 692 848 707 811 q 648 912 677 885 q 577 954 619 939 q 481 969 535 969 q 364 950 417 969 q 275 897 312 931 q 217 816 238 863 q 197 717 197 770 q 211 640 197 677 q 252 575 224 603 q 323 531 281 547 q 424 514 366 514 z "},"9":{"ha":806,"x_min":175,"x_max":757,"o":"m 424 426 q 318 444 365 426 q 240 495 272 463 q 192 572 208 527 q 175 668 175 616 q 202 795 175 737 q 274 894 228 853 q 381 960 320 936 q 511 983 442 983 q 611 965 566 983 q 689 912 656 946 q 739 830 721 878 q 757 725 757 783 q 747 645 757 681 q 716 572 736 608 q 666 496 696 535 q 596 407 635 456 l 275 4 q 271 0 273 1 q 267 0 269 0 l 253 0 q 450 245 368 144 q 585 414 531 346 q 669 524 639 482 q 711 591 699 565 q 658 523 690 553 q 589 471 627 492 q 509 438 551 449 q 424 426 467 426 m 740 729 q 724 825 740 781 q 677 901 707 869 q 604 951 647 933 q 510 969 561 969 q 384 948 442 969 q 284 886 326 926 q 216 791 241 847 q 192 668 192 735 q 208 574 192 616 q 255 502 225 532 q 328 456 285 472 q 424 440 371 440 q 555 466 496 440 q 655 534 613 492 q 718 626 696 575 q 740 729 740 678 z "},"\u0000":{"ha":0,"x_min":0,"x_max":0,"o":""},"\r":{"ha":0,"x_min":0,"x_max":0,"o":""}," ":{"ha":268,"x_min":0,"x_max":0,"o":""},"!":{"ha":390,"x_min":117,"x_max":285,"o":"m 285 972 l 236 575 q 222 472 231 530 q 201 331 214 413 l 190 331 q 198 403 194 372 q 204 463 201 435 q 210 518 207 491 q 217 575 213 544 l 265 972 l 285 972 m 117 33 q 130 66 117 52 q 161 79 142 79 q 193 66 180 79 q 207 33 207 52 q 193 2 207 15 q 161 -11 180 -11 q 130 2 142 -11 q 117 33 117 15 z "},"\"":{"ha":436,"x_min":171,"x_max":385,"o":"m 221 972 l 196 768 l 182 663 q 176 657 182 657 q 171 663 171 657 l 182 768 l 208 972 l 221 972 m 385 972 l 360 768 l 346 663 q 340 657 346 657 q 335 663 335 657 l 346 768 l 372 972 l 385 972 z "},"#":{"ha":806,"x_min":71,"x_max":772,"o":"m 496 319 l 386 0 l 382 0 q 374 5 374 0 q 375 11 374 7 q 381 29 376 16 l 481 319 l 243 319 l 138 11 q 125 0 134 0 l 118 0 l 228 319 l 79 319 q 71 326 71 319 l 71 332 l 231 332 l 338 640 l 149 640 l 149 644 q 152 651 149 649 q 160 653 156 653 l 340 653 l 447 961 q 461 972 451 972 l 467 972 l 356 653 l 593 653 l 704 972 l 711 972 q 717 966 717 972 q 715 958 717 963 l 608 653 l 772 653 l 772 649 q 761 640 769 640 l 606 640 l 499 332 l 683 332 q 693 324 693 332 q 693 322 693 322 q 692 321 692 322 q 692 319 692 320 l 496 319 m 247 332 l 484 332 l 590 640 l 353 640 l 247 332 z "},"$":{"ha":806,"x_min":106,"x_max":738,"o":"m 359 -11 q 273 -2 310 -11 q 205 23 235 6 q 151 62 175 39 q 106 115 126 85 l 108 118 q 113 121 112 120 q 118 122 115 122 q 129 114 122 122 q 148 92 136 105 q 177 63 160 78 q 221 34 195 47 q 281 12 247 21 q 361 3 315 3 l 441 508 q 362 538 400 522 q 294 578 324 554 q 247 636 265 602 q 229 719 229 670 q 249 818 229 771 q 306 901 269 865 q 395 960 342 938 q 515 983 449 982 l 536 1113 q 546 1124 538 1124 l 553 1124 l 531 983 q 647 959 598 982 q 738 888 697 936 l 735 883 q 728 879 733 879 q 717 886 723 879 q 701 902 711 892 q 677 923 692 912 q 642 945 663 935 q 593 962 622 955 q 528 969 565 969 l 457 520 q 542 489 499 506 q 619 448 585 472 q 675 388 653 424 q 697 300 697 353 q 675 183 697 238 q 610 85 652 127 q 508 17 567 43 q 374 -10 448 -8 l 347 -179 q 338 -190 347 -190 l 331 -190 l 359 -11 m 681 297 q 661 380 681 347 q 610 435 642 413 q 538 474 578 458 q 455 503 497 489 l 376 3 q 502 30 446 5 q 598 95 558 55 q 659 187 638 135 q 681 297 681 240 m 244 722 q 261 646 244 677 q 305 592 277 615 q 368 554 333 570 q 443 524 404 538 l 513 969 q 400 947 450 967 q 316 892 350 926 q 263 814 281 858 q 244 722 244 770 z "},"%":{"ha":960,"x_min":108,"x_max":886,"o":"m 475 785 q 457 656 475 710 q 410 566 440 602 q 342 513 381 531 q 263 496 303 496 q 202 508 230 496 q 153 545 174 520 q 121 607 133 569 q 110 693 110 644 q 127 822 110 767 q 174 912 144 876 q 241 966 203 948 q 322 983 280 983 q 382 971 354 983 q 431 934 410 959 q 463 872 451 909 q 475 785 475 835 m 460 785 q 449 867 460 832 q 419 925 438 902 q 375 959 401 948 q 321 971 350 971 q 247 955 282 971 q 184 904 211 938 q 140 817 156 869 q 124 693 124 765 q 134 611 124 646 q 164 553 145 576 q 208 519 183 531 q 264 508 234 508 q 338 525 302 508 q 400 575 373 541 q 443 660 427 608 q 460 785 460 713 m 858 967 q 871 972 864 972 l 881 972 l 129 6 q 118 0 126 0 l 108 0 l 858 967 m 886 278 q 868 149 886 203 q 821 59 851 95 q 753 6 792 24 q 674 -11 715 -11 q 613 1 641 -11 q 564 38 585 13 q 532 100 544 63 q 521 186 521 137 q 538 315 521 260 q 585 405 556 369 q 652 459 614 441 q 733 476 691 476 q 793 464 765 476 q 842 427 822 452 q 874 365 863 402 q 886 278 886 328 m 871 278 q 860 360 871 325 q 831 418 849 395 q 786 452 812 441 q 732 464 761 464 q 658 448 693 464 q 595 397 622 431 q 551 310 567 363 q 535 186 535 258 q 545 104 535 139 q 575 47 556 69 q 619 13 594 24 q 675 1 645 1 q 749 18 713 1 q 811 68 784 34 q 855 153 838 101 q 871 278 871 206 z "},"&":{"ha":871,"x_min":65,"x_max":810,"o":"m 496 983 q 565 971 533 983 q 621 934 597 958 q 659 876 645 910 q 673 800 673 842 l 667 800 q 661 802 663 800 q 658 811 658 805 q 650 860 658 833 q 622 912 641 888 q 572 953 603 936 q 496 969 540 969 q 406 953 447 969 q 336 906 365 936 q 290 835 306 876 q 274 746 274 794 q 299 634 274 690 q 372 522 325 578 l 636 207 q 701 319 676 262 q 737 424 727 376 q 747 432 739 432 l 754 432 q 719 318 747 380 q 646 196 691 256 l 810 0 l 799 0 q 789 1 792 0 q 779 7 785 1 l 635 181 q 565 107 603 142 q 483 45 527 72 q 389 4 438 19 q 285 -11 339 -11 q 203 3 243 -11 q 133 46 164 18 q 84 115 103 74 q 65 208 65 156 q 87 319 65 267 q 146 414 109 371 q 233 489 183 456 q 338 540 283 521 q 277 639 298 592 q 257 740 257 687 q 275 839 257 794 q 325 916 293 883 q 401 966 357 948 q 496 983 444 983 m 82 210 q 101 119 82 158 q 150 54 120 80 q 216 16 180 28 q 288 3 253 3 q 388 18 340 3 q 479 59 436 33 q 558 119 522 85 q 625 192 595 153 l 347 528 q 243 478 291 510 q 159 406 195 447 q 102 314 123 364 q 82 210 82 265 z "},"'":{"ha":274,"x_min":171,"x_max":221,"o":"m 221 972 l 196 768 l 182 663 q 176 657 182 657 q 171 663 171 657 l 182 768 l 208 972 l 221 972 z "},"(":{"ha":383,"x_min":130,"x_max":399,"o":"m 145 318 q 152 200 145 260 q 172 78 158 139 q 205 -40 185 18 q 251 -151 224 -99 q 252 -154 251 -153 q 253 -157 253 -156 q 245 -165 253 -161 l 241 -167 q 156 81 181 -41 q 130 313 130 203 q 133 422 130 368 q 145 530 136 475 q 172 641 155 584 q 218 761 190 699 q 289 894 247 824 q 390 1044 331 964 l 393 1042 q 397 1040 394 1042 q 399 1037 399 1039 q 395 1029 399 1034 q 285 860 332 943 q 207 690 238 776 q 160 513 176 604 q 145 318 145 421 z "},")":{"ha":383,"x_min":9,"x_max":278,"o":"m 263 560 q 256 678 263 617 q 236 799 249 739 q 202 918 222 860 q 157 1029 183 976 q 156 1032 156 1031 q 155 1035 155 1033 q 163 1042 155 1038 l 167 1044 q 252 797 226 919 q 278 565 278 674 q 275 456 278 510 q 262 348 272 403 q 235 236 253 294 q 189 116 218 179 q 118 -17 160 53 q 18 -167 76 -87 l 15 -165 q 11 -162 13 -164 q 9 -159 9 -161 q 13 -151 9 -156 q 123 18 76 -65 q 201 188 169 101 q 247 365 232 274 q 263 560 263 457 z "},"*":{"ha":511,"x_min":129,"x_max":474,"o":"m 271 643 l 290 801 q 293 814 292 809 q 299 831 294 819 q 285 819 289 822 q 274 813 281 817 l 135 731 l 129 743 l 268 825 q 280 830 275 828 q 297 835 285 832 q 287 839 291 838 q 281 841 283 840 q 276 844 278 842 q 271 847 274 845 l 151 929 l 160 942 l 279 860 q 288 852 285 856 q 300 839 290 848 q 299 853 299 848 q 298 863 298 858 q 299 871 298 867 l 318 1029 l 332 1029 l 313 871 q 310 857 311 863 q 304 839 308 851 q 318 852 314 849 q 331 860 323 856 l 469 942 l 474 929 l 335 847 q 323 841 328 843 q 308 835 317 838 q 322 831 317 832 q 332 825 326 829 l 453 743 l 444 731 l 325 813 q 315 819 318 817 q 304 830 312 821 q 305 818 304 822 q 305 810 305 813 q 304 801 305 805 l 285 643 l 271 643 z "},"+":{"ha":806,"x_min":97,"x_max":739,"o":"m 465 799 l 425 472 l 739 472 l 738 458 l 424 458 l 383 131 l 369 131 l 410 458 l 97 458 l 99 472 l 411 472 l 451 799 l 465 799 z "},",":{"ha":257,"x_min":50,"x_max":136,"o":"m 51 36 q 63 66 51 53 q 93 79 74 79 q 124 65 112 79 q 136 25 136 51 q 113 -78 136 -28 q 54 -165 90 -128 l 52 -163 q 50 -158 50 -161 q 53 -151 50 -155 q 69 -128 58 -144 q 92 -93 81 -113 q 113 -47 103 -72 q 122 8 122 -21 q 90 -6 110 -6 q 63 6 74 -6 q 51 36 51 17 z "},"-":{"ha":408,"x_min":71,"x_max":354,"o":"m 74 415 l 354 415 l 353 401 l 71 401 l 74 415 z "},".":{"ha":257,"x_min":49,"x_max":139,"o":"m 49 33 q 61 66 49 52 q 93 79 74 79 q 125 66 112 79 q 139 33 139 52 q 125 2 139 15 q 93 -11 112 -11 q 61 2 74 -11 q 49 33 49 15 z "},"/":{"ha":438,"x_min":-47,"x_max":511,"o":"m -26 -46 q -33 -53 -28 -51 q -42 -54 -37 -54 l -47 -54 l 490 992 q 504 1000 494 1000 l 511 1000 l -26 -46 z "},":":{"ha":257,"x_min":49,"x_max":211,"o":"m 49 33 q 61 66 49 52 q 93 79 74 79 q 125 66 112 79 q 139 33 139 52 q 125 2 139 15 q 93 -11 112 -11 q 61 2 74 -11 q 49 33 49 15 m 121 615 q 134 648 121 634 q 165 661 147 661 q 198 648 184 661 q 211 615 211 634 q 198 584 211 597 q 165 571 184 571 q 134 584 147 571 q 121 615 121 597 z "},";":{"ha":257,"x_min":50,"x_max":222,"o":"m 132 615 q 145 648 132 634 q 176 661 158 661 q 209 648 195 661 q 222 615 222 634 q 209 584 222 597 q 176 571 195 571 q 145 584 158 571 q 132 615 132 597 m 51 36 q 63 66 51 53 q 93 79 74 79 q 124 65 112 79 q 136 25 136 51 q 113 -78 136 -28 q 54 -165 90 -128 l 52 -163 q 50 -158 50 -161 q 53 -151 50 -155 q 69 -128 58 -144 q 92 -93 81 -113 q 113 -47 103 -72 q 122 8 122 -21 q 90 -6 110 -6 q 63 6 74 -6 q 51 36 51 17 z "},"<":{"ha":741,"x_min":128,"x_max":668,"o":"m 130 469 l 668 728 l 667 720 q 652 706 667 713 l 178 479 q 161 471 169 475 q 144 465 153 467 q 174 451 159 460 l 593 225 q 605 213 605 219 q 605 209 605 211 q 604 206 604 208 q 603 203 603 204 l 128 461 l 130 469 z "},"=":{"ha":806,"x_min":122,"x_max":704,"o":"m 124 375 l 679 375 l 678 361 l 122 361 l 124 375 m 149 579 l 704 579 l 703 565 l 147 565 l 149 579 z "},">":{"ha":741,"x_min":107,"x_max":647,"o":"m 645 461 l 107 203 l 108 210 q 123 225 108 218 l 597 451 q 614 459 606 456 q 631 465 622 463 q 601 479 616 470 l 182 706 q 170 718 170 712 q 170 721 170 719 q 171 724 170 723 q 172 728 171 726 l 647 469 l 645 461 z "},"?":{"ha":444,"x_min":86,"x_max":475,"o":"m 86 888 q 125 923 103 906 q 173 953 147 940 q 229 975 199 967 q 293 983 259 983 q 362 971 329 983 q 420 936 395 959 q 460 881 445 914 q 475 808 475 849 q 457 709 475 751 q 413 637 440 668 q 353 583 385 606 q 292 540 321 560 q 243 498 264 519 q 218 450 222 477 l 199 331 l 188 331 l 203 451 q 226 502 206 480 q 275 545 247 524 q 336 589 303 566 q 395 641 368 611 q 440 711 422 671 q 458 807 458 751 q 445 875 458 845 q 408 926 431 906 q 355 958 385 947 q 292 969 325 969 q 210 956 245 969 q 151 925 176 942 q 113 895 127 909 q 94 881 99 881 q 90 884 92 881 l 86 888 m 125 33 q 138 66 125 52 q 169 79 151 79 q 202 66 188 79 q 215 33 215 52 q 202 2 215 15 q 169 -11 188 -11 q 138 2 151 -11 q 125 33 125 15 z "},"@":{"ha":1049,"x_min":79,"x_max":990,"o":"m 721 132 q 649 157 671 132 q 626 226 626 183 q 635 290 626 255 q 540 173 592 210 q 429 136 487 136 q 379 147 400 136 q 344 175 358 157 q 323 218 330 194 q 317 271 317 242 q 328 354 317 312 q 361 436 340 397 q 413 511 383 476 q 482 572 444 546 q 565 613 520 598 q 660 628 610 628 q 713 623 686 628 q 758 607 740 617 l 672 374 q 647 291 654 326 q 639 231 639 256 q 646 188 639 204 q 665 162 653 172 q 692 149 677 153 q 724 146 708 146 q 815 172 769 146 q 895 247 860 198 q 953 367 931 297 q 975 528 975 438 q 946 689 975 620 q 868 802 917 757 q 754 870 819 848 q 615 893 689 893 q 487 874 551 893 q 365 817 423 854 q 257 728 307 781 q 172 609 208 676 q 115 463 135 542 q 94 294 94 384 q 126 105 94 188 q 214 -34 158 22 q 344 -119 269 -90 q 506 -149 419 -149 q 684 -123 599 -149 q 849 -46 770 -98 q 854 -44 851 -44 q 860 -49 858 -44 q 860 -51 860 -50 q 860 -54 860 -53 q 861 -57 860 -56 q 693 -137 781 -110 q 504 -164 605 -164 q 335 -134 413 -164 q 201 -45 258 -103 q 111 97 144 13 q 79 292 79 182 q 100 463 79 382 q 157 612 120 544 q 244 735 194 681 q 354 828 294 790 q 481 886 414 866 q 617 907 547 907 q 760 883 692 907 q 879 812 828 860 q 960 693 930 765 q 990 528 990 622 q 967 365 990 438 q 907 240 944 292 q 820 160 869 188 q 721 132 772 132 m 435 150 q 490 160 460 150 q 548 195 519 169 q 606 264 577 220 q 658 376 634 308 l 740 601 q 703 611 721 608 q 658 614 685 614 q 568 599 610 614 q 490 560 526 585 q 425 501 453 535 q 375 430 396 467 q 344 352 355 392 q 333 274 333 312 q 339 225 333 248 q 358 186 345 203 q 389 160 370 169 q 435 150 408 150 z "},"A":{"ha":786,"x_min":-29,"x_max":732,"o":"m 732 0 l 719 0 q 711 7 713 0 l 627 332 l 157 332 l -7 7 q -18 0 -10 0 l -29 0 l 464 972 l 478 972 l 732 0 m 164 346 l 624 346 l 475 921 q 471 935 473 928 q 468 950 469 942 q 461 935 465 942 q 454 921 458 928 l 164 346 z "},"B":{"ha":813,"x_min":111,"x_max":719,"o":"m 111 0 l 231 972 l 464 972 q 656 918 593 972 q 719 767 719 865 q 701 668 719 715 q 649 584 682 621 q 573 524 617 547 q 481 496 530 501 q 574 475 533 492 q 644 431 615 458 q 688 367 672 404 q 703 285 703 331 q 681 164 703 217 q 617 75 658 111 q 515 19 575 38 q 379 0 455 0 l 111 0 m 188 486 l 129 14 l 381 14 q 509 31 452 14 q 605 83 565 49 q 665 167 644 117 q 686 283 686 217 q 669 367 686 330 q 620 431 652 405 q 543 472 589 458 q 440 486 497 486 l 188 486 m 189 500 l 413 500 q 545 524 490 500 q 635 587 600 549 q 688 672 671 626 q 704 764 704 719 q 645 907 704 856 q 463 958 585 958 l 246 958 l 189 500 z "},"C":{"ha":899,"x_min":110,"x_max":878,"o":"m 472 3 q 572 12 527 3 q 651 36 616 22 q 711 67 685 51 q 754 98 737 83 q 782 122 772 113 q 795 131 792 131 q 800 129 798 131 q 802 126 801 127 l 804 124 q 737 69 772 94 q 661 27 701 44 q 573 -1 620 9 q 471 -11 526 -11 q 323 18 390 -11 q 209 103 256 48 q 136 235 162 158 q 110 410 110 313 q 148 643 110 538 q 252 825 185 749 q 409 942 319 900 q 606 983 500 983 q 692 976 654 983 q 763 955 731 969 q 822 919 794 941 q 878 869 850 898 l 876 867 q 867 863 874 863 q 847 879 861 863 q 802 916 832 896 q 725 953 773 936 q 604 969 677 969 q 416 930 503 969 q 265 818 329 891 q 163 642 200 745 q 126 410 126 538 q 152 241 126 316 q 223 113 177 165 q 332 31 269 60 q 472 3 396 3 z "},"D":{"ha":979,"x_min":111,"x_max":911,"o":"m 911 564 q 875 327 911 431 q 774 150 838 222 q 622 39 710 77 q 431 0 533 0 l 111 0 l 231 972 l 550 972 q 700 944 633 972 q 814 863 767 916 q 886 735 860 810 q 911 564 911 659 m 893 564 q 869 730 893 656 q 800 854 844 803 q 691 932 755 905 q 549 958 627 958 l 246 958 l 129 14 l 432 14 q 615 51 531 14 q 761 158 700 88 q 858 331 823 228 q 893 564 893 433 z "},"E":{"ha":767,"x_min":111,"x_max":754,"o":"m 754 972 l 751 957 l 245 957 l 189 501 l 619 501 l 617 486 l 188 486 l 129 15 l 638 15 l 635 0 l 111 0 l 231 972 l 754 972 z "},"F":{"ha":738,"x_min":111,"x_max":754,"o":"m 751 957 l 245 957 l 188 488 l 631 488 l 628 472 l 185 472 l 128 0 l 111 0 l 231 972 l 754 972 l 751 957 z "},"G":{"ha":972,"x_min":110,"x_max":903,"o":"m 483 3 q 584 9 538 3 q 669 29 629 16 q 744 60 708 42 q 818 102 781 78 l 856 404 l 656 404 q 649 411 649 404 l 649 418 l 872 418 l 832 96 q 758 52 796 72 q 678 18 720 32 q 587 -3 635 4 q 482 -11 539 -11 q 326 18 395 -11 q 209 103 258 48 q 135 235 161 158 q 110 408 110 313 q 147 646 110 540 q 250 827 183 752 q 411 943 317 902 q 618 983 504 983 q 709 977 668 983 q 784 957 749 970 q 847 922 818 943 q 903 872 876 901 l 901 869 q 898 866 900 867 q 892 864 897 864 q 881 872 888 864 q 860 891 874 880 q 827 917 847 903 q 777 942 806 931 q 708 961 747 953 q 617 969 668 969 q 417 931 508 969 q 263 819 327 892 q 162 642 198 747 q 126 408 126 538 q 151 240 126 315 q 223 113 176 165 q 335 31 269 60 q 483 3 401 3 z "},"H":{"ha":967,"x_min":111,"x_max":890,"o":"m 771 0 l 754 0 l 814 486 l 188 486 l 128 0 l 111 0 l 231 972 l 247 972 l 189 501 l 815 501 l 874 972 l 890 972 l 771 0 z "},"I":{"ha":372,"x_min":136,"x_max":272,"o":"m 153 0 l 136 0 l 256 972 l 272 972 l 153 0 z "},"J":{"ha":590,"x_min":32,"x_max":515,"o":"m 431 286 q 397 150 421 206 q 338 58 373 94 q 257 6 302 22 q 159 -11 212 -11 l 156 -11 q 89 -6 118 -11 q 32 10 59 -1 l 33 14 q 36 18 34 16 q 43 21 38 21 q 57 18 49 21 q 78 12 65 15 q 110 6 91 8 q 157 3 128 3 q 244 17 202 3 q 320 63 286 31 q 380 150 355 96 q 414 286 404 205 l 499 972 l 515 972 l 431 286 z "},"K":{"ha":821,"x_min":136,"x_max":843,"o":"m 215 503 l 275 503 q 295 503 287 503 q 311 507 304 504 q 325 514 319 509 q 340 526 332 519 l 808 961 q 822 970 816 969 q 833 972 827 972 l 843 972 l 354 519 q 334 503 342 508 q 314 496 326 498 q 332 489 325 494 q 347 474 340 483 l 749 0 l 742 0 q 727 2 731 0 q 719 10 724 4 l 336 461 q 328 471 332 466 q 318 480 324 476 q 301 486 312 484 q 274 489 291 489 l 213 489 l 153 0 l 136 0 l 256 974 l 272 974 l 215 503 z "},"L":{"ha":650,"x_min":111,"x_max":586,"o":"m 129 15 l 586 15 l 583 0 l 111 0 l 231 972 l 247 972 l 129 15 z "},"M":{"ha":1149,"x_min":111,"x_max":1074,"o":"m 561 218 q 565 208 564 213 l 1058 967 q 1068 972 1062 972 l 1074 972 l 954 0 l 940 0 l 1054 929 q 1055 935 1055 933 q 1056 939 1055 938 l 575 201 q 565 194 570 194 l 561 194 q 553 201 555 194 l 240 942 q 240 936 240 939 q 239 929 240 933 l 125 0 l 111 0 l 231 972 l 236 972 q 242 971 240 972 q 246 967 244 970 l 561 218 l 561 218 z "},"N":{"ha":965,"x_min":111,"x_max":890,"o":"m 236 972 q 244 967 241 972 l 762 30 q 762 37 762 33 q 763 44 762 41 l 876 972 l 890 972 l 771 0 l 768 0 q 758 7 763 0 l 240 946 q 240 940 240 942 q 239 934 240 937 q 239 929 239 931 l 125 0 l 111 0 l 231 972 l 236 972 l 236 972 z "},"O":{"ha":1018,"x_min":110,"x_max":950,"o":"m 950 565 q 913 326 950 433 q 812 145 876 220 q 659 31 747 71 q 468 -10 571 -10 q 320 20 386 -10 q 207 103 254 49 q 135 235 160 158 q 110 407 110 312 q 126 572 110 494 q 174 713 143 649 q 248 827 205 776 q 345 912 292 877 q 460 965 399 947 q 590 983 522 983 q 739 954 672 983 q 852 870 806 924 q 925 738 899 815 q 950 565 950 660 m 932 565 q 908 733 932 658 q 839 861 883 808 q 730 941 794 913 q 589 969 667 969 q 465 952 524 969 q 354 901 406 935 q 261 819 303 868 q 189 708 219 770 q 143 570 159 646 q 126 408 126 495 q 151 240 126 315 q 221 113 176 165 q 329 32 266 60 q 469 4 392 4 q 653 43 568 4 q 800 154 738 81 q 897 331 862 226 q 932 565 932 435 z "},"P":{"ha":740,"x_min":136,"x_max":731,"o":"m 203 417 l 153 0 l 136 0 l 256 972 l 458 972 q 661 914 592 972 q 731 739 731 856 q 705 608 731 667 q 633 506 679 549 q 525 440 588 463 q 390 417 463 417 l 203 417 m 270 958 l 206 431 l 392 431 q 522 454 463 431 q 623 518 581 477 q 690 614 666 558 q 714 736 714 670 q 650 901 714 844 q 457 958 586 958 l 270 958 z "},"Q":{"ha":1017,"x_min":110,"x_max":950,"o":"m 950 565 q 931 389 950 471 q 877 242 912 308 q 793 125 842 176 q 685 43 744 75 l 888 -226 l 878 -226 q 864 -221 867 -226 l 672 36 q 575 2 626 14 q 468 -10 524 -10 q 320 20 386 -10 q 207 103 254 49 q 135 235 160 158 q 110 407 110 312 q 126 572 110 494 q 174 713 143 649 q 248 827 205 776 q 345 912 292 877 q 460 965 399 947 q 590 983 522 983 q 739 954 672 983 q 852 870 806 924 q 925 738 899 815 q 950 565 950 660 m 932 565 q 908 733 932 658 q 839 861 883 808 q 730 941 794 913 q 589 969 667 969 q 465 952 524 969 q 354 901 406 935 q 261 819 303 868 q 189 708 219 770 q 143 570 159 646 q 126 408 126 495 q 151 240 126 315 q 221 113 176 165 q 329 32 266 60 q 469 4 392 4 q 653 43 568 4 q 800 154 738 81 q 897 331 862 226 q 932 565 932 435 z "},"R":{"ha":792,"x_min":136,"x_max":726,"o":"m 210 469 l 153 0 l 136 0 l 256 972 l 464 972 q 659 922 592 972 q 726 765 726 871 q 702 643 726 697 q 635 551 678 590 q 533 492 592 513 q 403 469 474 472 q 422 451 413 465 l 715 0 l 704 0 q 695 1 699 0 q 688 8 692 2 l 408 444 q 399 456 403 451 q 388 464 394 461 q 372 468 381 467 q 350 469 363 469 l 210 469 m 213 483 l 392 483 q 522 502 463 483 q 622 558 581 522 q 687 646 664 594 q 710 764 710 698 q 647 911 710 863 q 463 958 583 958 l 271 958 l 267 922 l 213 483 z "},"S":{"ha":660,"x_min":43,"x_max":633,"o":"m 631 884 q 624 879 628 879 q 614 886 619 879 q 599 902 608 892 q 576 924 590 913 q 543 946 563 936 q 496 963 523 956 q 433 969 469 969 q 326 949 374 969 q 246 895 279 929 q 195 815 213 860 q 178 718 178 769 q 195 638 178 670 q 242 583 213 606 q 308 544 272 560 q 384 514 345 528 q 460 482 423 499 q 526 443 497 466 q 573 386 555 419 q 590 303 590 352 q 568 182 590 239 q 506 82 547 125 q 407 14 465 40 q 278 -11 349 -11 q 198 -2 233 -11 q 135 23 163 6 q 85 62 108 39 q 43 115 63 85 l 46 118 q 56 122 50 122 q 66 114 59 122 q 83 91 72 105 q 110 63 94 78 q 150 34 126 47 q 205 11 174 20 q 279 3 237 3 q 401 27 347 3 q 495 91 456 51 q 554 186 533 132 q 575 303 575 241 q 557 382 575 350 q 510 436 540 414 q 444 474 481 458 q 369 504 408 490 q 293 534 330 518 q 227 574 256 551 q 180 632 198 598 q 163 717 163 667 q 181 818 163 769 q 234 903 199 866 q 320 961 269 940 q 436 983 371 983 q 548 960 501 983 q 633 888 596 938 l 631 884 z "},"T":{"ha":742,"x_min":101,"x_max":793,"o":"m 793 972 l 792 957 l 456 957 l 339 0 l 322 0 l 440 957 l 101 957 l 103 972 l 793 972 z "},"U":{"ha":940,"x_min":145,"x_max":872,"o":"m 429 3 q 561 31 501 3 q 668 108 622 59 q 742 222 713 156 q 781 361 772 287 l 856 972 l 872 972 l 797 361 q 757 216 788 284 q 677 98 726 149 q 565 17 629 47 q 426 -12 501 -12 q 307 12 359 -12 q 218 78 254 36 q 164 178 183 120 q 145 302 145 235 q 146 331 145 317 q 149 361 147 346 l 224 972 l 240 972 l 165 363 q 163 333 164 347 q 162 303 162 318 q 179 184 162 240 q 230 89 197 129 q 314 26 264 49 q 429 3 364 3 z "},"V":{"ha":786,"x_min":90,"x_max":850,"o":"m 90 972 l 101 972 q 110 965 108 972 l 347 51 q 351 37 349 44 q 354 23 353 31 q 361 37 358 31 q 368 51 365 44 l 829 965 q 839 972 833 972 l 850 972 l 358 0 l 344 0 l 90 972 z "},"W":{"ha":1226,"x_min":90,"x_max":1292,"o":"m 90 972 l 103 972 q 110 965 108 972 l 260 51 q 262 36 261 43 q 264 21 263 29 q 270 36 267 29 q 276 51 273 43 l 681 965 q 690 972 683 972 l 693 972 q 700 965 699 972 l 879 51 q 882 36 881 44 q 883 21 883 29 q 890 36 887 29 q 896 51 892 43 l 1269 965 q 1274 970 1271 969 q 1281 972 1277 972 l 1292 972 l 889 0 l 875 0 l 692 933 q 690 945 690 939 q 689 956 689 951 q 685 945 688 951 q 681 933 683 939 l 268 0 l 254 0 l 90 972 z "},"X":{"ha":719,"x_min":-43,"x_max":757,"o":"m 372 519 l 119 972 l 133 972 q 141 969 139 972 q 147 961 144 967 l 384 528 q 390 538 385 532 l 731 965 q 737 971 734 969 q 744 972 740 972 l 757 972 l 394 519 l 681 0 l 665 0 q 658 3 660 0 q 654 10 656 7 l 381 510 q 375 501 378 506 l -14 10 q -20 3 -17 6 q -28 0 -24 0 l -43 0 l 372 519 z "},"Y":{"ha":735,"x_min":103,"x_max":786,"o":"m 385 413 l 333 0 l 317 0 l 368 413 l 103 972 l 117 972 q 125 967 122 972 l 369 446 q 374 437 372 442 q 378 427 376 433 q 384 437 381 433 q 390 446 388 442 l 763 967 q 772 972 766 972 l 786 972 l 385 413 z "},"Z":{"ha":819,"x_min":47,"x_max":817,"o":"m 817 972 l 815 965 q 813 960 814 962 q 808 954 812 958 l 72 15 l 697 15 l 694 0 l 47 0 l 49 7 q 51 12 50 10 q 54 17 52 13 l 792 957 l 175 957 l 178 972 l 817 972 z "},"[":{"ha":383,"x_min":68,"x_max":392,"o":"m 68 -168 l 217 1043 l 392 1043 l 392 1039 q 382 1031 392 1031 l 231 1031 l 83 -156 l 236 -156 q 244 -164 244 -156 l 243 -168 l 68 -168 z "},"\\":{"ha":438,"x_min":82,"x_max":382,"o":"m 82 1000 l 89 1000 q 101 992 99 1000 l 382 -54 l 376 -54 q 368 -53 372 -54 q 363 -46 364 -51 l 82 1000 z "},"]":{"ha":383,"x_min":15,"x_max":340,"o":"m 15 -164 q 26 -156 15 -156 l 178 -156 l 324 1031 l 172 1031 q 165 1033 167 1031 q 164 1039 164 1035 l 164 1043 l 340 1043 l 192 -168 l 15 -168 l 15 -164 z "},"^":{"ha":806,"x_min":211,"x_max":672,"o":"m 672 564 l 663 564 q 649 574 653 564 l 454 925 q 447 939 451 932 q 442 953 444 945 q 429 925 437 939 l 235 574 q 230 567 233 570 q 221 564 226 564 l 211 564 l 438 972 l 446 972 l 672 564 z "},"_":{"ha":504,"x_min":-64,"x_max":442,"o":"m 442 -167 l 439 -182 l -64 -182 l -62 -167 l 442 -167 z "},"`":{"ha":358,"x_min":118,"x_max":246,"o":"m 136 983 q 152 981 147 983 q 161 968 157 978 l 246 804 l 236 804 q 226 810 230 804 l 118 983 l 136 983 z "},"a":{"ha":663,"x_min":49,"x_max":581,"o":"m 501 0 l 497 0 q 491 2 492 0 q 489 8 489 5 l 522 299 q 462 175 496 231 q 389 77 428 118 q 306 14 349 37 q 215 -8 262 -8 q 139 9 170 -8 q 87 58 107 26 q 58 132 67 89 q 49 226 49 175 q 64 342 49 285 q 106 450 79 399 q 171 545 133 501 q 253 621 208 589 q 348 671 298 653 q 451 689 399 689 q 520 682 489 689 q 581 656 551 674 l 501 0 m 215 6 q 303 28 260 6 q 386 94 347 51 q 461 198 426 138 q 526 335 497 259 l 565 649 q 511 669 539 663 q 451 675 483 675 q 353 658 401 675 q 263 610 306 640 q 183 537 219 579 q 121 444 147 494 q 80 339 94 394 q 65 226 65 283 q 74 135 65 176 q 101 66 83 94 q 147 21 119 37 q 215 6 176 6 z "},"b":{"ha":689,"x_min":85,"x_max":638,"o":"m 85 0 l 206 1000 l 221 1000 l 145 384 q 208 508 172 451 q 284 605 244 565 q 370 668 325 645 q 461 690 415 690 q 540 673 506 690 q 595 624 573 655 q 627 550 617 592 q 638 457 638 507 q 627 354 638 408 q 598 248 617 300 q 549 150 578 197 q 483 68 520 103 q 402 13 447 33 q 306 -8 357 -8 q 193 22 245 -8 q 112 113 141 51 l 96 10 q 94 3 94 6 q 89 0 94 0 l 85 0 m 461 676 q 371 653 416 676 q 285 587 326 630 q 206 482 243 544 q 140 343 169 420 l 115 134 q 153 74 132 99 q 199 34 174 49 q 251 13 224 19 q 307 6 278 6 q 400 26 357 6 q 477 80 442 46 q 540 159 513 114 q 585 255 567 205 q 613 357 603 305 q 622 457 622 409 q 612 548 622 508 q 581 617 601 589 q 531 661 561 646 q 461 676 501 676 z "},"c":{"ha":594,"x_min":57,"x_max":565,"o":"m 540 126 q 469 58 502 84 q 405 17 436 31 q 343 -3 374 2 q 279 -8 313 -8 q 179 12 221 -8 q 110 68 137 33 q 70 152 83 103 q 57 257 57 201 q 68 364 57 310 q 100 466 79 417 q 149 555 120 514 q 215 627 178 597 q 294 674 251 657 q 386 692 338 692 q 446 685 419 692 q 494 666 473 678 q 533 638 516 654 q 565 601 551 621 l 563 599 q 556 596 560 596 q 541 609 551 596 q 512 637 531 622 q 462 665 492 652 q 385 678 431 678 q 260 642 317 678 q 162 547 203 606 q 97 412 120 488 q 74 257 74 336 q 85 158 74 204 q 122 78 97 113 q 185 25 147 44 q 279 6 224 6 q 355 15 321 6 q 414 38 388 24 q 460 68 440 52 q 493 98 479 84 q 517 121 508 112 q 532 131 526 131 q 535 130 534 131 q 540 126 537 130 z "},"d":{"ha":690,"x_min":51,"x_max":644,"o":"m 518 0 q 511 3 513 0 q 510 10 510 6 l 544 300 q 481 175 517 232 q 405 78 445 119 q 319 14 364 37 q 228 -8 274 -8 q 149 10 183 -8 q 94 59 116 28 q 62 133 72 90 q 51 226 51 176 q 61 330 51 276 q 91 435 72 383 q 140 533 111 487 q 206 614 169 579 q 287 670 242 649 q 383 690 331 690 q 495 661 443 690 q 576 572 547 633 l 629 1000 l 644 1000 l 522 0 l 518 0 m 228 6 q 317 28 272 6 q 402 94 361 51 q 481 199 444 138 q 547 336 517 260 l 573 549 q 535 609 556 585 q 489 648 514 633 q 438 670 465 663 q 382 676 410 676 q 289 656 332 676 q 211 602 247 636 q 149 523 176 568 q 104 428 122 478 q 76 326 85 378 q 67 226 67 274 q 77 135 67 176 q 108 66 88 94 q 158 21 128 37 q 228 6 188 6 z "},"e":{"ha":604,"x_min":56,"x_max":556,"o":"m 556 565 q 548 514 556 538 q 522 467 541 489 q 469 425 503 444 q 382 389 435 406 q 253 357 328 372 q 77 332 178 343 q 71 251 71 291 q 84 149 71 194 q 123 72 97 103 q 189 23 149 40 q 281 6 228 6 q 352 15 320 6 q 410 38 385 24 q 456 68 436 52 q 490 98 476 84 q 514 121 504 112 q 529 131 524 131 q 533 130 531 131 q 538 126 534 130 q 474 66 505 91 q 412 24 443 40 q 348 -1 381 7 q 279 -8 315 -8 q 182 10 224 -8 q 111 61 140 28 q 69 143 83 94 q 56 251 56 191 q 65 354 56 301 q 94 455 75 406 q 142 547 114 503 q 208 622 171 590 q 291 672 245 653 q 390 690 336 690 q 471 677 439 690 q 522 644 503 664 q 548 603 540 625 q 556 565 556 582 m 390 676 q 272 648 324 676 q 180 573 219 619 q 116 467 141 526 q 79 346 90 408 q 256 371 182 357 q 382 402 331 385 q 465 438 433 419 q 514 478 497 457 q 537 520 531 499 q 543 565 543 542 q 535 601 543 582 q 509 638 527 621 q 462 665 492 654 q 390 676 433 676 z "},"f":{"ha":372,"x_min":47,"x_max":440,"o":"m 172 639 l 94 7 l 68 -167 q 64 -174 67 -172 q 60 -175 62 -175 l 57 -175 l 156 639 l 54 642 q 47 647 47 642 l 47 651 l 158 651 l 171 756 q 196 857 178 814 q 241 927 215 899 q 300 968 267 955 q 371 982 333 982 q 408 978 389 982 q 440 967 426 974 l 440 964 q 437 959 439 962 q 432 957 435 957 q 410 963 425 957 q 369 968 394 968 q 306 957 335 968 q 252 920 276 945 q 211 854 228 894 q 186 756 194 813 l 172 651 l 385 651 l 382 639 l 172 639 z "},"g":{"ha":582,"x_min":-37,"x_max":606,"o":"m 497 514 q 486 438 497 472 q 459 375 475 403 q 425 323 443 347 q 392 276 407 299 q 366 231 376 253 q 356 183 356 208 q 365 148 356 165 q 389 115 374 131 q 419 82 403 99 q 450 45 436 65 q 474 1 465 25 q 483 -53 483 -23 q 462 -129 483 -92 q 402 -196 441 -167 q 310 -243 364 -225 q 193 -261 257 -261 q 101 -251 143 -261 q 28 -221 58 -241 q -20 -172 -3 -201 q -37 -104 -37 -143 q -15 -22 -37 -60 q 51 43 8 16 q 153 86 93 71 q 287 102 213 102 q 335 100 310 102 q 386 95 360 99 q 355 134 368 113 q 342 183 342 154 q 344 210 342 197 q 353 238 347 224 q 370 270 359 253 q 399 310 381 288 q 334 275 369 288 q 267 263 300 263 q 194 275 227 263 q 139 310 162 287 q 103 367 116 333 q 90 444 90 401 q 106 535 90 491 q 151 614 122 579 q 224 669 181 648 q 321 690 267 690 q 433 657 388 690 l 606 657 l 606 651 q 603 647 606 649 q 593 643 601 644 l 450 643 q 485 588 472 621 q 497 514 497 556 m 468 -53 q 462 -9 468 -28 q 447 26 456 10 q 424 56 437 42 q 399 81 412 69 q 343 87 370 85 q 291 89 316 89 q 155 73 213 89 q 57 31 96 58 q -2 -31 17 4 q -22 -104 -22 -66 q -6 -165 -22 -139 q 39 -210 10 -192 q 107 -238 67 -228 q 194 -247 147 -247 q 307 -230 256 -247 q 393 -186 357 -213 q 448 -124 428 -158 q 468 -53 467 -89 m 267 276 q 358 297 317 276 q 426 351 398 318 q 469 427 454 385 q 483 514 483 470 q 472 585 483 555 q 439 636 460 616 q 387 666 417 656 q 321 676 357 676 q 230 657 269 676 q 162 605 190 637 q 120 531 135 572 q 106 444 106 489 q 150 319 106 361 q 267 276 194 276 z "},"h":{"ha":697,"x_min":85,"x_max":608,"o":"m 85 0 l 206 1000 l 221 1000 l 150 416 q 214 529 178 478 q 290 616 249 580 q 375 671 331 651 q 463 690 419 690 q 573 643 538 690 q 608 508 608 596 q 606 473 608 491 q 603 436 605 456 l 551 0 l 536 0 l 588 436 q 592 505 592 472 q 561 632 592 587 q 461 676 530 676 q 375 656 419 676 q 291 597 332 635 q 213 503 250 558 q 146 381 176 449 l 100 0 l 85 0 z "},"i":{"ha":296,"x_min":99,"x_max":251,"o":"m 197 681 l 114 0 l 99 0 l 182 681 l 197 681 m 251 933 q 240 907 251 919 q 215 896 229 896 q 190 907 201 896 q 179 933 179 919 q 190 961 179 949 q 215 972 201 972 q 240 961 229 972 q 251 933 251 949 z "},"j":{"ha":283,"x_min":-99,"x_max":251,"o":"m 193 681 l 94 -119 q 79 -176 91 -150 q 49 -220 67 -201 q 6 -249 30 -239 q -47 -260 -19 -260 q -76 -256 -64 -260 q -99 -244 -88 -252 l -96 -239 q -89 -233 -93 -233 q -74 -240 -83 -233 q -46 -246 -65 -246 q 40 -211 8 -246 q 79 -119 72 -176 l 178 681 l 193 681 m 251 933 q 240 907 251 919 q 215 896 229 896 q 190 907 201 896 q 179 933 179 919 q 190 961 179 949 q 215 972 201 972 q 240 961 229 972 q 251 933 251 949 z "},"k":{"ha":574,"x_min":81,"x_max":572,"o":"m 218 1000 l 141 372 l 171 372 q 188 374 181 372 q 204 385 194 376 l 536 669 q 547 677 542 674 q 561 681 553 681 l 572 681 l 218 379 q 200 367 208 371 q 214 360 208 365 q 225 350 220 356 l 514 0 l 503 0 q 493 1 497 0 q 485 8 489 3 l 213 340 q 193 356 203 352 q 165 360 184 360 l 140 360 l 96 0 l 81 0 l 203 1000 l 218 1000 z "},"l":{"ha":294,"x_min":99,"x_max":235,"o":"m 99 0 l 219 1000 l 235 1000 l 113 0 l 99 0 z "},"m":{"ha":1067,"x_min":79,"x_max":978,"o":"m 79 0 l 161 683 l 164 683 q 171 680 169 683 q 172 674 172 677 l 142 408 q 203 525 169 473 q 276 614 238 577 q 358 670 315 651 q 444 690 400 690 q 501 680 478 690 q 539 651 524 670 q 559 603 553 632 q 565 539 565 575 q 563 491 565 516 q 557 436 560 465 q 618 548 583 500 q 692 627 653 596 q 772 675 731 659 q 851 690 813 690 q 911 680 887 690 q 950 648 935 669 q 972 598 965 628 q 978 528 978 567 q 972 436 978 487 l 921 0 l 906 0 l 957 436 q 963 527 963 486 q 957 591 963 563 q 938 638 951 619 q 903 667 925 657 q 850 676 882 676 q 773 660 813 676 q 694 611 733 644 q 620 527 656 578 q 555 405 584 476 l 507 0 l 492 0 l 543 436 q 549 491 547 465 q 551 538 551 516 q 545 597 551 572 q 528 641 540 623 q 494 667 515 658 q 443 676 474 676 q 277 599 353 676 q 139 374 201 521 l 94 0 l 79 0 z "},"n":{"ha":693,"x_min":79,"x_max":603,"o":"m 79 0 l 161 683 l 164 683 q 171 680 169 683 q 172 674 172 677 l 142 408 q 206 524 170 472 q 284 614 242 576 q 369 670 325 651 q 458 690 414 690 q 568 643 533 690 q 603 506 603 595 q 602 473 603 490 q 599 436 601 455 l 547 0 l 532 0 l 583 436 q 587 472 585 454 q 588 505 588 489 q 557 632 588 587 q 457 676 526 676 q 370 655 414 676 q 284 595 326 634 q 206 500 243 556 q 139 374 169 444 l 94 0 l 79 0 z "},"o":{"ha":675,"x_min":58,"x_max":617,"o":"m 293 6 q 418 41 362 6 q 515 133 475 76 q 578 265 556 191 q 600 415 600 338 q 585 525 600 476 q 541 608 569 574 q 472 660 513 642 q 382 678 432 678 q 295 662 336 678 q 221 618 255 646 q 160 551 187 590 q 114 467 133 513 q 85 371 95 422 q 75 268 75 320 q 90 158 75 207 q 134 76 106 110 q 202 24 162 42 q 293 6 242 6 m 292 -8 q 194 11 238 -8 q 120 66 151 31 q 74 153 90 102 q 58 268 58 204 q 69 374 58 322 q 99 473 79 426 q 147 560 119 520 q 211 629 175 600 q 291 675 247 658 q 383 692 334 692 q 481 672 438 692 q 554 617 524 653 q 600 530 584 581 q 617 415 617 478 q 606 310 617 363 q 576 211 596 258 q 528 124 556 164 q 464 54 500 83 q 384 8 428 25 q 292 -8 341 -8 z "},"p":{"ha":683,"x_min":47,"x_max":632,"o":"m 47 -250 l 161 683 l 164 683 q 171 680 169 683 q 172 672 172 677 l 140 383 q 202 507 167 451 q 278 605 238 564 q 365 668 319 645 q 456 690 410 690 q 534 673 501 690 q 589 624 567 655 q 622 550 611 592 q 632 457 632 507 q 622 354 632 408 q 592 248 612 300 q 543 150 572 197 q 478 68 515 103 q 396 13 441 33 q 300 -8 351 -8 q 188 21 240 -8 q 107 113 136 51 l 63 -250 l 47 -250 m 456 676 q 366 653 410 676 q 279 587 321 630 q 201 482 238 544 q 135 343 164 420 l 110 134 q 148 74 126 99 q 193 34 169 49 q 245 13 218 19 q 301 6 273 6 q 394 26 351 6 q 472 80 437 46 q 534 159 507 114 q 580 255 561 205 q 607 357 598 305 q 617 457 617 409 q 606 548 617 508 q 576 617 596 589 q 525 661 556 646 q 456 676 495 676 z "},"q":{"ha":663,"x_min":49,"x_max":581,"o":"m 471 -250 l 468 -250 q 458 -247 461 -250 q 455 -236 455 -244 q 455 -230 455 -234 q 456 -221 456 -226 l 520 292 q 459 170 493 226 q 387 76 426 115 q 305 14 348 36 q 215 -8 261 -8 q 139 9 170 -8 q 87 58 107 26 q 58 132 67 89 q 49 226 49 175 q 64 342 49 285 q 106 450 79 399 q 171 545 133 501 q 253 621 208 589 q 348 671 298 653 q 451 689 399 689 q 520 682 489 689 q 581 656 551 674 l 471 -250 m 215 6 q 303 28 260 6 q 385 94 346 51 q 460 198 425 137 q 525 334 496 258 l 565 649 q 511 669 539 663 q 451 675 483 675 q 353 658 401 675 q 263 610 306 640 q 183 537 219 579 q 121 444 147 494 q 80 339 94 394 q 65 226 65 283 q 74 135 65 176 q 101 66 83 94 q 147 21 119 37 q 215 6 176 6 z "},"r":{"ha":449,"x_min":79,"x_max":457,"o":"m 79 0 l 161 683 l 164 683 q 172 674 172 683 l 144 422 q 257 620 192 551 q 397 689 322 689 q 457 678 428 689 l 454 665 q 397 676 425 676 q 322 655 358 676 q 253 597 285 635 q 192 504 221 559 q 140 381 164 449 l 94 0 l 79 0 z "},"s":{"ha":532,"x_min":36,"x_max":489,"o":"m 489 624 q 484 617 485 618 q 479 615 482 615 q 465 625 474 615 q 439 645 456 634 q 394 667 422 657 q 324 676 366 676 q 248 663 284 676 q 184 625 212 649 q 140 569 156 601 q 124 504 124 538 q 138 450 124 472 q 174 413 151 428 q 225 387 197 398 q 284 365 254 376 q 344 342 315 354 q 395 313 373 330 q 432 270 418 295 q 446 208 446 244 q 430 128 446 167 q 384 57 414 88 q 311 8 354 26 q 215 -11 269 -11 q 156 -5 182 -11 q 109 11 130 1 q 70 37 88 22 q 36 71 53 52 l 40 75 q 47 79 44 79 q 60 67 51 79 q 90 40 70 55 q 140 14 109 26 q 218 1 171 1 q 305 19 265 1 q 373 65 344 36 q 416 131 401 94 q 432 208 432 168 q 418 266 432 242 q 382 306 404 290 q 330 333 359 322 q 270 355 301 344 q 211 377 240 365 q 160 405 183 389 q 124 445 138 422 q 110 504 110 469 q 127 575 110 541 q 173 634 144 608 q 242 675 203 660 q 326 690 281 690 q 418 675 380 690 q 489 624 456 659 z "},"t":{"ha":440,"x_min":82,"x_max":424,"o":"m 131 101 q 131 111 131 105 q 132 130 131 118 q 136 161 133 142 q 142 210 138 181 l 194 638 l 90 638 q 82 644 82 638 l 83 649 l 195 651 l 233 925 q 236 932 234 928 q 242 935 238 935 l 246 935 l 211 651 l 424 651 l 422 638 l 209 638 l 157 208 q 151 161 153 180 q 148 130 149 142 q 146 111 147 117 q 146 101 146 104 q 152 56 146 75 q 171 26 159 38 q 199 8 183 14 q 233 3 215 3 q 282 12 260 3 q 318 31 303 21 q 344 51 334 42 q 357 60 353 60 q 363 57 360 60 l 364 54 q 305 7 341 26 q 232 -11 269 -11 q 157 15 184 -11 q 131 101 131 42 z "},"u":{"ha":692,"x_min":90,"x_max":614,"o":"m 161 681 l 110 247 q 106 178 106 210 q 136 51 106 96 q 236 6 167 6 q 323 27 279 6 q 409 88 367 48 q 487 183 450 127 q 554 308 524 239 l 599 681 l 614 681 l 532 0 l 528 0 q 521 3 522 0 q 519 10 519 6 l 551 274 l 551 277 q 488 160 524 213 q 410 69 451 107 q 324 12 368 32 q 235 -8 279 -8 q 125 40 160 -8 q 90 177 90 88 q 91 211 90 193 q 94 247 92 228 l 146 681 l 161 681 z "},"v":{"ha":597,"x_min":63,"x_max":618,"o":"m 263 0 l 251 0 l 63 681 l 71 681 q 78 677 76 681 q 82 671 81 674 l 254 47 q 257 34 256 40 q 259 20 258 27 q 264 33 261 26 q 271 47 267 40 l 596 671 q 610 681 601 681 l 618 681 l 263 0 z "},"w":{"ha":913,"x_min":63,"x_max":933,"o":"m 63 681 l 69 681 q 81 671 78 681 l 197 47 q 199 33 199 40 q 201 19 200 26 q 213 47 206 32 l 489 678 q 497 685 491 685 l 500 685 q 504 683 503 685 q 506 678 505 681 l 628 47 q 631 32 629 40 q 633 18 632 25 q 638 32 635 24 q 644 47 641 40 l 913 671 q 925 681 917 681 l 933 681 l 636 0 l 629 0 q 622 7 624 0 l 499 640 q 497 651 497 646 q 496 661 497 656 q 488 640 492 651 l 207 7 q 199 0 203 0 l 193 0 l 63 681 z "},"x":{"ha":543,"x_min":-26,"x_max":538,"o":"m 264 362 l 85 681 l 93 681 q 106 675 102 681 l 275 372 q 278 375 276 374 q 281 379 279 377 l 515 675 q 525 681 519 681 l 538 681 l 282 360 l 482 0 l 474 0 q 460 7 463 0 l 269 351 q 264 343 267 348 l -3 6 q -8 1 -6 2 q -15 0 -11 0 l -26 0 l 264 362 z "},"y":{"ha":597,"x_min":63,"x_max":619,"o":"m 135 -239 q 119 -250 129 -250 l 111 -250 l 251 12 l 63 681 l 71 681 q 78 678 76 681 q 82 671 81 676 l 256 53 q 260 26 259 40 q 266 40 263 33 q 272 53 269 47 l 599 674 q 610 681 602 681 l 619 681 l 135 -239 z "},"z":{"ha":569,"x_min":10,"x_max":557,"o":"m 556 676 q 550 665 556 672 l 32 14 l 456 14 l 454 0 l 10 0 l 10 4 q 11 9 10 7 q 15 14 13 12 l 534 667 l 113 667 l 115 681 l 557 681 l 556 676 z "},"{":{"ha":383,"x_min":63,"x_max":393,"o":"m 160 333 q 133 403 160 376 q 63 431 106 431 l 64 444 q 113 454 90 444 q 153 484 135 464 q 180 533 170 503 q 190 603 190 563 q 188 655 190 628 q 184 709 186 682 q 180 763 182 736 q 178 815 178 790 q 192 909 178 867 q 230 981 206 951 q 287 1027 254 1010 q 357 1043 319 1043 l 393 1043 l 393 1038 q 383 1031 391 1031 l 356 1031 q 293 1017 323 1031 q 242 976 264 1003 q 206 908 219 949 q 193 815 193 868 q 195 763 193 790 q 199 707 197 735 q 203 652 201 679 q 206 601 206 625 q 194 530 206 560 q 167 481 183 501 q 130 451 150 461 q 93 438 110 440 q 122 427 108 435 q 148 407 136 419 q 166 376 159 394 q 174 335 174 358 q 160 249 174 292 q 132 164 147 207 q 103 77 116 122 q 90 -14 90 33 q 99 -72 90 -46 q 123 -117 108 -98 q 161 -145 139 -135 q 210 -156 183 -156 l 239 -156 q 246 -162 246 -156 l 244 -168 l 208 -168 q 153 -156 178 -168 q 111 -123 128 -144 q 84 -73 94 -101 q 75 -12 75 -45 q 88 79 75 36 q 117 164 101 122 q 147 247 133 206 q 160 333 160 288 z "},"|":{"ha":417,"x_min":160,"x_max":174,"o":"m 160 1043 l 174 1043 l 174 -250 l 160 -250 l 160 1043 z "},"}":{"ha":383,"x_min":14,"x_max":346,"o":"m 217 272 q 219 220 217 247 q 223 166 221 193 q 227 112 225 139 q 229 60 229 85 q 215 -34 229 8 q 177 -106 201 -76 q 120 -152 153 -135 q 50 -168 88 -168 l 14 -168 l 15 -163 q 24 -156 16 -156 l 51 -156 q 114 -142 84 -156 q 165 -101 143 -128 q 201 -33 188 -74 q 214 60 214 7 q 212 112 214 85 q 208 168 210 140 q 205 223 206 196 q 203 274 203 249 q 214 344 203 315 q 241 393 224 374 q 276 424 257 413 q 314 438 296 434 q 285 448 299 440 q 259 468 271 456 q 241 499 248 481 q 233 540 233 517 q 246 626 233 583 q 275 711 259 668 q 303 798 290 753 q 317 889 317 842 q 308 947 317 921 q 284 992 299 973 q 246 1020 268 1010 q 197 1031 224 1031 l 169 1031 q 162 1038 162 1031 l 162 1040 q 163 1043 162 1042 l 199 1043 q 254 1031 229 1043 q 296 998 278 1019 q 323 948 313 976 q 332 888 332 919 q 326 825 332 855 q 310 767 319 795 q 290 711 301 738 q 270 656 279 683 q 255 600 261 628 q 249 542 249 572 q 256 502 249 520 q 275 472 263 485 q 306 452 288 459 q 346 444 324 444 l 343 431 q 295 421 318 431 q 255 391 272 411 q 227 342 238 372 q 217 272 217 313 z "},"~":{"ha":806,"x_min":69,"x_max":653,"o":"m 511 367 q 564 377 540 367 q 603 407 587 388 q 629 451 620 426 q 639 506 638 476 l 653 506 q 643 448 653 475 q 616 399 634 420 q 572 365 598 378 q 511 353 545 353 q 437 368 476 353 q 359 403 398 384 q 282 437 320 422 q 211 453 244 453 q 159 442 182 453 q 119 413 135 431 q 93 368 102 394 q 83 314 84 343 l 69 314 q 79 372 69 344 q 106 420 88 399 q 151 454 124 442 q 211 467 177 467 q 285 451 247 467 q 363 417 324 435 q 440 382 402 398 q 511 367 478 367 z "}," ":{"ha":268,"x_min":0,"x_max":0,"o":""},"¡":{"ha":390,"x_min":117,"x_max":276,"o":"m 117 -250 l 164 138 q 171 195 167 168 q 178 249 174 222 q 187 309 183 277 q 197 382 192 341 l 207 382 q 200 309 203 341 q 193 249 197 277 q 187 195 190 222 q 181 138 184 168 l 133 -250 l 117 -250 m 186 646 q 199 678 186 665 q 231 692 212 692 q 263 678 249 692 q 276 646 276 665 q 263 614 276 627 q 231 601 249 601 q 199 614 212 601 q 186 646 186 627 z "},"¢":{"ha":806,"x_min":118,"x_max":694,"o":"m 383 -8 q 272 15 321 -6 q 188 73 222 35 q 136 165 154 111 q 118 285 118 218 q 144 451 118 376 q 219 579 170 526 q 336 662 267 633 q 492 692 406 692 l 517 851 q 526 863 519 863 l 533 863 l 507 691 q 616 669 569 689 q 694 621 663 650 l 690 617 q 687 615 688 615 q 683 614 685 614 q 668 623 679 614 q 637 644 658 633 q 584 666 617 656 q 505 678 552 676 l 400 6 q 500 19 458 6 q 570 47 542 32 q 614 74 599 62 q 633 86 629 86 q 636 85 635 86 q 639 83 638 84 l 640 81 q 605 50 628 66 q 550 22 581 35 q 480 1 518 9 q 398 -8 441 -8 l 372 -175 q 363 -186 370 -186 l 356 -186 l 383 -8 m 135 286 q 152 170 135 222 q 202 83 169 119 q 281 27 235 47 q 385 6 327 7 l 490 678 q 343 650 408 678 q 231 571 277 622 q 160 448 185 520 q 135 286 135 376 z "},"£":{"ha":806,"x_min":32,"x_max":768,"o":"m 586 458 q 575 450 584 450 l 215 450 l 183 188 q 169 125 179 152 q 144 77 160 98 q 108 41 129 57 q 59 13 87 26 q 84 15 72 15 q 108 15 95 15 l 721 15 l 721 8 q 717 2 721 5 q 710 0 714 0 l 32 0 l 33 15 q 82 40 59 26 q 121 72 104 53 q 150 119 138 92 q 167 188 162 147 l 199 450 l 69 450 l 70 456 q 81 464 71 464 l 200 464 l 228 689 q 260 807 235 753 q 326 900 285 861 q 420 961 366 940 q 542 983 475 983 q 634 971 596 983 q 700 938 673 958 q 742 889 726 917 q 768 829 758 860 l 765 828 q 758 827 759 827 q 750 835 753 827 q 725 884 740 860 q 688 927 711 908 q 629 958 665 946 q 540 969 593 969 q 427 949 478 969 q 338 891 376 928 q 276 802 299 853 q 244 689 252 750 l 217 464 l 586 464 l 586 458 l 586 458 z "},"¤":{"ha":806,"x_min":154,"x_max":707,"o":"m 201 465 q 218 551 201 511 q 263 623 234 592 l 154 732 l 164 742 l 273 633 q 344 679 304 662 q 431 696 385 696 q 517 679 476 696 q 589 633 558 663 l 697 742 l 707 732 l 599 624 q 644 552 628 592 q 661 465 661 511 q 644 379 661 419 q 598 308 627 339 l 707 199 l 697 189 l 588 298 q 517 252 557 269 q 431 236 476 236 q 345 253 385 236 q 274 299 305 269 l 164 189 l 154 199 l 264 308 q 218 380 235 340 q 201 465 201 419 m 215 465 q 232 382 215 421 q 278 313 249 342 q 347 267 308 284 q 431 250 386 250 q 515 267 475 250 q 584 313 554 284 q 630 382 613 342 q 647 465 647 421 q 630 549 647 510 q 584 618 613 589 q 515 665 554 648 q 431 682 475 682 q 347 665 386 682 q 278 618 308 648 q 232 549 249 589 q 215 465 215 510 z "},"¥":{"ha":806,"x_min":117,"x_max":792,"o":"m 131 422 l 395 422 l 161 972 l 175 972 q 183 967 181 972 l 401 446 q 409 424 406 434 q 414 435 412 430 q 421 446 417 440 l 767 967 q 772 971 769 970 q 778 972 774 972 l 792 972 l 422 422 l 686 422 l 685 408 l 415 408 l 404 319 l 674 319 l 672 306 l 402 306 l 365 0 l 349 0 l 385 306 l 117 306 l 118 319 l 388 319 l 398 408 l 129 408 l 131 422 z "},"¦":{"ha":417,"x_min":160,"x_max":174,"o":"m 160 1043 l 174 1043 l 174 514 l 160 514 l 160 1043 m 160 279 l 174 279 l 174 -250 l 160 -250 l 160 279 z "},"§":{"ha":638,"x_min":79,"x_max":585,"o":"m 582 913 q 575 908 580 908 q 560 918 569 908 q 534 939 551 927 q 489 960 517 950 q 419 969 462 969 q 341 955 377 969 q 278 917 305 941 q 236 861 251 893 q 221 796 221 830 q 235 739 221 763 q 273 695 249 715 q 326 660 297 676 q 388 627 356 644 q 449 593 419 611 q 502 553 478 576 q 540 502 526 531 q 554 435 554 473 q 520 322 554 367 q 426 247 485 276 q 473 194 456 224 q 490 125 490 165 q 474 41 490 81 q 428 -29 458 1 q 355 -77 398 -59 q 260 -94 313 -94 q 200 -89 226 -94 q 153 -72 174 -83 q 114 -47 131 -62 q 79 -12 96 -31 l 83 -8 q 87 -5 85 -6 q 92 -4 88 -4 q 107 -16 97 -4 q 136 -42 117 -28 q 185 -69 155 -57 q 261 -81 215 -81 q 351 -64 312 -81 q 418 -20 391 -48 q 460 45 446 8 q 475 122 475 81 q 460 183 475 157 q 419 231 444 210 q 363 269 394 252 q 298 303 331 287 q 233 338 265 320 q 176 377 201 356 q 136 426 151 399 q 121 489 121 453 q 129 542 121 516 q 155 591 137 568 q 202 635 173 615 q 274 672 231 655 q 225 723 244 694 q 206 793 206 752 q 222 865 206 831 q 268 926 239 899 q 337 968 297 952 q 422 983 376 983 q 513 968 474 983 q 585 917 551 952 l 582 913 m 136 492 q 150 436 136 460 q 186 393 163 413 q 238 357 208 373 q 298 324 267 340 q 359 292 328 308 q 416 256 390 275 q 511 331 483 287 q 539 432 539 374 q 527 491 539 465 q 495 536 515 516 q 449 573 475 557 q 395 604 423 589 q 338 633 367 619 q 285 664 310 647 q 215 627 244 647 q 169 586 187 608 q 144 542 151 565 q 136 492 136 518 z "},"¨":{"ha":358,"x_min":97,"x_max":403,"o":"m 175 904 q 163 878 175 890 q 136 867 151 867 q 109 878 120 867 q 97 904 97 890 q 109 932 97 920 q 136 943 120 943 q 163 932 151 943 q 175 904 175 920 m 403 904 q 391 878 403 890 q 364 867 378 867 q 336 878 348 867 q 325 904 325 890 q 336 932 325 920 q 364 943 348 943 q 391 932 378 943 q 403 904 403 920 z "},"©":{"ha":1131,"x_min":83,"x_max":1075,"o":"m 803 267 q 808 269 806 269 q 814 265 811 269 q 817 261 815 263 q 773 228 796 243 q 721 201 749 213 q 660 184 693 190 q 586 178 626 178 q 465 199 520 178 q 370 261 410 221 q 307 358 330 301 q 285 486 285 415 q 307 613 285 556 q 371 710 330 669 q 469 773 412 751 q 596 796 526 796 q 660 791 631 796 q 713 778 688 787 q 760 756 738 769 q 804 725 782 742 q 799 719 801 719 q 794 718 798 718 q 778 728 790 718 q 744 750 767 738 q 685 772 721 762 q 596 782 649 782 q 476 761 531 782 q 383 702 422 741 q 323 609 344 664 q 301 486 301 554 q 323 362 301 417 q 382 270 344 308 q 472 212 420 232 q 586 192 524 192 q 657 197 626 192 q 713 211 688 201 q 760 234 738 220 q 803 267 781 249 m 83 486 q 122 679 83 589 q 228 837 161 769 q 386 943 296 904 q 579 982 476 982 q 772 943 682 982 q 930 837 863 904 q 1036 679 997 769 q 1075 486 1075 589 q 1036 293 1075 383 q 930 135 997 203 q 772 29 863 68 q 579 -10 682 -10 q 386 29 476 -10 q 228 135 296 68 q 122 293 161 203 q 83 486 83 383 m 100 486 q 138 299 100 387 q 240 147 175 212 q 392 44 305 82 q 579 7 480 7 q 707 24 645 7 q 822 72 768 41 q 919 147 875 103 q 994 244 963 191 q 1043 358 1026 297 q 1060 486 1060 419 q 1043 614 1060 552 q 994 728 1026 675 q 919 826 963 782 q 822 901 875 869 q 707 950 768 933 q 579 967 645 967 q 451 950 513 967 q 337 901 390 933 q 240 826 284 869 q 165 728 197 782 q 117 614 134 675 q 100 486 100 552 z "},"ª":{"ha":422,"x_min":115,"x_max":408,"o":"m 368 582 q 363 589 363 582 l 367 650 q 292 595 330 615 q 206 575 254 575 q 172 580 188 575 q 143 595 156 585 q 123 622 131 606 q 115 660 115 638 q 180 757 115 720 q 385 796 244 793 l 390 840 q 392 872 392 857 q 369 943 392 920 q 301 967 346 967 q 250 958 272 967 q 213 939 228 949 q 188 920 197 928 q 175 911 179 911 q 168 918 169 911 q 232 965 199 949 q 304 981 265 981 q 352 972 332 981 q 384 947 372 963 q 402 911 397 932 q 408 868 408 891 q 406 840 408 853 l 374 582 l 368 582 m 208 589 q 257 595 235 589 q 299 612 279 601 q 335 637 318 623 q 369 667 353 651 l 383 782 q 192 748 254 778 q 131 663 131 717 q 137 629 131 643 q 155 606 144 615 q 179 593 165 597 q 208 589 193 589 z "},"«":{"ha":535,"x_min":110,"x_max":440,"o":"m 110 353 l 110 356 l 292 613 l 296 610 q 299 603 299 607 q 294 593 299 598 l 138 369 q 124 354 127 356 q 133 339 128 351 l 236 115 q 238 108 238 111 q 233 99 238 102 l 228 96 l 110 353 m 251 353 l 251 356 l 433 613 l 438 610 q 440 603 440 607 q 436 593 440 598 l 279 369 q 265 354 269 356 q 275 339 269 351 l 378 115 q 380 108 380 111 q 375 99 380 102 l 369 96 l 251 353 z "},"¬":{"ha":806,"x_min":139,"x_max":697,"o":"m 140 472 l 697 472 l 669 250 l 654 250 l 680 458 l 139 458 l 140 472 z "},"­":{"ha":408,"x_min":71,"x_max":354,"o":"m 74 415 l 354 415 l 353 401 l 71 401 l 74 415 z "},"®":{"ha":1131,"x_min":90,"x_max":1082,"o":"m 90 486 q 129 679 90 589 q 235 837 168 769 q 393 943 303 904 q 586 982 483 982 q 779 943 689 982 q 937 837 869 904 q 1043 679 1004 769 q 1082 486 1082 589 q 1043 293 1082 383 q 937 135 1004 203 q 779 29 869 68 q 586 -10 689 -10 q 393 29 483 -10 q 235 135 303 68 q 129 293 168 203 q 90 486 90 383 m 107 486 q 144 299 107 387 q 247 147 182 212 q 399 44 312 82 q 586 7 487 7 q 714 24 652 7 q 828 72 775 41 q 926 147 882 103 q 1001 244 969 191 q 1050 358 1033 297 q 1067 486 1067 419 q 1050 614 1067 552 q 1001 728 1033 675 q 926 826 969 782 q 828 901 882 869 q 714 950 775 933 q 586 967 652 967 q 458 950 519 967 q 344 901 397 933 q 247 826 291 869 q 172 728 203 782 q 124 614 141 675 q 107 486 107 552 m 436 475 l 436 181 l 419 181 l 419 792 l 567 792 q 714 755 662 792 q 765 639 765 717 q 751 573 765 602 q 712 522 738 543 q 651 489 686 501 q 572 475 615 477 q 584 468 578 472 q 594 457 589 463 l 826 181 l 813 181 q 807 181 809 181 q 801 186 805 182 l 572 460 q 559 470 567 466 q 531 475 551 475 l 436 475 m 436 489 l 558 489 q 699 528 649 489 q 749 639 749 567 q 703 745 749 713 q 567 778 658 778 l 436 778 l 436 489 z "},"¯":{"ha":358,"x_min":81,"x_max":415,"o":"m 82 896 l 415 896 l 414 882 l 81 882 l 82 896 z "},"°":{"ha":519,"x_min":124,"x_max":511,"o":"m 124 792 q 139 867 124 832 q 181 927 155 901 q 243 968 208 953 q 317 983 278 983 q 393 968 357 983 q 455 927 428 953 q 496 867 481 901 q 511 792 511 832 q 496 716 511 751 q 455 655 481 681 q 393 614 428 629 q 317 599 357 599 q 243 614 278 599 q 181 655 208 629 q 139 716 155 681 q 124 792 124 751 m 138 792 q 152 722 138 755 q 190 666 166 690 q 247 628 215 642 q 317 614 280 614 q 386 628 353 614 q 443 666 419 642 q 481 722 467 690 q 494 792 494 755 q 481 861 494 828 q 443 918 467 894 q 386 956 419 942 q 317 969 353 969 q 247 956 280 969 q 190 918 215 942 q 152 861 166 894 q 138 792 138 828 z "},"±":{"ha":806,"x_min":47,"x_max":739,"o":"m 461 771 l 424 472 l 739 472 l 738 458 l 423 458 l 386 158 l 372 158 l 409 458 l 97 458 l 99 472 l 410 472 l 447 771 l 461 771 m 49 69 l 689 69 l 688 56 l 47 56 l 49 69 z "},"²":{"ha":458,"x_min":108,"x_max":449,"o":"m 328 1118 q 373 1111 351 1118 q 412 1091 395 1105 q 439 1056 428 1077 q 449 1006 449 1035 q 438 948 449 974 q 409 899 427 922 q 368 853 392 875 q 318 807 344 831 l 128 636 q 172 639 144 639 l 411 639 q 417 633 417 639 q 416 631 417 632 q 416 628 416 629 q 415 625 415 626 l 108 625 l 110 632 q 114 639 110 635 l 308 814 q 357 859 334 838 q 397 904 380 881 q 424 951 414 926 q 433 1004 433 976 q 424 1049 433 1030 q 400 1080 415 1068 q 366 1098 385 1092 q 325 1104 347 1104 q 237 1075 273 1104 q 183 996 201 1045 q 172 989 181 989 l 165 990 q 225 1084 181 1050 q 328 1118 269 1118 z "},"³":{"ha":458,"x_min":129,"x_max":458,"o":"m 339 1118 q 384 1112 363 1118 q 423 1092 406 1106 q 449 1059 439 1079 q 458 1011 458 1039 q 448 960 458 983 q 421 920 438 937 q 382 892 404 903 q 337 877 360 881 q 415 841 389 870 q 442 771 442 813 q 428 712 442 740 q 392 664 415 685 q 338 631 369 643 q 271 619 306 619 q 201 632 228 619 q 160 662 175 644 q 139 701 145 680 q 129 742 132 723 l 136 744 q 140 746 139 746 q 144 744 142 746 q 147 739 147 742 q 148 737 147 738 q 148 734 148 735 q 153 709 149 726 q 170 675 158 692 q 207 645 183 658 q 272 632 231 632 q 337 644 308 632 q 385 677 365 657 q 415 721 405 697 q 425 768 425 745 q 418 808 425 790 q 394 840 410 826 q 352 861 378 853 q 289 869 326 869 l 290 881 q 353 891 325 881 q 401 917 381 901 q 431 957 421 934 q 442 1008 442 980 q 433 1051 442 1033 q 410 1081 425 1069 q 377 1099 396 1093 q 336 1104 358 1104 q 248 1075 284 1104 q 194 996 213 1047 q 185 989 192 989 l 176 990 q 236 1084 192 1050 q 339 1118 280 1118 z "},"´":{"ha":358,"x_min":194,"x_max":367,"o":"m 367 983 l 215 810 q 204 804 212 804 l 194 804 l 319 968 q 333 981 327 978 q 349 983 338 983 l 367 983 z "},"µ":{"ha":675,"x_min":24,"x_max":604,"o":"m 154 681 l 97 215 q 97 202 97 208 q 97 190 97 196 q 137 52 97 101 q 263 3 177 3 q 401 45 335 3 q 524 162 468 88 l 589 681 l 604 681 l 521 0 l 517 0 q 510 2 511 0 q 508 11 508 5 l 522 140 q 465 78 495 106 q 401 30 435 50 q 332 0 368 10 q 260 -11 297 -11 q 135 31 177 -11 q 87 152 92 74 q 84 127 85 140 q 81 93 83 113 q 75 45 78 74 q 67 -23 72 17 q 56 -120 63 -64 q 40 -250 49 -176 l 32 -250 q 25 -248 26 -250 q 24 -242 24 -245 l 138 681 l 154 681 z "},"¶":{"ha":833,"x_min":93,"x_max":875,"o":"m 875 972 l 874 957 l 713 957 l 581 -125 l 564 -125 l 697 957 l 438 957 l 306 -125 l 289 -125 l 367 508 q 253 522 304 508 q 167 563 203 536 q 113 630 132 590 q 93 719 93 669 q 116 823 93 776 q 183 903 140 870 q 287 954 226 936 q 424 972 348 972 l 875 972 z "},"·":{"ha":361,"x_min":160,"x_max":243,"o":"m 160 410 q 172 440 160 428 q 200 453 184 453 q 231 440 218 453 q 243 410 243 428 q 231 382 243 394 q 200 369 218 369 q 172 382 184 369 q 160 410 160 394 z "},"¸":{"ha":358,"x_min":17,"x_max":215,"o":"m 26 -206 q 34 -210 29 -206 q 49 -221 40 -215 q 73 -231 58 -226 q 110 -236 88 -236 q 176 -215 151 -236 q 200 -158 200 -194 q 191 -127 200 -140 q 167 -107 183 -115 q 131 -95 151 -99 q 86 -87 110 -91 l 124 0 l 135 0 l 103 -76 q 149 -86 128 -81 q 184 -102 169 -92 q 207 -124 199 -111 q 215 -156 215 -137 q 207 -195 215 -178 q 183 -224 198 -212 q 148 -242 168 -236 q 104 -249 128 -249 q 53 -239 78 -249 q 17 -212 29 -228 l 19 -210 q 26 -206 24 -206 z "},"¹":{"ha":458,"x_min":176,"x_max":424,"o":"m 178 638 l 294 638 l 349 1072 l 353 1094 l 218 985 q 213 983 216 983 q 208 985 210 983 l 204 992 l 358 1115 l 369 1115 l 311 638 l 424 638 l 422 625 l 176 625 l 178 638 z "},"º":{"ha":469,"x_min":115,"x_max":461,"o":"m 314 981 q 377 968 350 981 q 424 934 405 956 q 452 881 442 912 q 461 811 461 849 q 448 714 461 758 q 409 639 434 670 q 347 591 383 608 q 264 574 310 574 q 199 586 227 574 q 153 620 172 598 q 125 673 134 642 q 115 742 115 703 q 129 839 115 795 q 168 915 142 883 q 230 963 193 946 q 314 981 267 981 m 265 585 q 344 601 310 585 q 401 648 378 618 q 436 719 424 678 q 449 811 449 761 q 440 875 449 846 q 414 925 431 904 q 372 958 397 946 q 313 969 347 969 q 233 952 267 969 q 176 905 199 935 q 141 833 153 875 q 129 742 129 792 q 138 678 129 707 q 163 628 146 649 q 205 596 180 608 q 265 585 231 585 z "},"»":{"ha":535,"x_min":94,"x_max":424,"o":"m 101 96 l 97 99 q 94 106 94 101 q 97 115 94 110 l 256 339 q 263 349 260 346 q 268 354 266 353 q 258 369 264 356 l 156 593 q 154 600 154 596 q 160 610 154 606 l 164 613 l 282 356 l 282 353 l 101 96 m 243 96 l 239 99 q 235 106 235 101 q 239 115 235 110 l 397 339 q 405 349 401 346 q 410 354 408 353 q 400 369 406 356 l 297 593 q 296 600 296 596 q 301 610 296 606 l 306 613 l 424 356 l 424 353 l 243 96 z "},"¼":{"ha":1024,"x_min":160,"x_max":950,"o":"m 851 160 l 950 160 l 950 153 q 947 148 949 149 q 942 147 946 147 l 850 147 l 832 0 l 817 0 l 835 147 l 597 147 q 589 151 589 147 l 589 158 l 879 488 l 892 488 l 851 160 m 872 449 q 873 456 873 452 q 875 465 874 460 l 608 160 l 836 160 l 872 449 m 278 8 q 271 1 275 3 q 263 0 267 0 l 256 0 l 875 964 q 890 972 879 972 l 898 972 l 278 8 m 161 497 l 278 497 l 332 932 q 334 943 333 936 q 337 954 335 951 l 203 846 q 196 842 199 842 q 192 844 192 842 l 188 851 l 342 975 l 353 975 l 294 497 l 407 497 l 406 485 l 160 485 l 161 497 z "},"½":{"ha":1024,"x_min":160,"x_max":928,"o":"m 244 8 q 236 1 240 3 q 228 0 232 0 l 221 0 l 840 964 q 855 972 844 972 l 863 972 l 244 8 m 807 493 q 852 486 831 493 q 891 466 874 480 q 918 431 908 452 q 928 381 928 410 q 917 323 928 349 q 889 274 906 297 q 847 228 871 250 q 797 182 823 206 l 608 11 q 651 14 624 14 l 890 14 q 896 8 896 14 l 894 0 l 588 0 l 588 6 q 593 14 590 11 l 788 189 q 836 234 813 213 q 876 279 859 256 q 903 326 893 301 q 913 379 913 351 q 903 424 913 405 q 880 455 894 443 q 845 473 865 467 q 804 479 826 479 q 755 471 778 479 q 715 449 733 463 q 683 414 697 434 q 662 371 669 394 q 653 364 660 364 q 648 365 651 364 l 644 365 q 704 459 660 425 q 807 493 748 493 m 161 497 l 278 497 l 332 932 q 334 943 333 936 q 337 954 335 951 l 203 846 q 196 842 199 842 q 192 844 192 842 l 188 851 l 342 975 l 353 975 l 294 497 l 407 497 l 406 485 l 160 485 l 161 497 z "},"¾":{"ha":1024,"x_min":125,"x_max":964,"o":"m 865 160 l 964 160 l 964 153 q 961 148 963 149 q 956 147 960 147 l 864 147 l 846 0 l 831 0 l 849 147 l 611 147 q 603 151 603 147 l 603 158 l 893 488 l 906 488 l 865 160 m 886 449 q 887 456 887 452 q 889 465 888 460 l 622 160 l 850 160 l 886 449 m 335 978 q 380 972 358 978 q 418 952 402 965 q 444 919 435 939 q 454 871 454 899 q 444 819 454 842 q 417 780 434 797 q 378 752 400 763 q 333 737 356 741 q 411 701 385 730 q 438 631 438 672 q 424 572 438 599 q 388 524 410 544 q 333 491 365 503 q 267 479 302 479 q 197 491 224 479 q 156 522 171 503 q 134 561 141 540 q 125 601 128 583 l 130 603 q 137 605 133 605 q 143 599 142 605 q 150 565 144 584 q 170 530 156 547 q 207 503 183 514 q 268 492 231 492 q 333 504 304 492 q 381 536 361 517 q 411 581 401 556 q 421 628 421 605 q 414 668 421 649 q 390 700 406 686 q 348 721 374 713 q 285 729 322 729 l 286 740 q 349 751 321 741 q 397 777 377 760 q 427 817 417 794 q 438 868 438 840 q 429 911 438 893 q 406 941 421 929 q 373 958 392 953 q 332 964 353 964 q 243 934 280 964 q 190 856 206 904 q 182 849 187 849 q 180 849 181 849 q 176 849 179 849 l 172 850 q 232 944 188 910 q 335 978 276 978 m 299 8 q 292 1 296 3 q 283 0 288 0 l 276 0 l 896 964 q 910 972 900 972 l 919 972 l 299 8 z "},"¿":{"ha":444,"x_min":-25,"x_max":363,"o":"m 363 -162 q 323 -197 344 -181 q 276 -227 301 -214 q 220 -249 250 -241 q 157 -257 191 -257 q 87 -245 120 -257 q 29 -210 54 -233 q -10 -155 4 -187 q -25 -82 -25 -123 q -7 16 -25 -24 q 38 86 10 57 q 97 136 65 115 q 157 177 128 158 q 206 216 185 196 q 231 263 226 235 l 250 382 l 260 382 l 246 261 q 222 211 242 232 q 174 171 202 190 q 114 131 146 152 q 54 82 81 110 q 9 15 27 54 q -8 -81 -8 -24 q 5 -149 -8 -119 q 42 -200 19 -179 q 95 -232 65 -221 q 158 -243 125 -243 q 239 -229 203 -243 q 299 -199 274 -215 q 338 -168 324 -182 q 354 -154 351 -154 q 357 -155 356 -154 q 358 -157 357 -156 l 363 -162 m 243 646 q 256 678 243 665 q 288 692 269 692 q 320 678 306 692 q 333 646 333 665 q 320 614 333 627 q 288 601 306 601 q 256 614 269 601 q 243 646 243 627 z "},"À":{"ha":786,"x_min":-29,"x_max":732,"o":"m 732 0 l 719 0 q 711 7 713 0 l 627 332 l 157 332 l -7 7 q -18 0 -10 0 l -29 0 l 464 972 l 478 972 l 732 0 m 164 346 l 624 346 l 475 921 q 471 935 473 928 q 468 950 469 942 q 461 935 465 942 q 454 921 458 928 l 164 346 m 346 1222 q 362 1220 358 1222 q 372 1213 367 1218 l 508 1068 l 500 1068 q 489 1072 495 1068 l 322 1222 l 346 1222 z "},"Á":{"ha":786,"x_min":-29,"x_max":732,"o":"m 732 0 l 719 0 q 711 7 713 0 l 627 332 l 157 332 l -7 7 q -18 0 -10 0 l -29 0 l 464 972 l 478 972 l 732 0 m 164 346 l 624 346 l 475 921 q 471 935 473 928 q 468 950 469 942 q 461 935 465 942 q 454 921 458 928 l 164 346 m 660 1222 l 456 1072 q 443 1068 449 1068 l 435 1068 l 607 1213 q 619 1220 613 1218 q 635 1222 624 1222 l 660 1222 z "},"Â":{"ha":786,"x_min":-29,"x_max":732,"o":"m 732 0 l 719 0 q 711 7 713 0 l 627 332 l 157 332 l -7 7 q -18 0 -10 0 l -29 0 l 464 972 l 478 972 l 732 0 m 164 346 l 624 346 l 475 921 q 471 935 473 928 q 468 950 469 942 q 461 935 465 942 q 454 921 458 928 l 164 346 m 629 1068 l 615 1068 q 610 1069 613 1068 q 604 1074 606 1070 l 493 1185 q 490 1188 491 1185 q 489 1186 490 1186 q 488 1185 488 1185 l 349 1074 q 342 1069 345 1070 q 335 1068 338 1068 l 321 1068 l 486 1200 l 497 1200 l 629 1068 z "},"Ã":{"ha":786,"x_min":-29,"x_max":732,"o":"m 732 0 l 719 0 q 711 7 713 0 l 627 332 l 157 332 l -7 7 q -18 0 -10 0 l -29 0 l 464 972 l 478 972 l 732 0 m 164 346 l 624 346 l 475 921 q 471 935 473 928 q 468 950 469 942 q 461 935 465 942 q 454 921 458 928 l 164 346 m 561 1094 q 611 1117 592 1094 q 635 1174 629 1140 l 646 1174 q 636 1138 643 1155 q 619 1108 630 1121 q 594 1088 609 1096 q 560 1081 579 1081 q 523 1093 539 1081 q 491 1121 506 1106 q 460 1149 476 1136 q 426 1161 445 1161 q 398 1155 410 1161 q 377 1138 386 1149 q 361 1113 367 1127 q 353 1082 356 1098 l 340 1082 q 350 1118 343 1101 q 368 1147 357 1135 q 394 1167 379 1160 q 428 1175 409 1175 q 466 1163 449 1175 q 497 1135 482 1150 q 527 1107 512 1119 q 561 1094 542 1094 z "},"Ä":{"ha":786,"x_min":-29,"x_max":732,"o":"m 732 0 l 719 0 q 711 7 713 0 l 627 332 l 157 332 l -7 7 q -18 0 -10 0 l -29 0 l 464 972 l 478 972 l 732 0 m 164 346 l 624 346 l 475 921 q 471 935 473 928 q 468 950 469 942 q 461 935 465 942 q 454 921 458 928 l 164 346 m 411 1156 q 399 1130 411 1141 q 372 1118 387 1118 q 345 1130 356 1118 q 333 1156 333 1141 q 345 1183 333 1172 q 372 1194 356 1194 q 399 1183 387 1194 q 411 1156 411 1172 m 639 1156 q 627 1130 639 1141 q 600 1118 615 1118 q 573 1130 584 1118 q 561 1156 561 1141 q 573 1183 561 1172 q 600 1194 584 1194 q 627 1183 615 1194 q 639 1156 639 1172 z "},"Å":{"ha":786,"x_min":-29,"x_max":732,"o":"m 732 0 l 719 0 q 711 7 713 0 l 627 332 l 157 332 l -7 7 q -18 0 -10 0 l -29 0 l 464 972 l 478 972 l 732 0 m 164 346 l 624 346 l 475 921 q 471 935 473 928 q 468 950 469 942 q 461 935 465 942 q 454 921 458 928 l 164 346 m 375 1114 q 383 1153 375 1135 q 405 1185 391 1172 q 438 1206 419 1199 q 478 1214 456 1214 q 518 1206 499 1214 q 551 1185 537 1199 q 573 1153 565 1172 q 581 1114 581 1135 q 573 1074 581 1092 q 551 1043 565 1056 q 518 1022 537 1029 q 478 1014 499 1014 q 438 1022 456 1014 q 405 1043 419 1029 q 383 1074 391 1056 q 375 1114 375 1092 m 390 1114 q 397 1079 390 1095 q 415 1051 403 1063 q 443 1033 427 1040 q 478 1026 459 1026 q 513 1033 497 1026 q 540 1051 528 1040 q 559 1079 552 1063 q 565 1114 565 1095 q 559 1149 565 1133 q 540 1176 552 1165 q 513 1195 528 1188 q 478 1201 497 1201 q 443 1195 459 1201 q 415 1176 427 1188 q 397 1149 403 1165 q 390 1114 390 1133 z "},"Æ":{"ha":1175,"x_min":-50,"x_max":1161,"o":"m 1160 957 l 603 957 l 603 501 l 1028 501 l 1025 486 l 603 486 l 603 15 l 1046 15 l 1042 0 l 588 0 l 588 332 l 184 332 l -26 7 q -37 0 -31 0 l -50 0 l 582 972 l 1161 972 l 1160 957 m 193 346 l 588 346 l 588 957 q 578 939 583 947 q 567 921 574 931 l 193 346 z "},"Ç":{"ha":899,"x_min":110,"x_max":878,"o":"m 369 -206 q 377 -210 372 -206 q 392 -221 383 -215 q 416 -231 401 -226 q 453 -236 431 -236 q 519 -215 494 -236 q 543 -158 543 -194 q 534 -127 543 -140 q 510 -107 526 -115 q 474 -95 494 -99 q 429 -87 453 -91 l 462 -10 q 318 21 383 -9 q 207 106 253 51 q 135 238 160 161 q 110 410 110 315 q 148 643 110 538 q 252 825 185 749 q 409 942 319 900 q 606 983 500 983 q 692 976 654 983 q 763 955 731 969 q 822 919 794 941 q 878 869 850 898 l 875 865 q 867 863 872 863 q 847 879 861 863 q 802 916 832 896 q 725 953 773 936 q 604 969 677 969 q 416 930 503 969 q 265 818 329 891 q 163 642 200 745 q 126 410 126 538 q 152 241 126 316 q 223 113 177 165 q 332 31 269 60 q 472 3 396 3 q 572 12 527 3 q 651 36 616 22 q 711 67 685 51 q 754 98 737 83 q 782 122 772 113 q 795 131 792 131 q 798 130 797 131 l 804 124 q 737 69 772 94 q 661 27 702 44 q 574 -1 621 9 q 473 -11 528 -11 l 447 -76 q 492 -86 472 -81 q 527 -102 513 -92 q 550 -124 542 -111 q 558 -156 558 -137 q 550 -195 558 -178 q 526 -224 541 -212 q 491 -242 511 -236 q 447 -249 471 -249 q 397 -239 421 -249 q 360 -212 372 -228 l 363 -210 q 369 -206 367 -206 z "},"È":{"ha":767,"x_min":111,"x_max":754,"o":"m 754 972 l 751 957 l 245 957 l 189 501 l 619 501 l 617 486 l 188 486 l 129 15 l 638 15 l 635 0 l 111 0 l 231 972 l 754 972 m 381 1222 q 397 1220 392 1222 q 407 1213 401 1218 l 543 1068 l 535 1068 q 524 1072 530 1068 l 357 1222 l 381 1222 z "},"É":{"ha":767,"x_min":111,"x_max":754,"o":"m 754 972 l 751 957 l 245 957 l 189 501 l 619 501 l 617 486 l 188 486 l 129 15 l 638 15 l 635 0 l 111 0 l 231 972 l 754 972 m 694 1222 l 490 1072 q 478 1068 484 1068 l 469 1068 l 642 1213 q 653 1220 648 1218 q 669 1222 659 1222 l 694 1222 z "},"Ê":{"ha":767,"x_min":111,"x_max":754,"o":"m 754 972 l 751 957 l 245 957 l 189 501 l 619 501 l 617 486 l 188 486 l 129 15 l 638 15 l 635 0 l 111 0 l 231 972 l 754 972 m 664 1068 l 650 1068 q 644 1069 648 1068 q 639 1074 641 1070 l 528 1185 q 525 1188 526 1185 q 524 1186 524 1186 q 522 1185 523 1185 l 383 1074 q 376 1069 380 1070 q 369 1068 373 1068 l 356 1068 l 521 1200 l 532 1200 l 664 1068 z "},"Ë":{"ha":767,"x_min":111,"x_max":754,"o":"m 754 972 l 751 957 l 245 957 l 189 501 l 619 501 l 617 486 l 188 486 l 129 15 l 638 15 l 635 0 l 111 0 l 231 972 l 754 972 m 446 1156 q 434 1130 446 1141 q 407 1118 422 1118 q 380 1130 391 1118 q 368 1156 368 1141 q 380 1183 368 1172 q 407 1194 391 1194 q 434 1183 422 1194 q 446 1156 446 1172 m 674 1156 q 661 1130 674 1141 q 635 1118 649 1118 q 607 1130 619 1118 q 596 1156 596 1141 q 607 1183 596 1172 q 635 1194 619 1194 q 661 1183 649 1194 q 674 1156 674 1172 z "},"Ì":{"ha":372,"x_min":115,"x_max":301,"o":"m 153 0 l 136 0 l 256 972 l 272 972 l 153 0 m 139 1222 q 155 1220 151 1222 q 165 1213 160 1218 l 301 1068 l 293 1068 q 282 1072 288 1068 l 115 1222 l 139 1222 z "},"Í":{"ha":372,"x_min":136,"x_max":453,"o":"m 153 0 l 136 0 l 256 972 l 272 972 l 153 0 m 453 1222 l 249 1072 q 236 1068 242 1068 l 228 1068 l 400 1213 q 412 1220 406 1218 q 428 1222 417 1222 l 453 1222 z "},"Î":{"ha":372,"x_min":114,"x_max":422,"o":"m 153 0 l 136 0 l 256 972 l 272 972 l 153 0 m 422 1068 l 408 1068 q 403 1069 406 1068 q 397 1074 399 1070 l 286 1185 q 283 1188 284 1185 q 282 1186 283 1186 q 281 1185 281 1185 l 142 1074 q 135 1069 138 1070 q 128 1068 131 1068 l 114 1068 l 279 1200 l 290 1200 l 422 1068 z "},"Ï":{"ha":372,"x_min":126,"x_max":432,"o":"m 153 0 l 136 0 l 256 972 l 272 972 l 153 0 m 204 1156 q 192 1130 204 1141 q 165 1118 180 1118 q 138 1130 149 1118 q 126 1156 126 1141 q 138 1183 126 1172 q 165 1194 149 1194 q 192 1183 180 1194 q 204 1156 204 1172 m 432 1156 q 420 1130 432 1141 q 393 1118 408 1118 q 366 1130 377 1118 q 354 1156 354 1141 q 366 1183 354 1172 q 393 1194 377 1194 q 420 1183 408 1194 q 432 1156 432 1172 z "},"Ð":{"ha":1004,"x_min":49,"x_max":936,"o":"m 50 501 l 199 501 l 257 972 l 576 972 q 725 944 658 972 q 839 863 792 916 q 911 735 885 810 q 936 564 936 659 q 900 327 936 431 q 800 150 864 222 q 648 39 735 77 q 457 0 560 0 l 138 0 l 197 488 l 49 488 l 50 501 m 918 564 q 894 730 918 656 q 825 854 869 803 q 716 932 780 905 q 575 958 653 958 l 271 958 l 215 501 l 486 501 l 485 488 l 213 488 l 156 14 l 458 14 q 641 51 557 14 q 787 158 726 88 q 883 331 849 228 q 918 564 918 433 z "},"Ñ":{"ha":965,"x_min":111,"x_max":890,"o":"m 236 972 q 244 967 241 972 l 762 30 q 762 37 762 33 q 763 44 762 41 l 876 972 l 890 972 l 771 0 l 768 0 q 758 7 763 0 l 240 946 q 240 940 240 942 q 239 934 240 937 q 239 929 239 931 l 125 0 l 111 0 l 231 972 l 236 972 l 236 972 m 653 1094 q 702 1117 684 1094 q 726 1174 721 1140 l 738 1174 q 728 1138 735 1155 q 711 1108 722 1121 q 686 1088 701 1096 q 651 1081 671 1081 q 614 1093 631 1081 q 583 1121 598 1106 q 552 1149 567 1136 q 518 1161 537 1161 q 490 1155 502 1161 q 468 1138 478 1149 q 453 1113 459 1127 q 444 1082 447 1098 l 432 1082 q 442 1118 435 1101 q 460 1147 449 1135 q 486 1167 471 1160 q 519 1175 501 1175 q 557 1163 541 1175 q 589 1135 574 1150 q 619 1107 603 1119 q 653 1094 634 1094 z "},"Ò":{"ha":1018,"x_min":110,"x_max":950,"o":"m 950 565 q 913 326 950 433 q 812 145 876 220 q 659 31 747 71 q 468 -10 571 -10 q 320 20 386 -10 q 207 103 254 49 q 135 235 160 158 q 110 407 110 312 q 126 572 110 494 q 174 713 143 649 q 248 827 205 776 q 345 912 292 877 q 460 965 399 947 q 590 983 522 983 q 739 954 672 983 q 852 870 806 924 q 925 738 899 815 q 950 565 950 660 m 932 565 q 908 733 932 658 q 839 861 883 808 q 730 941 794 913 q 589 969 667 969 q 465 952 524 969 q 354 901 406 935 q 261 819 303 868 q 189 708 219 770 q 143 570 159 646 q 126 408 126 495 q 151 240 126 315 q 221 113 176 165 q 329 32 266 60 q 469 4 392 4 q 653 43 568 4 q 800 154 738 81 q 897 331 862 226 q 932 565 932 435 m 460 1222 q 476 1220 472 1222 q 486 1213 481 1218 l 622 1068 l 614 1068 q 603 1072 609 1068 l 436 1222 l 460 1222 z "},"Ó":{"ha":1018,"x_min":110,"x_max":950,"o":"m 950 565 q 913 326 950 433 q 812 145 876 220 q 659 31 747 71 q 468 -10 571 -10 q 320 20 386 -10 q 207 103 254 49 q 135 235 160 158 q 110 407 110 312 q 126 572 110 494 q 174 713 143 649 q 248 827 205 776 q 345 912 292 877 q 460 965 399 947 q 590 983 522 983 q 739 954 672 983 q 852 870 806 924 q 925 738 899 815 q 950 565 950 660 m 932 565 q 908 733 932 658 q 839 861 883 808 q 730 941 794 913 q 589 969 667 969 q 465 952 524 969 q 354 901 406 935 q 261 819 303 868 q 189 708 219 770 q 143 570 159 646 q 126 408 126 495 q 151 240 126 315 q 221 113 176 165 q 329 32 266 60 q 469 4 392 4 q 653 43 568 4 q 800 154 738 81 q 897 331 862 226 q 932 565 932 435 m 774 1222 l 569 1072 q 557 1068 563 1068 l 549 1068 l 721 1213 q 733 1220 727 1218 q 749 1222 738 1222 l 774 1222 z "},"Ô":{"ha":1018,"x_min":110,"x_max":950,"o":"m 950 565 q 913 326 950 433 q 812 145 876 220 q 659 31 747 71 q 468 -10 571 -10 q 320 20 386 -10 q 207 103 254 49 q 135 235 160 158 q 110 407 110 312 q 126 572 110 494 q 174 713 143 649 q 248 827 205 776 q 345 912 292 877 q 460 965 399 947 q 590 983 522 983 q 739 954 672 983 q 852 870 806 924 q 925 738 899 815 q 950 565 950 660 m 932 565 q 908 733 932 658 q 839 861 883 808 q 730 941 794 913 q 589 969 667 969 q 465 952 524 969 q 354 901 406 935 q 261 819 303 868 q 189 708 219 770 q 143 570 159 646 q 126 408 126 495 q 151 240 126 315 q 221 113 176 165 q 329 32 266 60 q 469 4 392 4 q 653 43 568 4 q 800 154 738 81 q 897 331 862 226 q 932 565 932 435 m 743 1068 l 729 1068 q 724 1069 727 1068 q 718 1074 720 1070 l 607 1185 q 604 1188 605 1185 q 603 1186 603 1186 q 601 1185 602 1185 l 463 1074 q 456 1069 459 1070 q 449 1068 452 1068 l 435 1068 l 600 1200 l 611 1200 l 743 1068 z "},"Õ":{"ha":1018,"x_min":110,"x_max":950,"o":"m 950 565 q 913 326 950 433 q 812 145 876 220 q 659 31 747 71 q 468 -10 571 -10 q 320 20 386 -10 q 207 103 254 49 q 135 235 160 158 q 110 407 110 312 q 126 572 110 494 q 174 713 143 649 q 248 827 205 776 q 345 912 292 877 q 460 965 399 947 q 590 983 522 983 q 739 954 672 983 q 852 870 806 924 q 925 738 899 815 q 950 565 950 660 m 932 565 q 908 733 932 658 q 839 861 883 808 q 730 941 794 913 q 589 969 667 969 q 465 952 524 969 q 354 901 406 935 q 261 819 303 868 q 189 708 219 770 q 143 570 159 646 q 126 408 126 495 q 151 240 126 315 q 221 113 176 165 q 329 32 266 60 q 469 4 392 4 q 653 43 568 4 q 800 154 738 81 q 897 331 862 226 q 932 565 932 435 m 675 1094 q 725 1117 706 1094 q 749 1174 743 1140 l 760 1174 q 750 1138 757 1155 q 733 1108 744 1121 q 708 1088 723 1096 q 674 1081 693 1081 q 636 1093 653 1081 q 605 1121 620 1106 q 574 1149 590 1136 q 540 1161 559 1161 q 512 1155 524 1161 q 491 1138 500 1149 q 475 1113 481 1127 q 467 1082 469 1098 l 454 1082 q 464 1118 457 1101 q 482 1147 471 1135 q 508 1167 493 1160 q 542 1175 523 1175 q 580 1163 563 1175 q 611 1135 596 1150 q 641 1107 626 1119 q 675 1094 656 1094 z "},"Ö":{"ha":1018,"x_min":110,"x_max":950,"o":"m 950 565 q 913 326 950 433 q 812 145 876 220 q 659 31 747 71 q 468 -10 571 -10 q 320 20 386 -10 q 207 103 254 49 q 135 235 160 158 q 110 407 110 312 q 126 572 110 494 q 174 713 143 649 q 248 827 205 776 q 345 912 292 877 q 460 965 399 947 q 590 983 522 983 q 739 954 672 983 q 852 870 806 924 q 925 738 899 815 q 950 565 950 660 m 932 565 q 908 733 932 658 q 839 861 883 808 q 730 941 794 913 q 589 969 667 969 q 465 952 524 969 q 354 901 406 935 q 261 819 303 868 q 189 708 219 770 q 143 570 159 646 q 126 408 126 495 q 151 240 126 315 q 221 113 176 165 q 329 32 266 60 q 469 4 392 4 q 653 43 568 4 q 800 154 738 81 q 897 331 862 226 q 932 565 932 435 m 525 1156 q 513 1130 525 1141 q 486 1118 501 1118 q 459 1130 470 1118 q 447 1156 447 1141 q 459 1183 447 1172 q 486 1194 470 1194 q 513 1183 501 1194 q 525 1156 525 1172 m 753 1156 q 741 1130 753 1141 q 714 1118 728 1118 q 686 1130 698 1118 q 675 1156 675 1141 q 686 1183 675 1172 q 714 1194 698 1194 q 741 1183 728 1194 q 753 1156 753 1172 z "},"×":{"ha":806,"x_min":104,"x_max":731,"o":"m 731 733 l 428 465 l 664 196 l 654 186 l 417 455 l 113 185 l 104 194 l 408 465 l 171 735 l 183 746 l 419 476 l 721 744 l 731 733 z "},"Ø":{"ha":1017,"x_min":74,"x_max":975,"o":"m 950 565 q 913 326 950 433 q 812 145 876 220 q 659 31 747 71 q 468 -10 571 -10 q 330 15 392 -10 q 221 88 267 40 l 99 -62 q 91 -69 95 -67 q 82 -71 86 -71 l 74 -71 l 211 99 q 136 231 163 153 q 110 407 110 309 q 126 572 110 494 q 174 713 143 649 q 248 827 205 776 q 345 912 292 877 q 460 965 399 947 q 590 983 522 983 q 733 956 669 983 q 844 878 797 929 l 950 1008 q 965 1017 956 1017 l 975 1017 l 854 867 q 925 737 900 813 q 950 565 950 660 m 126 408 q 151 239 126 314 q 222 112 176 165 l 834 865 q 727 942 789 915 q 589 969 665 969 q 465 952 524 969 q 354 901 406 935 q 261 819 303 868 q 189 708 219 770 q 143 570 159 646 q 126 408 126 495 m 932 565 q 909 729 932 656 q 843 854 886 802 l 231 101 q 336 29 276 53 q 469 4 396 4 q 653 43 568 4 q 800 154 738 81 q 897 331 862 226 q 932 565 932 435 z "},"Ù":{"ha":940,"x_min":145,"x_max":872,"o":"m 429 3 q 561 31 501 3 q 668 108 622 59 q 742 222 713 156 q 781 361 772 287 l 856 972 l 872 972 l 797 361 q 757 216 788 284 q 677 98 726 149 q 565 17 629 47 q 426 -12 501 -12 q 307 12 359 -12 q 218 78 254 36 q 164 178 183 120 q 145 302 145 235 q 146 331 145 317 q 149 361 147 346 l 224 972 l 240 972 l 165 363 q 163 333 164 347 q 162 303 162 318 q 179 184 162 240 q 230 89 197 129 q 314 26 264 49 q 429 3 364 3 m 424 1222 q 440 1220 435 1222 q 450 1213 444 1218 l 586 1068 l 578 1068 q 567 1072 573 1068 l 400 1222 l 424 1222 z "},"Ú":{"ha":940,"x_min":145,"x_max":872,"o":"m 429 3 q 561 31 501 3 q 668 108 622 59 q 742 222 713 156 q 781 361 772 287 l 856 972 l 872 972 l 797 361 q 757 216 788 284 q 677 98 726 149 q 565 17 629 47 q 426 -12 501 -12 q 307 12 359 -12 q 218 78 254 36 q 164 178 183 120 q 145 302 145 235 q 146 331 145 317 q 149 361 147 346 l 224 972 l 240 972 l 165 363 q 163 333 164 347 q 162 303 162 318 q 179 184 162 240 q 230 89 197 129 q 314 26 264 49 q 429 3 364 3 m 738 1222 l 533 1072 q 521 1068 527 1068 l 513 1068 l 685 1213 q 697 1220 691 1218 q 713 1222 702 1222 l 738 1222 z "},"Û":{"ha":940,"x_min":145,"x_max":872,"o":"m 429 3 q 561 31 501 3 q 668 108 622 59 q 742 222 713 156 q 781 361 772 287 l 856 972 l 872 972 l 797 361 q 757 216 788 284 q 677 98 726 149 q 565 17 629 47 q 426 -12 501 -12 q 307 12 359 -12 q 218 78 254 36 q 164 178 183 120 q 145 302 145 235 q 146 331 145 317 q 149 361 147 346 l 224 972 l 240 972 l 165 363 q 163 333 164 347 q 162 303 162 318 q 179 184 162 240 q 230 89 197 129 q 314 26 264 49 q 429 3 364 3 m 707 1068 l 693 1068 q 688 1069 691 1068 q 682 1074 684 1070 l 571 1185 q 568 1188 569 1185 q 567 1186 567 1186 q 565 1185 566 1185 l 426 1074 q 419 1069 423 1070 q 413 1068 416 1068 l 399 1068 l 564 1200 l 575 1200 l 707 1068 z "},"Ü":{"ha":940,"x_min":145,"x_max":872,"o":"m 429 3 q 561 31 501 3 q 668 108 622 59 q 742 222 713 156 q 781 361 772 287 l 856 972 l 872 972 l 797 361 q 757 216 788 284 q 677 98 726 149 q 565 17 629 47 q 426 -12 501 -12 q 307 12 359 -12 q 218 78 254 36 q 164 178 183 120 q 145 302 145 235 q 146 331 145 317 q 149 361 147 346 l 224 972 l 240 972 l 165 363 q 163 333 164 347 q 162 303 162 318 q 179 184 162 240 q 230 89 197 129 q 314 26 264 49 q 429 3 364 3 m 489 1156 q 477 1130 489 1141 q 450 1118 465 1118 q 423 1130 434 1118 q 411 1156 411 1141 q 423 1183 411 1172 q 450 1194 434 1194 q 477 1183 465 1194 q 489 1156 489 1172 m 717 1156 q 705 1130 717 1141 q 678 1118 692 1118 q 650 1130 662 1118 q 639 1156 639 1141 q 650 1183 639 1172 q 678 1194 662 1194 q 705 1183 692 1194 q 717 1156 717 1172 z "},"Ý":{"ha":735,"x_min":103,"x_max":786,"o":"m 385 413 l 333 0 l 317 0 l 368 413 l 103 972 l 117 972 q 125 967 122 972 l 369 446 q 374 437 372 442 q 378 427 376 433 q 384 437 381 433 q 390 446 388 442 l 763 967 q 772 972 766 972 l 786 972 l 385 413 m 638 1222 l 433 1072 q 421 1068 427 1068 l 413 1068 l 585 1213 q 597 1220 591 1218 q 613 1222 602 1222 l 638 1222 z "},"Þ":{"ha":740,"x_min":178,"x_max":747,"o":"m 288 763 l 475 763 q 677 703 607 763 q 747 529 747 644 q 721 398 747 457 q 649 296 695 339 q 541 230 603 253 q 407 207 479 207 l 219 207 l 194 0 l 178 0 l 297 972 l 314 972 l 288 763 m 286 749 l 222 221 l 408 221 q 538 244 479 221 q 640 308 597 267 q 707 405 683 349 q 731 526 731 460 q 666 691 731 634 q 472 749 602 749 l 286 749 z "},"ß":{"ha":667,"x_min":45,"x_max":640,"o":"m 460 982 q 535 969 501 982 q 592 933 568 956 q 628 882 615 911 q 640 822 640 853 q 621 736 640 772 q 573 672 601 700 q 510 622 544 644 q 447 577 476 599 q 399 529 418 554 q 379 471 379 504 q 396 420 379 438 q 439 388 413 401 q 494 364 464 375 q 549 335 524 353 q 591 289 574 317 q 608 215 608 261 q 592 128 608 169 q 545 56 576 87 q 473 7 515 25 q 378 -11 431 -11 q 318 -5 344 -11 q 270 11 292 1 q 232 37 249 22 q 197 71 214 52 l 201 75 q 205 78 203 77 q 210 79 206 79 q 225 67 215 79 q 254 41 235 56 q 303 15 273 26 q 379 3 333 3 q 469 19 429 3 q 536 65 508 36 q 578 131 564 93 q 593 213 593 169 q 576 283 593 257 q 534 326 559 310 q 478 355 508 343 q 423 380 449 366 q 381 414 398 393 q 364 469 364 434 q 383 532 364 505 q 432 581 403 558 q 495 626 461 604 q 558 675 529 648 q 607 736 588 701 q 626 818 626 770 q 618 865 626 839 q 590 914 610 891 q 538 952 570 937 q 457 968 506 968 q 363 945 410 968 q 278 881 317 923 q 211 781 239 840 q 175 651 184 723 l 94 7 l 68 -167 q 64 -174 67 -172 q 60 -175 62 -175 l 57 -175 l 156 638 l 53 640 q 45 645 45 640 l 45 649 q 46 651 45 650 l 158 651 q 195 780 167 720 q 263 885 222 840 q 354 956 303 930 q 460 982 405 982 z "},"à":{"ha":663,"x_min":49,"x_max":581,"o":"m 501 0 l 497 0 q 491 2 492 0 q 489 8 489 5 l 522 299 q 462 175 496 231 q 389 77 428 118 q 306 14 349 37 q 215 -8 262 -8 q 139 9 170 -8 q 87 58 107 26 q 58 132 67 89 q 49 226 49 175 q 64 342 49 285 q 106 450 79 399 q 171 545 133 501 q 253 621 208 589 q 348 671 298 653 q 451 689 399 689 q 520 682 489 689 q 581 656 551 674 l 501 0 m 215 6 q 303 28 260 6 q 386 94 347 51 q 461 198 426 138 q 526 335 497 259 l 565 649 q 511 669 539 663 q 451 675 483 675 q 353 658 401 675 q 263 610 306 640 q 183 537 219 579 q 121 444 147 494 q 80 339 94 394 q 65 226 65 283 q 74 135 65 176 q 101 66 83 94 q 147 21 119 37 q 215 6 176 6 m 360 983 q 375 981 370 983 q 385 968 381 978 l 469 804 l 460 804 q 450 810 453 804 l 342 983 l 360 983 z "},"á":{"ha":663,"x_min":49,"x_max":581,"o":"m 501 0 l 497 0 q 491 2 492 0 q 489 8 489 5 l 522 299 q 462 175 496 231 q 389 77 428 118 q 306 14 349 37 q 215 -8 262 -8 q 139 9 170 -8 q 87 58 107 26 q 58 132 67 89 q 49 226 49 175 q 64 342 49 285 q 106 450 79 399 q 171 545 133 501 q 253 621 208 589 q 348 671 298 653 q 451 689 399 689 q 520 682 489 689 q 581 656 551 674 l 501 0 m 215 6 q 303 28 260 6 q 386 94 347 51 q 461 198 426 138 q 526 335 497 259 l 565 649 q 511 669 539 663 q 451 675 483 675 q 353 658 401 675 q 263 610 306 640 q 183 537 219 579 q 121 444 147 494 q 80 339 94 394 q 65 226 65 283 q 74 135 65 176 q 101 66 83 94 q 147 21 119 37 q 215 6 176 6 m 576 983 l 425 810 q 414 804 422 804 l 404 804 l 529 968 q 542 981 537 978 q 558 983 548 983 l 576 983 z "},"â":{"ha":663,"x_min":49,"x_max":581,"o":"m 501 0 l 497 0 q 491 2 492 0 q 489 8 489 5 l 522 299 q 462 175 496 231 q 389 77 428 118 q 306 14 349 37 q 215 -8 262 -8 q 139 9 170 -8 q 87 58 107 26 q 58 132 67 89 q 49 226 49 175 q 64 342 49 285 q 106 450 79 399 q 171 545 133 501 q 253 621 208 589 q 348 671 298 653 q 451 689 399 689 q 520 682 489 689 q 581 656 551 674 l 501 0 m 215 6 q 303 28 260 6 q 386 94 347 51 q 461 198 426 138 q 526 335 497 259 l 565 649 q 511 669 539 663 q 451 675 483 675 q 353 658 401 675 q 263 610 306 640 q 183 537 219 579 q 121 444 147 494 q 80 339 94 394 q 65 226 65 283 q 74 135 65 176 q 101 66 83 94 q 147 21 119 37 q 215 6 176 6 m 447 972 l 458 972 l 574 813 l 563 813 q 558 814 560 813 q 553 818 555 815 l 454 954 q 453 956 453 955 q 452 958 453 957 q 451 959 451 958 q 447 954 451 958 l 315 818 q 310 814 313 816 q 304 813 308 813 l 292 813 l 447 972 z "},"ã":{"ha":663,"x_min":49,"x_max":599,"o":"m 501 0 l 497 0 q 491 2 492 0 q 489 8 489 5 l 522 299 q 462 175 496 231 q 389 77 428 118 q 306 14 349 37 q 215 -8 262 -8 q 139 9 170 -8 q 87 58 107 26 q 58 132 67 89 q 49 226 49 175 q 64 342 49 285 q 106 450 79 399 q 171 545 133 501 q 253 621 208 589 q 348 671 298 653 q 451 689 399 689 q 520 682 489 689 q 581 656 551 674 l 501 0 m 215 6 q 303 28 260 6 q 386 94 347 51 q 461 198 426 138 q 526 335 497 259 l 565 649 q 511 669 539 663 q 451 675 483 675 q 353 658 401 675 q 263 610 306 640 q 183 537 219 579 q 121 444 147 494 q 80 339 94 394 q 65 226 65 283 q 74 135 65 176 q 101 66 83 94 q 147 21 119 37 q 215 6 176 6 m 514 863 q 564 885 547 863 q 588 942 582 908 l 599 942 q 590 906 597 923 q 573 876 583 889 q 547 856 562 864 q 513 849 532 849 q 476 861 492 849 q 444 889 460 874 q 414 917 429 904 q 379 929 398 929 q 351 923 364 929 q 330 906 339 917 q 314 881 320 895 q 306 850 308 866 l 294 850 q 303 886 297 869 q 322 915 310 903 q 348 935 333 928 q 382 943 363 943 q 419 931 403 943 q 450 903 435 918 q 481 875 465 888 q 514 863 496 863 z "},"ä":{"ha":663,"x_min":49,"x_max":599,"o":"m 501 0 l 497 0 q 491 2 492 0 q 489 8 489 5 l 522 299 q 462 175 496 231 q 389 77 428 118 q 306 14 349 37 q 215 -8 262 -8 q 139 9 170 -8 q 87 58 107 26 q 58 132 67 89 q 49 226 49 175 q 64 342 49 285 q 106 450 79 399 q 171 545 133 501 q 253 621 208 589 q 348 671 298 653 q 451 689 399 689 q 520 682 489 689 q 581 656 551 674 l 501 0 m 215 6 q 303 28 260 6 q 386 94 347 51 q 461 198 426 138 q 526 335 497 259 l 565 649 q 511 669 539 663 q 451 675 483 675 q 353 658 401 675 q 263 610 306 640 q 183 537 219 579 q 121 444 147 494 q 80 339 94 394 q 65 226 65 283 q 74 135 65 176 q 101 66 83 94 q 147 21 119 37 q 215 6 176 6 m 371 904 q 359 878 371 890 q 332 867 347 867 q 305 878 316 867 q 293 904 293 890 q 305 932 293 920 q 332 943 316 943 q 359 932 347 943 q 371 904 371 920 m 599 904 q 586 878 599 890 q 560 867 574 867 q 532 878 544 867 q 521 904 521 890 q 532 932 521 920 q 560 943 544 943 q 586 932 574 943 q 599 904 599 920 z "},"å":{"ha":663,"x_min":49,"x_max":581,"o":"m 501 0 l 497 0 q 491 2 492 0 q 489 8 489 5 l 522 299 q 462 175 496 231 q 389 77 428 118 q 306 14 349 37 q 215 -8 262 -8 q 139 9 170 -8 q 87 58 107 26 q 58 132 67 89 q 49 226 49 175 q 64 342 49 285 q 106 450 79 399 q 171 545 133 501 q 253 621 208 589 q 348 671 298 653 q 451 689 399 689 q 520 682 489 689 q 581 656 551 674 l 501 0 m 215 6 q 303 28 260 6 q 386 94 347 51 q 461 198 426 138 q 526 335 497 259 l 565 649 q 511 669 539 663 q 451 675 483 675 q 353 658 401 675 q 263 610 306 640 q 183 537 219 579 q 121 444 147 494 q 80 339 94 394 q 65 226 65 283 q 74 135 65 176 q 101 66 83 94 q 147 21 119 37 q 215 6 176 6 m 356 896 q 364 935 356 917 q 385 967 372 953 q 418 988 399 981 q 458 996 437 996 q 499 988 480 996 q 531 967 517 981 q 553 935 545 953 q 561 896 561 917 q 553 856 561 874 q 531 825 545 838 q 499 803 517 811 q 458 796 480 796 q 418 803 437 796 q 385 825 399 811 q 364 856 372 838 q 356 896 356 874 m 371 896 q 377 861 371 877 q 396 833 384 845 q 424 815 408 822 q 458 808 440 808 q 493 815 477 808 q 521 833 509 822 q 539 861 533 845 q 546 896 546 877 q 539 931 546 915 q 521 958 533 947 q 493 977 509 970 q 458 983 477 983 q 424 977 440 983 q 396 958 408 970 q 377 931 384 947 q 371 896 371 915 z "},"æ":{"ha":983,"x_min":47,"x_max":947,"o":"m 772 692 q 836 682 807 692 q 888 654 866 672 q 921 611 909 636 q 933 554 933 585 q 909 478 933 513 q 833 418 885 443 q 698 378 781 392 q 496 364 615 364 l 494 349 q 492 316 492 333 q 491 282 491 299 q 505 165 491 217 q 544 78 519 114 q 607 24 570 43 q 690 6 644 6 q 761 15 729 6 q 820 38 794 24 q 866 68 846 52 q 900 98 885 84 q 924 121 915 112 q 938 131 933 131 q 945 128 942 131 l 947 126 q 884 66 915 92 q 822 24 853 41 q 758 0 791 8 q 688 -8 724 -8 q 605 9 642 -8 q 541 58 568 26 q 499 136 515 90 q 480 239 484 181 q 455 154 472 191 q 416 90 438 117 q 366 43 393 62 q 312 11 340 24 q 257 -6 284 -1 q 208 -11 231 -11 q 145 -3 174 -11 q 93 24 115 6 q 59 72 72 42 q 47 143 47 101 q 73 240 47 198 q 152 312 99 283 q 288 357 206 341 q 483 376 371 374 l 492 450 q 472 617 506 558 q 352 676 437 676 q 265 661 303 676 q 202 626 228 645 q 160 592 176 608 q 140 576 144 576 q 133 581 137 576 l 131 583 q 236 664 183 636 q 353 692 289 692 q 427 677 397 692 q 477 635 458 663 q 504 568 497 608 q 509 479 512 529 q 551 568 526 528 q 610 635 577 607 q 684 677 644 663 q 772 692 725 692 m 481 363 q 166 302 269 356 q 63 146 63 249 q 74 81 63 108 q 104 37 85 54 q 150 11 124 19 q 209 3 177 3 q 300 20 256 3 q 379 72 344 38 q 438 152 414 105 q 469 257 461 199 l 481 363 m 772 676 q 670 655 716 676 q 589 595 624 634 q 530 500 553 556 q 497 376 507 444 q 694 393 614 379 q 824 431 775 408 q 895 486 874 455 q 917 554 917 517 q 907 606 917 583 q 877 644 896 628 q 831 668 858 660 q 772 676 803 676 z "},"ç":{"ha":594,"x_min":57,"x_max":565,"o":"m 185 -206 q 193 -210 188 -206 q 207 -221 198 -215 q 231 -231 217 -226 q 268 -236 246 -236 q 334 -215 310 -236 q 358 -158 358 -194 q 350 -127 358 -140 q 325 -107 341 -115 q 289 -95 310 -99 q 244 -87 268 -91 l 278 -8 q 178 12 220 -8 q 109 68 136 33 q 70 152 83 104 q 57 257 57 201 q 68 364 57 310 q 100 466 79 417 q 149 555 120 514 q 215 627 178 597 q 294 674 251 657 q 386 692 338 692 q 446 685 419 692 q 494 666 473 678 q 533 638 516 654 q 565 601 551 621 l 563 599 q 556 596 560 596 q 541 609 551 596 q 512 637 531 622 q 462 665 492 652 q 385 678 431 678 q 260 642 317 678 q 162 547 203 606 q 97 412 120 488 q 74 257 74 336 q 85 158 74 204 q 122 78 97 113 q 185 25 147 44 q 279 6 224 6 q 355 15 321 6 q 414 38 388 24 q 460 68 440 52 q 493 98 479 84 q 517 121 508 112 q 532 131 526 131 q 539 128 536 131 l 540 126 q 472 60 503 85 q 410 19 440 34 q 350 -2 380 4 q 290 -8 321 -8 l 262 -76 q 307 -86 287 -81 q 343 -102 328 -92 q 366 -124 358 -111 q 374 -156 374 -137 q 365 -195 374 -178 q 341 -224 356 -212 q 306 -242 326 -236 q 263 -249 286 -249 q 212 -239 236 -249 q 175 -212 188 -228 l 178 -210 q 185 -206 182 -206 z "},"è":{"ha":604,"x_min":56,"x_max":556,"o":"m 556 565 q 548 514 556 538 q 522 467 541 489 q 469 425 503 444 q 382 389 435 406 q 253 357 328 372 q 77 332 178 343 q 71 251 71 291 q 84 149 71 194 q 123 72 97 103 q 189 23 149 40 q 281 6 228 6 q 352 15 320 6 q 410 38 385 24 q 456 68 436 52 q 490 98 476 84 q 514 121 504 112 q 529 131 524 131 q 533 130 531 131 q 538 126 534 130 q 474 66 505 91 q 412 24 443 40 q 348 -1 381 7 q 279 -8 315 -8 q 182 10 224 -8 q 111 61 140 28 q 69 143 83 94 q 56 251 56 191 q 65 354 56 301 q 94 455 75 406 q 142 547 114 503 q 208 622 171 590 q 291 672 245 653 q 390 690 336 690 q 471 677 439 690 q 522 644 503 664 q 548 603 540 625 q 556 565 556 582 m 390 676 q 272 648 324 676 q 180 573 219 619 q 116 467 141 526 q 79 346 90 408 q 256 371 182 357 q 382 402 331 385 q 465 438 433 419 q 514 478 497 457 q 537 520 531 499 q 543 565 543 542 q 535 601 543 582 q 509 638 527 621 q 462 665 492 654 q 390 676 433 676 m 293 983 q 309 981 303 983 q 318 968 314 978 l 403 804 l 393 804 q 383 810 387 804 l 275 983 l 293 983 z "},"é":{"ha":604,"x_min":56,"x_max":556,"o":"m 556 565 q 548 514 556 538 q 522 467 541 489 q 469 425 503 444 q 382 389 435 406 q 253 357 328 372 q 77 332 178 343 q 71 251 71 291 q 84 149 71 194 q 123 72 97 103 q 189 23 149 40 q 281 6 228 6 q 352 15 320 6 q 410 38 385 24 q 456 68 436 52 q 490 98 476 84 q 514 121 504 112 q 529 131 524 131 q 533 130 531 131 q 538 126 534 130 q 474 66 505 91 q 412 24 443 40 q 348 -1 381 7 q 279 -8 315 -8 q 182 10 224 -8 q 111 61 140 28 q 69 143 83 94 q 56 251 56 191 q 65 354 56 301 q 94 455 75 406 q 142 547 114 503 q 208 622 171 590 q 291 672 245 653 q 390 690 336 690 q 471 677 439 690 q 522 644 503 664 q 548 603 540 625 q 556 565 556 582 m 390 676 q 272 648 324 676 q 180 573 219 619 q 116 467 141 526 q 79 346 90 408 q 256 371 182 357 q 382 402 331 385 q 465 438 433 419 q 514 478 497 457 q 537 520 531 499 q 543 565 543 542 q 535 601 543 582 q 509 638 527 621 q 462 665 492 654 q 390 676 433 676 m 524 983 l 372 810 q 361 804 369 804 l 351 804 l 476 968 q 490 981 484 978 q 506 983 495 983 l 524 983 z "},"ê":{"ha":604,"x_min":56,"x_max":556,"o":"m 556 565 q 548 514 556 538 q 522 467 541 489 q 469 425 503 444 q 382 389 435 406 q 253 357 328 372 q 77 332 178 343 q 71 251 71 291 q 84 149 71 194 q 123 72 97 103 q 189 23 149 40 q 281 6 228 6 q 352 15 320 6 q 410 38 385 24 q 456 68 436 52 q 490 98 476 84 q 514 121 504 112 q 529 131 524 131 q 533 130 531 131 q 538 126 534 130 q 474 66 505 91 q 412 24 443 40 q 348 -1 381 7 q 279 -8 315 -8 q 182 10 224 -8 q 111 61 140 28 q 69 143 83 94 q 56 251 56 191 q 65 354 56 301 q 94 455 75 406 q 142 547 114 503 q 208 622 171 590 q 291 672 245 653 q 390 690 336 690 q 471 677 439 690 q 522 644 503 664 q 548 603 540 625 q 556 565 556 582 m 390 676 q 272 648 324 676 q 180 573 219 619 q 116 467 141 526 q 79 346 90 408 q 256 371 182 357 q 382 402 331 385 q 465 438 433 419 q 514 478 497 457 q 537 520 531 499 q 543 565 543 542 q 535 601 543 582 q 509 638 527 621 q 462 665 492 654 q 390 676 433 676 m 408 972 l 419 972 l 535 813 l 524 813 q 519 814 522 813 q 514 818 516 815 l 415 954 q 414 956 415 955 q 413 958 414 957 q 413 959 413 958 q 408 954 412 958 l 276 818 q 272 814 274 816 q 265 813 269 813 l 253 813 l 408 972 z "},"ë":{"ha":604,"x_min":56,"x_max":560,"o":"m 556 565 q 548 514 556 538 q 522 467 541 489 q 469 425 503 444 q 382 389 435 406 q 253 357 328 372 q 77 332 178 343 q 71 251 71 291 q 84 149 71 194 q 123 72 97 103 q 189 23 149 40 q 281 6 228 6 q 352 15 320 6 q 410 38 385 24 q 456 68 436 52 q 490 98 476 84 q 514 121 504 112 q 529 131 524 131 q 533 130 531 131 q 538 126 534 130 q 474 66 505 91 q 412 24 443 40 q 348 -1 381 7 q 279 -8 315 -8 q 182 10 224 -8 q 111 61 140 28 q 69 143 83 94 q 56 251 56 191 q 65 354 56 301 q 94 455 75 406 q 142 547 114 503 q 208 622 171 590 q 291 672 245 653 q 390 690 336 690 q 471 677 439 690 q 522 644 503 664 q 548 603 540 625 q 556 565 556 582 m 390 676 q 272 648 324 676 q 180 573 219 619 q 116 467 141 526 q 79 346 90 408 q 256 371 182 357 q 382 402 331 385 q 465 438 433 419 q 514 478 497 457 q 537 520 531 499 q 543 565 543 542 q 535 601 543 582 q 509 638 527 621 q 462 665 492 654 q 390 676 433 676 m 332 904 q 320 878 332 890 q 293 867 308 867 q 266 878 277 867 q 254 904 254 890 q 266 932 254 920 q 293 943 277 943 q 320 932 308 943 q 332 904 332 920 m 560 904 q 548 878 560 890 q 521 867 535 867 q 493 878 505 867 q 482 904 482 890 q 493 932 482 920 q 521 943 505 943 q 548 932 535 943 q 560 904 560 920 z "},"ì":{"ha":296,"x_min":88,"x_max":216,"o":"m 197 681 l 114 0 l 99 0 l 182 681 l 197 681 m 106 983 q 122 981 117 983 q 131 968 127 978 l 216 804 l 206 804 q 197 810 200 804 l 88 983 l 106 983 z "},"í":{"ha":296,"x_min":99,"x_max":337,"o":"m 197 681 l 114 0 l 99 0 l 182 681 l 197 681 m 337 983 l 185 810 q 174 804 182 804 l 165 804 l 290 968 q 303 981 297 978 q 319 983 308 983 l 337 983 z "},"î":{"ha":296,"x_min":66,"x_max":348,"o":"m 197 681 l 114 0 l 99 0 l 182 681 l 197 681 m 222 972 l 233 972 l 348 813 l 337 813 q 332 814 335 813 q 327 818 329 815 l 228 954 q 227 956 228 955 q 226 958 227 957 q 226 959 226 958 q 222 954 225 958 l 90 818 q 85 814 88 816 q 78 813 82 813 l 66 813 l 222 972 z "},"ï":{"ha":296,"x_min":67,"x_max":373,"o":"m 197 681 l 114 0 l 99 0 l 182 681 l 197 681 m 145 904 q 133 878 145 890 q 106 867 121 867 q 79 878 90 867 q 67 904 67 890 q 79 932 67 920 q 106 943 90 943 q 133 932 121 943 q 145 904 145 920 m 373 904 q 361 878 373 890 q 334 867 349 867 q 307 878 318 867 q 295 904 295 890 q 307 932 295 920 q 334 943 318 943 q 361 932 349 943 q 373 904 373 920 z "},"ð":{"ha":669,"x_min":58,"x_max":622,"o":"m 360 747 q 358 751 359 748 q 360 756 358 753 l 460 857 q 373 910 420 890 q 273 939 325 930 q 265 948 263 940 l 267 953 q 372 922 320 943 q 469 866 424 901 l 571 971 l 574 967 q 575 963 575 966 q 573 956 576 959 l 478 859 q 536 798 510 833 q 582 718 563 763 q 611 620 601 674 q 622 500 622 565 q 602 301 622 394 q 540 140 581 209 q 435 32 498 72 q 288 -7 372 -7 q 197 12 238 -7 q 124 67 155 31 q 76 152 93 102 q 58 264 58 202 q 80 407 58 340 q 142 526 101 475 q 241 607 183 577 q 372 636 299 636 q 443 625 406 636 q 512 590 480 614 q 569 526 544 565 q 604 432 594 488 q 603 570 610 507 q 578 685 596 633 q 532 778 560 737 q 469 849 505 819 l 364 743 l 360 747 m 289 7 q 498 107 421 7 q 599 393 576 206 q 579 473 594 433 q 535 547 563 514 q 467 601 508 581 q 371 622 426 622 q 244 594 299 622 q 151 517 189 565 q 94 403 114 468 q 75 265 75 338 q 92 158 75 206 q 137 76 108 110 q 205 25 166 43 q 289 7 244 7 z "},"ñ":{"ha":693,"x_min":79,"x_max":603,"o":"m 79 0 l 161 683 l 164 683 q 171 680 169 683 q 172 674 172 677 l 142 408 q 206 524 170 472 q 284 614 242 576 q 369 670 325 651 q 458 690 414 690 q 568 643 533 690 q 603 506 603 595 q 602 473 603 490 q 599 436 601 455 l 547 0 l 532 0 l 583 436 q 587 472 585 454 q 588 505 588 489 q 557 632 588 587 q 457 676 526 676 q 370 655 414 676 q 284 595 326 634 q 206 500 243 556 q 139 374 169 444 l 94 0 l 79 0 m 497 864 q 548 887 530 864 q 571 943 565 910 l 582 943 q 573 907 580 924 q 556 878 567 890 q 530 858 545 865 q 496 850 515 850 q 459 863 476 850 q 428 890 443 875 q 397 918 413 906 q 363 931 381 931 q 335 924 347 931 q 313 907 322 918 q 298 882 303 897 q 289 851 292 867 l 278 851 q 287 887 280 870 q 305 917 294 904 q 331 937 316 929 q 365 944 347 944 q 402 932 386 944 q 434 904 419 919 q 464 876 449 889 q 497 864 479 864 z "},"ò":{"ha":675,"x_min":58,"x_max":617,"o":"m 293 6 q 418 41 362 6 q 515 133 475 76 q 578 265 556 191 q 600 415 600 338 q 585 525 600 476 q 541 608 569 574 q 472 660 513 642 q 382 678 432 678 q 295 662 336 678 q 221 618 255 646 q 160 551 187 590 q 114 467 133 513 q 85 371 95 422 q 75 268 75 320 q 90 158 75 207 q 134 76 106 110 q 202 24 162 42 q 293 6 242 6 m 292 -8 q 194 11 238 -8 q 120 66 151 31 q 74 153 90 102 q 58 268 58 204 q 69 374 58 322 q 99 473 79 426 q 147 560 119 520 q 211 629 175 600 q 291 675 247 658 q 383 692 334 692 q 481 672 438 692 q 554 617 524 653 q 600 530 584 581 q 617 415 617 478 q 606 310 617 363 q 576 211 596 258 q 528 124 556 164 q 464 54 500 83 q 384 8 428 25 q 292 -8 341 -8 m 293 985 q 309 982 303 985 q 318 969 314 979 l 403 806 l 393 806 q 383 811 387 806 l 275 985 l 293 985 z "},"ó":{"ha":675,"x_min":58,"x_max":617,"o":"m 293 6 q 418 41 362 6 q 515 133 475 76 q 578 265 556 191 q 600 415 600 338 q 585 525 600 476 q 541 608 569 574 q 472 660 513 642 q 382 678 432 678 q 295 662 336 678 q 221 618 255 646 q 160 551 187 590 q 114 467 133 513 q 85 371 95 422 q 75 268 75 320 q 90 158 75 207 q 134 76 106 110 q 202 24 162 42 q 293 6 242 6 m 292 -8 q 194 11 238 -8 q 120 66 151 31 q 74 153 90 102 q 58 268 58 204 q 69 374 58 322 q 99 473 79 426 q 147 560 119 520 q 211 629 175 600 q 291 675 247 658 q 383 692 334 692 q 481 672 438 692 q 554 617 524 653 q 600 530 584 581 q 617 415 617 478 q 606 310 617 363 q 576 211 596 258 q 528 124 556 164 q 464 54 500 83 q 384 8 428 25 q 292 -8 341 -8 m 524 985 l 372 811 q 361 806 369 806 l 351 806 l 476 969 q 490 982 484 979 q 506 985 495 985 l 524 985 z "},"ô":{"ha":675,"x_min":58,"x_max":617,"o":"m 293 6 q 418 41 362 6 q 515 133 475 76 q 578 265 556 191 q 600 415 600 338 q 585 525 600 476 q 541 608 569 574 q 472 660 513 642 q 382 678 432 678 q 295 662 336 678 q 221 618 255 646 q 160 551 187 590 q 114 467 133 513 q 85 371 95 422 q 75 268 75 320 q 90 158 75 207 q 134 76 106 110 q 202 24 162 42 q 293 6 242 6 m 292 -8 q 194 11 238 -8 q 120 66 151 31 q 74 153 90 102 q 58 268 58 204 q 69 374 58 322 q 99 473 79 426 q 147 560 119 520 q 211 629 175 600 q 291 675 247 658 q 383 692 334 692 q 481 672 438 692 q 554 617 524 653 q 600 530 584 581 q 617 415 617 478 q 606 310 617 363 q 576 211 596 258 q 528 124 556 164 q 464 54 500 83 q 384 8 428 25 q 292 -8 341 -8 m 408 974 l 419 974 l 535 814 l 524 814 q 519 815 522 814 q 514 819 516 816 l 415 956 q 414 957 415 956 q 413 959 414 958 q 413 960 413 960 q 408 956 412 959 l 276 819 q 272 816 274 817 q 265 814 269 814 l 253 814 l 408 974 z "},"õ":{"ha":675,"x_min":58,"x_max":617,"o":"m 293 6 q 418 41 362 6 q 515 133 475 76 q 578 265 556 191 q 600 415 600 338 q 585 525 600 476 q 541 608 569 574 q 472 660 513 642 q 382 678 432 678 q 295 662 336 678 q 221 618 255 646 q 160 551 187 590 q 114 467 133 513 q 85 371 95 422 q 75 268 75 320 q 90 158 75 207 q 134 76 106 110 q 202 24 162 42 q 293 6 242 6 m 292 -8 q 194 11 238 -8 q 120 66 151 31 q 74 153 90 102 q 58 268 58 204 q 69 374 58 322 q 99 473 79 426 q 147 560 119 520 q 211 629 175 600 q 291 675 247 658 q 383 692 334 692 q 481 672 438 692 q 554 617 524 653 q 600 530 584 581 q 617 415 617 478 q 606 310 617 363 q 576 211 596 258 q 528 124 556 164 q 464 54 500 83 q 384 8 428 25 q 292 -8 341 -8 m 475 864 q 525 887 508 864 q 549 943 543 910 l 560 943 q 551 907 558 924 q 534 878 544 890 q 508 858 523 865 q 474 850 493 850 q 437 863 453 850 q 406 890 421 875 q 375 918 390 906 q 340 931 359 931 q 313 924 325 931 q 291 907 300 918 q 275 882 281 897 q 267 851 269 867 l 256 851 q 265 887 258 870 q 283 917 272 904 q 309 937 294 929 q 343 944 324 944 q 380 932 364 944 q 411 904 397 919 q 442 876 426 889 q 475 864 457 864 z "},"ö":{"ha":675,"x_min":58,"x_max":617,"o":"m 293 6 q 418 41 362 6 q 515 133 475 76 q 578 265 556 191 q 600 415 600 338 q 585 525 600 476 q 541 608 569 574 q 472 660 513 642 q 382 678 432 678 q 295 662 336 678 q 221 618 255 646 q 160 551 187 590 q 114 467 133 513 q 85 371 95 422 q 75 268 75 320 q 90 158 75 207 q 134 76 106 110 q 202 24 162 42 q 293 6 242 6 m 292 -8 q 194 11 238 -8 q 120 66 151 31 q 74 153 90 102 q 58 268 58 204 q 69 374 58 322 q 99 473 79 426 q 147 560 119 520 q 211 629 175 600 q 291 675 247 658 q 383 692 334 692 q 481 672 438 692 q 554 617 524 653 q 600 530 584 581 q 617 415 617 478 q 606 310 617 363 q 576 211 596 258 q 528 124 556 164 q 464 54 500 83 q 384 8 428 25 q 292 -8 341 -8 m 332 906 q 320 880 332 891 q 293 868 308 868 q 266 880 277 868 q 254 906 254 891 q 266 933 254 922 q 293 944 277 944 q 320 933 308 944 q 332 906 332 922 m 560 906 q 548 880 560 891 q 521 868 535 868 q 493 880 505 868 q 482 906 482 891 q 493 933 482 922 q 521 944 505 944 q 548 933 535 944 q 560 906 560 922 z "},"÷":{"ha":806,"x_min":97,"x_max":739,"o":"m 99 472 l 739 472 l 738 458 l 97 458 l 99 472 m 403 706 q 418 742 403 726 q 453 757 433 757 q 482 744 471 757 q 493 715 493 732 q 477 681 493 694 q 442 667 462 667 q 413 678 424 667 q 403 706 403 690 m 342 211 q 357 247 342 232 q 392 263 372 263 q 421 250 410 263 q 432 221 432 238 q 417 186 432 200 q 381 172 401 172 q 353 184 364 172 q 342 211 342 195 z "},"ø":{"ha":675,"x_min":38,"x_max":631,"o":"m 292 -8 q 203 7 242 -8 q 133 52 163 23 l 63 -43 q 47 -51 56 -51 l 38 -51 l 124 63 q 75 151 92 99 q 58 268 58 203 q 69 374 58 322 q 99 473 79 426 q 147 560 119 520 q 211 629 175 600 q 291 675 247 658 q 383 692 334 692 q 474 675 433 692 q 545 626 515 658 l 606 708 q 611 715 609 713 q 619 717 614 717 l 631 717 l 555 615 q 601 529 585 579 q 617 415 617 478 q 606 310 617 363 q 576 211 596 258 q 528 124 556 164 q 464 54 500 83 q 384 8 428 25 q 292 -8 341 -8 m 75 268 q 90 159 75 207 q 133 76 105 110 l 535 614 q 468 661 507 645 q 382 678 430 678 q 295 662 336 678 q 221 618 255 646 q 160 551 187 590 q 114 467 133 513 q 85 371 95 422 q 75 268 75 320 m 293 6 q 418 41 362 6 q 515 133 475 76 q 578 265 556 191 q 600 415 600 338 q 586 521 600 474 q 545 602 572 568 l 142 65 q 293 6 200 6 z "},"ù":{"ha":692,"x_min":90,"x_max":614,"o":"m 161 681 l 110 247 q 106 178 106 210 q 136 51 106 96 q 236 6 167 6 q 323 27 279 6 q 409 88 367 48 q 487 183 450 127 q 554 308 524 239 l 599 681 l 614 681 l 532 0 l 528 0 q 521 3 522 0 q 519 10 519 6 l 551 274 l 551 277 q 488 160 524 213 q 410 69 451 107 q 324 12 368 32 q 235 -8 279 -8 q 125 40 160 -8 q 90 177 90 88 q 91 211 90 193 q 94 247 92 228 l 146 681 l 161 681 m 283 985 q 299 982 294 985 q 308 969 304 979 l 393 806 l 383 806 q 374 811 377 806 l 265 985 l 283 985 z "},"ú":{"ha":692,"x_min":90,"x_max":614,"o":"m 161 681 l 110 247 q 106 178 106 210 q 136 51 106 96 q 236 6 167 6 q 323 27 279 6 q 409 88 367 48 q 487 183 450 127 q 554 308 524 239 l 599 681 l 614 681 l 532 0 l 528 0 q 521 3 522 0 q 519 10 519 6 l 551 274 l 551 277 q 488 160 524 213 q 410 69 451 107 q 324 12 368 32 q 235 -8 279 -8 q 125 40 160 -8 q 90 177 90 88 q 91 211 90 193 q 94 247 92 228 l 146 681 l 161 681 m 514 985 l 363 811 q 351 806 359 806 l 342 806 l 467 969 q 480 982 474 979 q 496 985 485 985 l 514 985 z "},"û":{"ha":692,"x_min":90,"x_max":614,"o":"m 161 681 l 110 247 q 106 178 106 210 q 136 51 106 96 q 236 6 167 6 q 323 27 279 6 q 409 88 367 48 q 487 183 450 127 q 554 308 524 239 l 599 681 l 614 681 l 532 0 l 528 0 q 521 3 522 0 q 519 10 519 6 l 551 274 l 551 277 q 488 160 524 213 q 410 69 451 107 q 324 12 368 32 q 235 -8 279 -8 q 125 40 160 -8 q 90 177 90 88 q 91 211 90 193 q 94 247 92 228 l 146 681 l 161 681 m 399 974 l 410 974 l 525 814 l 514 814 q 509 815 512 814 q 504 819 506 816 l 406 956 q 405 957 405 956 q 403 959 404 958 q 403 960 403 960 q 399 956 402 959 l 267 819 q 262 816 265 817 q 256 814 259 814 l 243 814 l 399 974 z "},"ü":{"ha":692,"x_min":90,"x_max":614,"o":"m 161 681 l 110 247 q 106 178 106 210 q 136 51 106 96 q 236 6 167 6 q 323 27 279 6 q 409 88 367 48 q 487 183 450 127 q 554 308 524 239 l 599 681 l 614 681 l 532 0 l 528 0 q 521 3 522 0 q 519 10 519 6 l 551 274 l 551 277 q 488 160 524 213 q 410 69 451 107 q 324 12 368 32 q 235 -8 279 -8 q 125 40 160 -8 q 90 177 90 88 q 91 211 90 193 q 94 247 92 228 l 146 681 l 161 681 m 322 906 q 310 880 322 891 q 283 868 298 868 q 256 880 267 868 q 244 906 244 891 q 256 933 244 922 q 283 944 267 944 q 310 933 298 944 q 322 906 322 922 m 550 906 q 538 880 550 891 q 511 868 526 868 q 484 880 495 868 q 472 906 472 891 q 484 933 472 922 q 511 944 495 944 q 538 933 526 944 q 550 906 550 922 z "},"ý":{"ha":597,"x_min":63,"x_max":619,"o":"m 135 -239 q 119 -250 129 -250 l 111 -250 l 251 12 l 63 681 l 71 681 q 78 678 76 681 q 82 671 81 676 l 256 53 q 260 26 259 40 q 266 40 263 33 q 272 53 269 47 l 599 674 q 610 681 602 681 l 619 681 l 135 -239 m 483 985 l 332 811 q 321 806 328 806 l 311 806 l 436 969 q 449 982 444 979 q 465 985 455 985 l 483 985 z "},"þ":{"ha":690,"x_min":54,"x_max":639,"o":"m 54 -250 l 207 1000 l 222 1000 l 147 383 q 209 507 174 451 q 286 605 245 564 q 372 668 326 645 q 463 690 417 690 q 541 673 508 690 q 596 624 574 655 q 628 550 618 592 q 639 457 639 507 q 629 354 639 408 q 599 248 619 300 q 550 150 579 197 q 485 68 522 103 q 403 13 448 33 q 307 -8 358 -8 q 194 21 247 -8 q 113 113 142 51 l 71 -237 q 60 -250 69 -250 l 54 -250 m 463 676 q 373 653 417 676 q 286 586 328 630 q 208 481 244 543 q 142 342 171 419 l 116 135 q 154 75 133 99 q 200 35 175 50 q 252 13 225 19 q 308 6 280 6 q 401 26 358 6 q 479 80 444 46 q 541 159 514 114 q 586 255 568 205 q 614 357 605 305 q 624 457 624 409 q 613 548 624 508 q 583 617 603 589 q 532 661 563 646 q 463 676 502 676 z "},"ÿ":{"ha":597,"x_min":63,"x_max":619,"o":"m 135 -239 q 119 -250 129 -250 l 111 -250 l 251 12 l 63 681 l 71 681 q 78 678 76 681 q 82 671 81 676 l 256 53 q 260 26 259 40 q 266 40 263 33 q 272 53 269 47 l 599 674 q 610 681 602 681 l 619 681 l 135 -239 m 292 906 q 280 880 292 891 q 253 868 267 868 q 225 880 237 868 q 214 906 214 891 q 225 933 214 922 q 253 944 237 944 q 280 933 267 944 q 292 906 292 922 m 519 906 q 507 880 519 891 q 481 868 495 868 q 453 880 465 868 q 442 906 442 891 q 453 933 442 922 q 481 944 465 944 q 507 933 495 944 q 519 906 519 922 z "},"Ą":{"ha":786,"x_min":-29,"x_max":792,"o":"m 783 -187 q 789 -190 786 -187 l 792 -194 q 748 -222 774 -212 q 694 -232 722 -232 q 631 -211 656 -232 q 607 -149 607 -190 q 617 -100 607 -123 q 643 -59 627 -78 q 677 -24 658 -40 q 713 3 696 -8 q 711 7 711 3 l 627 332 l 157 332 l -7 7 q -18 0 -12 0 l -29 0 l 464 972 l 478 972 l 732 0 q 698 -22 717 -8 q 662 -54 679 -35 q 633 -96 644 -73 q 621 -146 621 -119 q 642 -199 621 -179 q 697 -218 664 -218 q 733 -213 718 -218 q 758 -203 748 -208 q 774 -192 768 -197 q 783 -187 780 -187 m 164 346 l 624 346 l 475 921 q 471 935 473 928 q 468 949 469 942 q 461 935 465 942 q 454 921 458 928 l 164 346 z "},"ą":{"ha":654,"x_min":49,"x_max":581,"o":"m 553 -187 q 558 -190 556 -187 l 561 -194 q 517 -222 543 -212 q 464 -232 491 -232 q 401 -211 425 -232 q 376 -149 376 -190 q 388 -99 376 -122 q 415 -55 399 -75 q 452 -20 432 -35 q 489 6 472 -4 l 489 10 l 522 299 q 462 175 496 231 q 389 77 428 118 q 306 14 349 37 q 215 -8 262 -8 q 139 9 170 -8 q 87 58 107 26 q 58 132 67 89 q 49 226 49 175 q 64 342 49 285 q 106 450 79 399 q 171 545 133 501 q 253 621 208 589 q 348 671 298 653 q 451 689 399 689 q 520 682 489 689 q 581 656 551 674 l 501 0 q 468 -22 487 -8 q 431 -54 449 -35 q 402 -96 414 -73 q 390 -146 390 -119 q 412 -199 390 -179 q 467 -218 433 -218 q 502 -213 488 -218 q 527 -203 517 -208 q 543 -192 538 -197 q 553 -187 549 -187 m 215 6 q 303 28 260 6 q 386 94 347 51 q 461 198 426 138 q 526 335 497 259 l 565 649 q 511 669 539 663 q 451 675 483 675 q 353 658 401 675 q 263 610 306 640 q 183 537 219 579 q 121 444 147 494 q 80 339 94 394 q 65 226 65 283 q 74 135 65 176 q 101 66 83 94 q 147 21 119 37 q 215 6 176 6 z "},"Ć":{"ha":918,"x_min":110,"x_max":878,"o":"m 472 3 q 572 12 527 3 q 651 36 616 22 q 711 67 685 51 q 754 98 737 83 q 782 122 772 113 q 795 131 792 131 q 800 129 798 131 q 802 126 801 127 l 804 124 q 737 69 772 94 q 661 27 701 44 q 573 -1 620 9 q 471 -11 526 -11 q 323 18 390 -11 q 209 103 256 48 q 136 235 162 158 q 110 410 110 313 q 148 643 110 538 q 252 825 185 749 q 409 942 319 900 q 606 983 500 983 q 692 976 654 983 q 763 955 731 969 q 822 919 794 941 q 878 869 850 898 l 876 867 q 867 863 874 863 q 847 879 861 863 q 802 916 832 896 q 725 953 773 936 q 604 969 677 969 q 416 930 503 969 q 265 818 329 891 q 163 642 200 745 q 126 410 126 538 q 152 241 126 316 q 223 113 177 165 q 332 31 269 60 q 472 3 396 3 m 786 1222 l 582 1072 q 569 1068 576 1068 l 561 1068 l 733 1213 q 745 1220 740 1218 q 761 1222 751 1222 l 786 1222 z "},"ć":{"ha":594,"x_min":57,"x_max":565,"o":"m 540 126 q 469 58 502 84 q 405 17 436 31 q 343 -3 374 2 q 279 -8 313 -8 q 179 12 221 -8 q 110 68 137 33 q 70 152 83 103 q 57 257 57 201 q 68 364 57 310 q 100 466 79 417 q 149 555 120 514 q 215 627 178 597 q 294 674 251 657 q 386 692 338 692 q 446 685 419 692 q 494 666 473 678 q 533 638 516 654 q 565 601 551 621 l 563 599 q 556 596 560 596 q 541 609 551 596 q 512 637 531 622 q 462 665 492 652 q 385 678 431 678 q 260 642 317 678 q 162 547 203 606 q 97 412 120 488 q 74 257 74 336 q 85 158 74 204 q 122 78 97 113 q 185 25 147 44 q 279 6 224 6 q 355 15 321 6 q 414 38 388 24 q 460 68 440 52 q 493 98 479 84 q 517 121 508 112 q 532 131 526 131 q 535 130 534 131 q 540 126 537 130 m 526 985 l 375 811 q 364 806 372 806 l 354 806 l 479 969 q 492 982 487 979 q 508 985 498 985 l 526 985 z "},"Ę":{"ha":767,"x_min":111,"x_max":754,"o":"m 606 -187 q 611 -190 608 -187 l 614 -194 q 570 -222 596 -212 q 517 -232 544 -232 q 453 -211 478 -232 q 429 -149 429 -190 q 439 -102 429 -124 q 463 -61 448 -80 q 496 -26 478 -42 q 531 0 514 -11 l 111 0 l 231 972 l 754 972 l 751 957 l 245 957 l 189 501 l 619 501 l 617 486 l 188 486 l 129 15 l 638 15 l 635 0 l 554 0 q 520 -22 540 -8 q 484 -54 501 -35 q 455 -96 467 -73 q 443 -146 443 -119 q 465 -199 443 -179 q 519 -218 486 -218 q 555 -213 540 -218 q 580 -203 570 -208 q 596 -192 590 -197 q 606 -187 602 -187 z "},"ę":{"ha":604,"x_min":56,"x_max":556,"o":"m 399 -187 q 404 -190 401 -187 l 407 -194 q 363 -222 389 -212 q 310 -232 337 -232 q 247 -211 271 -232 q 222 -149 222 -190 q 231 -105 222 -126 q 252 -66 239 -84 q 282 -33 266 -48 q 315 -6 299 -18 q 279 -8 297 -8 q 182 10 224 -8 q 111 61 140 28 q 69 143 83 94 q 56 251 56 191 q 65 354 56 301 q 94 455 75 406 q 142 547 114 503 q 208 622 171 590 q 291 672 245 653 q 390 690 336 690 q 471 677 439 690 q 522 644 503 664 q 548 603 540 625 q 556 565 556 582 q 548 514 556 538 q 522 467 541 489 q 469 425 503 444 q 382 389 435 406 q 253 357 328 372 q 77 332 178 343 q 71 251 71 291 q 84 149 71 194 q 123 72 97 103 q 189 23 149 40 q 281 6 228 6 q 352 15 320 6 q 410 38 385 24 q 456 68 436 52 q 490 98 476 84 q 514 121 504 112 q 529 131 524 131 q 535 128 533 131 l 538 126 q 441 41 487 72 q 344 -1 395 10 q 311 -24 330 -10 q 276 -56 292 -37 q 248 -97 259 -74 q 236 -146 236 -119 q 258 -199 236 -179 q 313 -218 279 -218 q 348 -213 333 -218 q 373 -203 363 -208 q 389 -192 383 -197 q 399 -187 395 -187 m 390 676 q 272 648 324 676 q 180 573 219 619 q 116 467 141 526 q 79 346 90 408 q 256 371 182 357 q 382 402 331 385 q 465 438 433 419 q 514 478 497 457 q 537 520 531 499 q 543 565 543 542 q 535 601 543 582 q 509 638 527 621 q 462 665 492 654 q 390 676 433 676 z "},"ı":{"ha":296,"x_min":99,"x_max":197,"o":"m 197 681 l 114 0 l 99 0 l 182 681 l 197 681 z "},"Ł":{"ha":671,"x_min":46,"x_max":607,"o":"m 203 451 l 507 615 l 507 611 q 505 604 507 607 q 497 597 503 601 l 202 437 l 150 15 l 607 15 l 604 0 l 132 0 l 185 428 l 46 354 l 47 360 q 49 368 47 365 q 57 374 51 370 l 186 444 l 251 972 l 268 972 l 203 451 z "},"ł":{"ha":367,"x_min":61,"x_max":369,"o":"m 61 486 q 63 494 61 492 q 69 500 64 497 l 209 569 l 261 1000 l 276 1000 l 224 576 l 369 646 l 369 642 q 368 634 369 638 q 361 628 367 631 l 222 560 l 154 0 l 140 0 l 207 553 l 61 482 l 61 486 z "},"Ń":{"ha":965,"x_min":111,"x_max":890,"o":"m 236 972 q 244 967 241 972 l 762 30 q 762 37 762 33 q 763 44 762 41 l 876 972 l 890 972 l 771 0 l 768 0 q 758 7 763 0 l 240 946 q 240 940 240 942 q 239 934 240 937 q 239 929 239 931 l 125 0 l 111 0 l 231 972 l 236 972 l 236 972 m 751 1222 l 547 1072 q 535 1068 541 1068 l 526 1068 l 699 1213 q 710 1220 705 1218 q 726 1222 716 1222 l 751 1222 z "},"ń":{"ha":693,"x_min":79,"x_max":603,"o":"m 79 0 l 161 683 l 164 683 q 171 680 169 683 q 172 674 172 677 l 142 408 q 206 524 170 472 q 284 614 242 576 q 369 670 325 651 q 458 690 414 690 q 568 643 533 690 q 603 506 603 595 q 602 473 603 490 q 599 436 601 455 l 547 0 l 532 0 l 583 436 q 587 472 585 454 q 588 505 588 489 q 557 632 588 587 q 457 676 526 676 q 370 655 414 676 q 284 595 326 634 q 206 500 243 556 q 139 374 169 444 l 94 0 l 79 0 m 546 985 l 394 811 q 383 806 391 806 l 374 806 l 499 969 q 512 982 506 979 q 528 985 517 985 l 546 985 z "},"Œ":{"ha":1444,"x_min":110,"x_max":1432,"o":"m 1432 972 l 1431 957 l 928 957 l 872 501 l 1297 501 l 1296 486 l 871 486 l 813 15 l 1315 15 l 1313 0 l 794 0 l 835 326 q 770 185 810 247 q 678 80 731 123 q 563 14 626 37 q 428 -8 499 -8 q 296 20 355 -8 q 196 102 238 49 q 132 231 154 155 q 110 400 110 306 q 144 641 110 533 q 237 825 178 749 q 376 942 297 901 q 549 983 456 983 q 678 956 621 983 q 777 880 736 929 q 842 760 819 831 q 869 603 865 690 l 914 972 l 1432 972 m 856 572 q 834 737 856 663 q 773 862 813 810 q 677 942 733 914 q 550 969 620 969 q 384 930 461 969 q 250 817 307 890 q 159 638 192 743 q 126 401 126 533 q 148 236 126 310 q 210 112 170 163 q 306 33 250 60 q 432 6 363 6 q 600 45 522 6 q 734 157 677 84 q 823 335 791 231 q 856 572 856 440 z "},"œ":{"ha":1053,"x_min":42,"x_max":1017,"o":"m 849 692 q 921 682 890 692 q 974 654 952 672 q 1006 611 995 636 q 1017 556 1017 586 q 1010 510 1017 533 q 983 466 1002 488 q 930 426 963 445 q 847 390 897 407 q 725 360 796 374 q 561 335 655 346 q 559 282 559 309 q 573 165 559 217 q 613 78 587 114 q 675 24 638 43 q 758 6 712 6 q 830 15 797 6 q 888 38 862 24 q 934 68 914 52 q 968 98 953 84 q 992 121 983 112 q 1006 131 1001 131 q 1013 128 1010 131 l 1015 126 q 952 66 983 92 q 890 24 922 41 q 826 0 859 8 q 756 -8 792 -8 q 667 11 706 -8 q 601 68 628 31 q 561 158 575 106 q 547 277 547 211 q 503 159 531 212 q 436 69 475 106 q 349 12 398 32 q 243 -8 301 -8 q 151 11 190 -8 q 89 64 113 31 q 53 139 65 97 q 42 228 42 182 q 66 424 42 338 q 135 569 91 510 q 239 660 178 629 q 371 692 299 692 q 458 674 421 692 q 519 622 494 656 q 555 543 543 589 q 567 440 567 497 q 610 544 583 498 q 673 624 637 591 q 753 674 709 656 q 849 692 798 692 m 247 6 q 371 36 317 6 q 465 119 426 66 q 526 247 503 173 q 554 408 549 321 q 548 517 558 467 q 515 602 538 566 q 456 658 492 638 q 368 678 419 678 q 241 647 298 678 q 143 557 184 615 q 81 416 103 499 q 58 229 58 333 q 68 147 58 187 q 101 75 78 106 q 160 25 124 44 q 247 6 196 6 m 848 678 q 741 654 790 678 q 655 588 692 631 q 594 484 618 544 q 563 349 570 424 q 787 387 701 365 q 922 436 874 409 q 988 494 970 463 q 1005 556 1005 525 q 996 602 1005 580 q 968 641 987 624 q 919 668 949 658 q 848 678 889 678 z "},"Ś":{"ha":660,"x_min":43,"x_max":635,"o":"m 631 884 q 624 879 628 879 q 614 886 619 879 q 599 902 608 892 q 576 924 590 913 q 543 946 563 936 q 496 963 523 956 q 433 969 469 969 q 326 949 374 969 q 246 895 279 929 q 195 815 213 860 q 178 718 178 769 q 195 638 178 670 q 242 583 213 606 q 308 544 272 560 q 384 514 345 528 q 460 482 423 499 q 526 443 497 466 q 573 386 555 419 q 590 303 590 352 q 568 182 590 239 q 506 82 547 125 q 407 14 465 40 q 278 -11 349 -11 q 198 -2 233 -11 q 135 23 163 6 q 85 62 108 39 q 43 115 63 85 l 46 118 q 56 122 50 122 q 66 114 59 122 q 83 91 72 105 q 110 63 94 78 q 150 34 126 47 q 205 11 174 20 q 279 3 237 3 q 401 27 347 3 q 495 91 456 51 q 554 186 533 132 q 575 303 575 241 q 557 382 575 350 q 510 436 540 414 q 444 474 481 458 q 369 504 408 490 q 293 534 330 518 q 227 574 256 551 q 180 632 198 598 q 163 717 163 667 q 181 818 163 769 q 234 903 199 866 q 320 961 269 940 q 436 983 371 983 q 548 960 501 983 q 633 888 596 938 l 631 884 m 635 1222 l 431 1072 q 418 1068 424 1068 l 410 1068 l 582 1213 q 594 1220 588 1218 q 610 1222 599 1222 l 635 1222 z "},"ś":{"ha":532,"x_min":36,"x_max":489,"o":"m 489 624 q 484 617 485 618 q 479 615 482 615 q 465 625 474 615 q 439 645 456 634 q 394 667 422 657 q 324 676 366 676 q 248 663 284 676 q 184 625 212 649 q 140 569 156 601 q 124 504 124 538 q 138 450 124 472 q 174 413 151 428 q 225 387 197 398 q 284 365 254 376 q 344 342 315 354 q 395 313 373 330 q 432 270 418 295 q 446 208 446 244 q 430 128 446 167 q 384 57 414 88 q 311 8 354 26 q 215 -11 269 -11 q 156 -5 182 -11 q 109 11 130 1 q 70 37 88 22 q 36 71 53 52 l 40 75 q 47 79 44 79 q 60 67 51 79 q 90 40 70 55 q 140 14 109 26 q 218 1 171 1 q 305 19 265 1 q 373 65 344 36 q 416 131 401 94 q 432 208 432 168 q 418 266 432 242 q 382 306 404 290 q 330 333 359 322 q 270 355 301 344 q 211 377 240 365 q 160 405 183 389 q 124 445 138 422 q 110 504 110 469 q 127 575 110 541 q 173 634 144 608 q 242 675 203 660 q 326 690 281 690 q 418 675 380 690 q 489 624 456 659 m 464 985 l 313 811 q 301 806 309 806 l 292 806 l 417 969 q 430 982 424 979 q 446 985 435 985 l 464 985 z "},"Š":{"ha":660,"x_min":43,"x_max":633,"o":"m 631 884 q 624 879 628 879 q 614 886 619 879 q 599 902 608 892 q 576 924 590 913 q 543 946 563 936 q 496 963 523 956 q 433 969 469 969 q 326 949 374 969 q 246 895 279 929 q 195 815 213 860 q 178 718 178 769 q 195 638 178 670 q 242 583 213 606 q 308 544 272 560 q 384 514 345 528 q 460 482 423 499 q 526 443 497 466 q 573 386 555 419 q 590 303 590 352 q 568 182 590 239 q 506 82 547 125 q 407 14 465 40 q 278 -11 349 -11 q 198 -2 233 -11 q 135 23 163 6 q 85 62 108 39 q 43 115 63 85 l 46 118 q 56 122 50 122 q 66 114 59 122 q 83 91 72 105 q 110 63 94 78 q 150 34 126 47 q 205 11 174 20 q 279 3 237 3 q 401 27 347 3 q 495 91 456 51 q 554 186 533 132 q 575 303 575 241 q 557 382 575 350 q 510 436 540 414 q 444 474 481 458 q 369 504 408 490 q 293 534 330 518 q 227 574 256 551 q 180 632 198 598 q 163 717 163 667 q 181 818 163 769 q 234 903 199 866 q 320 961 269 940 q 436 983 371 983 q 548 960 501 983 q 633 888 596 938 l 631 884 m 322 1200 l 343 1200 l 462 1081 l 610 1200 l 631 1200 l 467 1068 l 454 1068 l 322 1200 z "},"š":{"ha":532,"x_min":36,"x_max":494,"o":"m 489 624 q 484 617 485 618 q 479 615 482 615 q 465 625 474 615 q 439 645 456 634 q 394 667 422 657 q 324 676 366 676 q 248 663 284 676 q 184 625 212 649 q 140 569 156 601 q 124 504 124 538 q 138 450 124 472 q 174 413 151 428 q 225 387 197 398 q 284 365 254 376 q 344 342 315 354 q 395 313 373 330 q 432 270 418 295 q 446 208 446 244 q 430 128 446 167 q 384 57 414 88 q 311 8 354 26 q 215 -11 269 -11 q 156 -5 182 -11 q 109 11 130 1 q 70 37 88 22 q 36 71 53 52 l 40 75 q 47 79 44 79 q 60 67 51 79 q 90 40 70 55 q 140 14 109 26 q 218 1 171 1 q 305 19 265 1 q 373 65 344 36 q 416 131 401 94 q 432 208 432 168 q 418 266 432 242 q 382 306 404 290 q 330 333 359 322 q 270 355 301 344 q 211 377 240 365 q 160 405 183 389 q 124 445 138 422 q 110 504 110 469 q 127 575 110 541 q 173 634 144 608 q 242 675 203 660 q 326 690 281 690 q 418 675 380 690 q 489 624 456 659 m 339 814 l 328 814 l 211 974 l 224 974 q 233 968 230 974 l 332 832 l 333 831 q 334 829 334 830 q 335 827 334 828 l 471 968 q 482 974 476 974 l 494 974 l 339 814 z "},"Ÿ":{"ha":735,"x_min":103,"x_max":786,"o":"m 385 413 l 333 0 l 317 0 l 368 413 l 103 972 l 117 972 q 125 967 122 972 l 369 446 q 374 437 372 442 q 378 427 376 433 q 384 437 381 433 q 390 446 388 442 l 763 967 q 772 972 766 972 l 786 972 l 385 413 m 389 1156 q 377 1130 389 1141 q 350 1118 365 1118 q 323 1130 334 1118 q 311 1156 311 1141 q 323 1183 311 1172 q 350 1194 334 1194 q 377 1183 365 1194 q 389 1156 389 1172 m 617 1156 q 605 1130 617 1141 q 578 1118 592 1118 q 550 1130 562 1118 q 539 1156 539 1141 q 550 1183 539 1172 q 578 1194 562 1194 q 605 1183 592 1194 q 617 1156 617 1172 z "},"Ź":{"ha":819,"x_min":47,"x_max":817,"o":"m 817 972 l 815 965 q 813 960 814 962 q 808 954 812 958 l 72 15 l 697 15 l 694 0 l 47 0 l 49 7 q 51 12 50 10 q 54 17 52 13 l 792 957 l 175 957 l 178 972 l 817 972 m 681 1222 l 476 1072 q 464 1068 470 1068 l 456 1068 l 628 1213 q 640 1220 634 1218 q 656 1222 645 1222 l 681 1222 z "},"ź":{"ha":569,"x_min":10,"x_max":557,"o":"m 556 676 q 550 665 556 672 l 32 14 l 456 14 l 454 0 l 10 0 l 10 4 q 11 9 10 7 q 15 14 13 12 l 534 667 l 113 667 l 115 681 l 557 681 l 556 676 m 474 985 l 322 811 q 311 806 319 806 l 301 806 l 426 969 q 440 982 434 979 q 456 985 445 985 l 474 985 z "},"Ż":{"ha":819,"x_min":47,"x_max":817,"o":"m 817 972 l 815 965 q 813 960 814 962 q 808 954 812 958 l 72 15 l 697 15 l 694 0 l 47 0 l 49 7 q 51 12 50 10 q 54 17 52 13 l 792 957 l 175 957 l 178 972 l 817 972 m 549 1158 q 536 1132 549 1144 q 510 1121 524 1121 q 482 1132 494 1121 q 471 1158 471 1144 q 482 1186 471 1174 q 510 1197 494 1197 q 536 1186 524 1197 q 549 1158 549 1174 z "},"ż":{"ha":569,"x_min":10,"x_max":557,"o":"m 556 676 q 550 665 556 672 l 32 14 l 456 14 l 454 0 l 10 0 l 10 4 q 11 9 10 7 q 15 14 13 12 l 534 667 l 113 667 l 115 681 l 557 681 l 556 676 m 417 946 q 405 920 417 931 q 378 908 392 908 q 350 920 362 908 q 339 946 339 931 q 350 973 339 962 q 378 985 362 985 q 405 973 392 985 q 417 946 417 962 z "},"Ž":{"ha":819,"x_min":47,"x_max":817,"o":"m 817 972 l 815 965 q 813 960 814 962 q 808 954 812 958 l 72 15 l 697 15 l 694 0 l 47 0 l 49 7 q 51 12 50 10 q 54 17 52 13 l 792 957 l 175 957 l 178 972 l 817 972 m 361 1200 l 382 1200 l 501 1081 l 649 1200 l 669 1200 l 506 1068 l 493 1068 l 361 1200 z "},"ž":{"ha":569,"x_min":10,"x_max":557,"o":"m 556 676 q 550 665 556 672 l 32 14 l 456 14 l 454 0 l 10 0 l 10 4 q 11 9 10 7 q 15 14 13 12 l 534 667 l 113 667 l 115 681 l 557 681 l 556 676 m 349 814 l 338 814 l 221 974 l 233 974 q 243 968 240 974 l 342 832 l 343 831 q 344 829 344 830 q 344 827 344 828 l 481 968 q 492 974 486 974 l 504 974 l 349 814 z "},"ƒ":{"ha":806,"x_min":15,"x_max":758,"o":"m 446 571 l 306 -6 q 261 -118 290 -71 q 194 -196 233 -165 q 111 -241 156 -226 q 15 -256 65 -256 l 16 -251 q 29 -242 17 -242 q 108 -228 68 -241 q 182 -188 147 -216 q 245 -116 217 -160 q 289 -6 273 -72 l 430 571 l 274 574 q 265 579 265 574 l 267 585 l 433 585 l 469 732 q 512 844 485 797 q 577 922 540 892 q 660 967 614 953 q 758 982 706 982 l 758 978 q 746 968 756 968 q 666 956 705 968 q 593 916 627 944 q 531 844 558 889 q 486 732 503 799 l 448 585 l 717 585 l 714 571 l 446 571 z "},"ˆ":{"ha":358,"x_min":96,"x_max":378,"o":"m 251 972 l 263 972 l 378 813 l 367 813 q 362 814 365 813 q 357 818 359 815 l 258 954 q 257 956 258 955 q 256 958 257 957 q 256 959 256 958 q 251 954 255 958 l 119 818 q 115 814 117 816 q 108 813 112 813 l 96 813 l 251 972 z "},"ˇ":{"ha":358,"x_min":115,"x_max":399,"o":"m 243 813 l 232 813 l 115 972 l 128 972 q 138 967 134 972 l 236 831 l 238 829 q 238 827 238 828 q 239 826 238 826 l 375 967 q 386 972 381 972 l 399 972 l 243 813 z "},"ˉ":{"ha":358,"x_min":81,"x_max":415,"o":"m 82 896 l 415 896 l 414 882 l 81 882 l 82 896 z "},"˘":{"ha":358,"x_min":123,"x_max":394,"o":"m 240 814 q 187 824 209 814 q 150 850 165 833 q 130 890 136 867 q 123 940 123 913 q 125 972 123 956 l 139 972 q 137 942 137 956 q 142 898 137 918 q 160 861 148 877 q 193 837 173 846 q 242 828 213 828 q 300 840 275 828 q 341 872 324 852 q 367 918 358 892 q 381 972 377 944 l 394 972 q 379 911 390 940 q 349 861 368 883 q 303 826 331 839 q 240 814 276 814 z "},"˙":{"ha":358,"x_min":232,"x_max":310,"o":"m 310 944 q 298 918 310 930 q 271 907 285 907 q 243 918 255 907 q 232 944 232 930 q 243 972 232 960 q 271 983 255 983 q 298 972 285 983 q 310 944 310 960 z "},"˚":{"ha":358,"x_min":146,"x_max":351,"o":"m 146 896 q 154 935 146 917 q 176 967 162 953 q 208 988 190 981 q 249 996 227 996 q 289 988 270 996 q 322 967 308 981 q 343 935 335 953 q 351 896 351 917 q 343 856 351 874 q 322 825 335 838 q 289 803 308 811 q 249 796 270 796 q 208 803 227 796 q 176 825 190 811 q 154 856 162 838 q 146 896 146 874 m 161 896 q 168 861 161 877 q 186 833 174 845 q 214 815 198 822 q 249 808 230 808 q 283 815 267 808 q 311 833 299 822 q 330 861 323 845 q 336 896 336 877 q 330 931 336 915 q 311 958 323 947 q 283 977 299 970 q 249 983 267 983 q 214 977 230 983 q 186 958 198 970 q 168 931 174 947 q 161 896 161 915 z "},"˛":{"ha":358,"x_min":43,"x_max":228,"o":"m 219 -187 q 225 -190 222 -187 l 228 -194 q 184 -222 210 -212 q 131 -232 158 -232 q 67 -211 92 -232 q 43 -149 43 -190 q 55 -97 43 -121 q 84 -52 67 -72 q 123 -16 102 -32 q 161 10 143 -1 l 168 0 q 134 -22 153 -8 q 98 -54 115 -35 q 69 -96 81 -73 q 57 -146 57 -119 q 78 -199 57 -179 q 133 -218 100 -218 q 169 -213 154 -218 q 194 -203 184 -208 q 210 -192 204 -197 q 219 -187 216 -187 z "},"˜":{"ha":358,"x_min":99,"x_max":403,"o":"m 318 863 q 368 885 351 863 q 392 942 386 908 l 403 942 q 394 906 401 923 q 377 876 388 889 q 351 856 366 864 q 317 849 336 849 q 280 861 297 849 q 249 889 264 874 q 218 917 233 904 q 183 929 202 929 q 156 923 168 929 q 134 906 143 917 q 118 881 124 895 q 110 850 113 866 l 99 850 q 108 886 101 869 q 126 915 115 903 q 152 935 137 928 q 186 943 167 943 q 223 931 207 943 q 255 903 240 918 q 285 875 269 888 q 318 863 300 863 z "},"˝":{"ha":358,"x_min":153,"x_max":472,"o":"m 321 983 l 174 810 q 163 804 168 804 l 153 804 l 278 968 q 290 981 284 978 q 306 983 295 983 l 321 983 m 472 983 l 310 810 q 297 804 304 804 l 289 804 l 426 968 q 439 980 434 976 q 456 983 444 983 l 472 983 z "},"π":{"ha":717,"x_min":-12,"x_max":736,"o":"m 736 681 l 736 676 q 733 669 736 672 q 724 665 729 665 l 594 665 l 513 0 l 496 0 l 577 665 l 241 665 l 176 133 q 161 72 172 98 q 132 28 149 46 q 91 3 114 11 q 42 -6 68 -6 q 10 -3 23 -6 q -12 7 -2 -1 l -10 13 q -2 18 -7 18 q 14 13 3 18 q 43 8 24 8 q 121 39 90 8 q 160 133 152 70 l 224 665 l 90 665 l 90 671 q 93 677 90 674 q 103 681 97 681 l 736 681 z "},"–":{"ha":675,"x_min":96,"x_max":593,"o":"m 97 401 l 593 401 l 592 388 l 96 388 l 97 401 z "},"—":{"ha":990,"x_min":96,"x_max":908,"o":"m 97 401 l 908 401 l 906 388 l 96 388 l 97 401 z "},"‘":{"ha":238,"x_min":151,"x_max":247,"o":"m 163 761 q 151 820 151 790 q 159 872 151 847 q 180 922 167 898 q 209 968 192 946 q 244 1009 226 990 l 246 1007 q 247 1004 247 1006 q 242 995 247 1003 q 189 911 208 953 q 169 831 169 869 q 179 781 169 804 q 181 774 181 776 q 176 768 181 769 l 163 761 z "},"’":{"ha":238,"x_min":115,"x_max":211,"o":"m 200 1007 q 211 948 211 978 q 203 896 211 922 q 183 846 196 870 q 153 800 170 822 q 119 759 137 778 l 117 761 q 115 764 115 763 q 121 773 115 765 q 174 857 155 815 q 193 938 193 899 q 183 988 193 964 q 182 994 182 992 q 186 1000 182 999 l 200 1007 z "},"‚":{"ha":247,"x_min":17,"x_max":113,"o":"m 101 83 q 113 24 113 55 q 105 -28 113 -2 q 84 -77 97 -53 q 55 -124 72 -101 q 20 -165 38 -146 l 18 -162 q 17 -160 17 -161 q 22 -151 17 -158 q 75 -67 56 -109 q 94 14 94 -25 q 85 64 94 40 q 83 70 83 68 q 88 76 83 75 l 101 83 z "},"“":{"ha":390,"x_min":151,"x_max":401,"o":"m 163 761 q 151 820 151 790 q 159 872 151 847 q 180 922 167 898 q 209 968 192 946 q 244 1009 226 990 l 246 1007 q 247 1004 247 1006 q 242 995 247 1003 q 189 911 208 953 q 169 831 169 869 q 179 781 169 804 q 181 774 181 776 q 176 768 181 769 l 163 761 m 317 761 q 306 820 306 790 q 313 872 306 847 q 334 922 321 898 q 363 968 347 946 q 398 1009 380 990 l 400 1007 q 401 1004 401 1006 q 396 995 401 1003 q 343 911 362 953 q 324 831 324 869 q 333 781 324 804 q 335 774 335 776 q 331 768 335 769 l 317 761 z "},"”":{"ha":390,"x_min":129,"x_max":379,"o":"m 214 1007 q 225 948 225 978 q 217 896 225 922 q 197 846 210 870 q 167 800 184 822 q 133 759 151 778 l 131 761 q 129 764 129 763 q 135 773 129 765 q 188 857 169 815 q 207 938 207 899 q 197 988 207 964 q 196 994 196 992 q 200 1000 196 999 l 214 1007 m 368 1007 q 379 948 379 978 q 372 896 379 922 q 351 846 364 870 q 322 800 338 822 q 287 759 305 778 l 285 761 q 283 764 283 763 q 289 773 283 765 q 342 857 323 815 q 361 938 361 899 q 351 988 361 964 q 350 994 350 992 q 354 1000 350 999 l 368 1007 z "},"„":{"ha":390,"x_min":-39,"x_max":211,"o":"m 46 83 q 57 24 57 55 q 49 -28 57 -2 q 29 -77 42 -53 q -1 -124 16 -101 q -35 -165 -17 -146 l -37 -162 q -39 -160 -39 -161 q -33 -151 -39 -158 q 20 -67 1 -109 q 39 14 39 -25 q 29 64 39 40 q 28 70 28 68 q 32 76 28 75 l 46 83 m 200 83 q 211 24 211 55 q 203 -28 211 -2 q 183 -77 196 -53 q 153 -124 170 -101 q 119 -165 137 -146 l 117 -162 q 115 -160 115 -161 q 121 -151 115 -158 q 174 -67 155 -109 q 193 14 193 -25 q 183 64 193 40 q 182 70 182 68 q 186 76 182 75 l 200 83 z "},"†":{"ha":742,"x_min":162,"x_max":649,"o":"m 163 646 q 166 652 163 649 q 174 656 169 656 l 399 651 l 438 983 q 442 985 440 985 q 447 986 444 986 q 453 985 451 986 q 457 983 455 985 l 413 651 l 640 656 q 649 644 649 656 l 649 640 l 412 640 l 364 249 l 306 -251 q 296 -254 300 -254 q 290 -253 292 -254 q 286 -251 288 -253 l 350 249 l 398 640 l 162 640 l 163 646 z "},"‡":{"ha":742,"x_min":94,"x_max":649,"o":"m 94 92 l 331 92 l 398 640 l 162 640 l 163 646 q 166 652 163 649 q 174 656 169 656 l 399 651 l 438 983 q 442 985 440 985 q 447 986 444 986 q 453 985 451 986 q 457 983 455 985 l 413 651 l 640 656 q 646 653 644 656 q 649 647 649 651 q 648 646 649 647 q 648 644 648 645 l 648 640 l 412 640 l 381 382 l 344 92 l 581 92 l 581 89 q 580 86 581 88 q 580 84 580 85 q 569 76 577 76 l 342 80 l 306 -251 q 296 -254 300 -254 q 290 -253 292 -254 q 286 -251 288 -253 l 330 80 l 101 76 q 95 80 97 76 q 94 86 94 83 l 94 92 z "},"•":{"ha":806,"x_min":267,"x_max":581,"o":"m 267 415 q 279 477 267 448 q 313 527 292 506 q 362 561 334 549 q 422 574 390 574 q 484 561 455 574 q 534 527 513 549 q 568 477 556 506 q 581 415 581 448 q 568 355 581 383 q 534 306 556 327 q 484 272 513 285 q 422 260 455 260 q 362 272 390 260 q 313 306 334 285 q 279 355 292 327 q 267 415 267 383 z "},"…":{"ha":910,"x_min":49,"x_max":792,"o":"m 49 33 q 61 66 49 52 q 93 79 74 79 q 125 66 112 79 q 139 33 139 52 q 125 2 139 15 q 93 -11 112 -11 q 61 2 74 -11 q 49 33 49 15 m 375 33 q 388 66 375 52 q 419 79 401 79 q 452 66 438 79 q 465 33 465 52 q 452 2 465 15 q 419 -11 438 -11 q 388 2 401 -11 q 375 33 375 15 m 701 33 q 714 66 701 52 q 746 79 727 79 q 778 66 765 79 q 792 33 792 52 q 778 2 792 15 q 746 -11 765 -11 q 714 2 727 -11 q 701 33 701 15 z "},"‰":{"ha":1417,"x_min":108,"x_max":1343,"o":"m 475 785 q 457 656 475 710 q 410 566 440 602 q 342 513 381 531 q 263 496 303 496 q 202 508 230 496 q 153 545 174 520 q 121 607 133 569 q 110 693 110 644 q 127 822 110 767 q 174 912 144 876 q 241 966 203 948 q 322 983 280 983 q 382 971 354 983 q 431 934 410 959 q 463 872 451 909 q 475 785 475 835 m 460 785 q 449 867 460 832 q 419 925 438 902 q 375 959 401 948 q 321 971 350 971 q 247 955 282 971 q 184 904 211 938 q 140 817 156 869 q 124 693 124 765 q 134 611 124 646 q 164 553 145 576 q 208 519 183 531 q 264 508 234 508 q 338 525 302 508 q 400 575 373 541 q 443 660 427 608 q 460 785 460 713 m 858 967 q 871 972 864 972 l 881 972 l 129 6 q 118 0 126 0 l 108 0 l 858 967 m 886 278 q 868 149 886 203 q 821 59 851 95 q 753 6 792 24 q 674 -11 715 -11 q 613 1 641 -11 q 564 38 585 13 q 532 100 544 63 q 521 186 521 137 q 538 315 521 260 q 585 405 556 369 q 652 459 614 441 q 733 476 691 476 q 793 464 765 476 q 842 427 822 452 q 874 365 863 402 q 886 278 886 328 m 871 278 q 860 360 871 325 q 831 418 849 395 q 786 452 812 441 q 732 464 761 464 q 658 448 693 464 q 595 397 622 431 q 551 310 567 363 q 535 186 535 258 q 545 104 535 139 q 575 47 556 69 q 619 13 594 24 q 675 1 645 1 q 749 18 713 1 q 811 68 784 34 q 855 153 838 101 q 871 278 871 206 m 1343 278 q 1325 149 1343 203 q 1278 59 1308 95 q 1211 6 1249 24 q 1131 -11 1172 -11 q 1070 1 1098 -11 q 1021 38 1042 13 q 989 100 1001 63 q 978 186 978 137 q 995 315 978 260 q 1042 405 1013 369 q 1109 459 1071 441 q 1190 476 1148 476 q 1250 464 1222 476 q 1299 427 1278 452 q 1331 365 1319 402 q 1343 278 1343 328 m 1328 278 q 1317 360 1328 325 q 1288 418 1306 395 q 1243 452 1269 441 q 1189 464 1218 464 q 1115 448 1151 464 q 1053 397 1080 431 q 1009 310 1026 363 q 993 186 993 258 q 1004 104 993 139 q 1033 47 1015 69 q 1077 13 1052 24 q 1132 1 1103 1 q 1206 18 1170 1 q 1268 68 1241 34 q 1311 153 1295 101 q 1328 278 1328 206 z "},"‹":{"ha":393,"x_min":110,"x_max":299,"o":"m 110 353 l 110 356 l 292 613 l 296 610 q 299 603 299 607 q 294 593 299 598 l 138 369 q 124 354 127 356 q 133 339 128 351 l 236 115 q 238 108 238 111 q 233 99 238 102 l 228 96 l 110 353 z "},"›":{"ha":393,"x_min":94,"x_max":282,"o":"m 101 96 l 97 99 q 94 106 94 101 q 97 115 94 110 l 256 339 q 263 349 260 346 q 268 354 266 353 q 258 369 264 356 l 156 593 q 154 600 154 596 q 160 610 154 606 l 164 613 l 282 356 l 282 353 l 101 96 z "},"⁄":{"ha":254,"x_min":-178,"x_max":465,"o":"m -155 8 q -162 1 -158 3 q -171 0 -167 0 l -178 0 l 442 964 q 456 972 446 972 l 465 972 l -155 8 z "},"€":{"ha":806,"x_min":28,"x_max":835,"o":"m 49 578 l 169 578 q 225 748 188 673 q 316 876 263 824 q 439 956 370 928 q 589 983 508 983 q 667 976 632 983 q 732 955 702 969 q 786 919 761 941 q 835 869 811 898 l 833 867 q 825 863 829 863 q 815 870 822 863 q 797 890 808 878 q 768 916 785 902 q 726 942 751 930 q 666 961 701 953 q 588 969 632 969 q 445 943 511 969 q 328 867 380 917 q 240 744 276 817 q 185 578 203 672 l 640 578 l 640 572 q 629 564 640 564 l 182 564 q 173 494 176 530 q 168 419 169 458 l 558 419 l 558 414 q 547 406 558 406 l 168 406 l 168 389 q 188 225 168 297 q 247 103 208 153 q 340 28 285 54 q 465 3 395 3 q 551 12 513 3 q 620 36 590 22 q 673 67 650 50 q 711 98 696 83 q 737 121 727 112 q 751 131 747 131 q 754 130 753 131 q 757 127 755 129 l 760 124 q 700 69 731 94 q 632 27 668 44 q 553 -1 595 9 q 463 -11 511 -11 q 331 16 389 -11 q 234 94 274 43 q 173 219 194 145 q 151 388 151 293 l 151 406 l 28 406 l 29 419 l 152 419 q 157 494 153 458 q 166 564 160 530 l 47 564 l 49 578 z "},"™":{"ha":904,"x_min":126,"x_max":881,"o":"m 663 679 q 665 672 665 675 l 669 679 l 864 968 q 871 972 866 972 l 881 972 l 833 582 l 819 582 l 863 938 l 865 947 l 671 660 q 664 656 669 656 l 661 656 q 656 660 658 656 l 528 947 l 528 938 l 483 582 l 469 582 l 517 972 l 526 972 q 533 968 531 972 l 663 679 m 421 972 l 419 958 l 282 958 l 236 582 l 219 582 l 265 958 l 126 958 l 129 972 l 421 972 z "},"Ω":{"ha":974,"x_min":36,"x_max":926,"o":"m 529 0 l 554 207 q 699 261 633 226 q 811 349 764 297 q 884 472 858 401 q 910 632 910 542 q 882 779 910 716 q 808 885 855 842 q 698 948 760 927 q 564 969 635 969 q 453 957 508 969 q 350 921 399 945 q 259 860 301 897 q 187 775 217 824 q 140 664 157 726 q 122 529 122 603 q 141 412 122 465 q 193 319 159 360 q 277 250 228 278 q 386 207 326 222 l 361 0 l 45 0 q 39 2 42 0 q 36 8 36 5 l 36 17 l 348 17 l 370 198 q 266 239 315 211 q 182 309 218 267 q 126 406 147 351 q 106 531 106 462 q 123 668 106 605 q 172 781 141 731 q 247 869 203 831 q 341 932 290 907 q 449 970 392 958 q 565 983 506 983 q 706 961 640 983 q 820 894 772 938 q 898 785 869 850 q 926 633 926 719 q 897 465 926 539 q 819 338 868 392 q 705 249 769 283 q 569 198 640 215 l 547 17 l 857 17 l 857 8 q 847 0 857 0 l 529 0 z "},"∂":{"ha":741,"x_min":74,"x_max":693,"o":"m 350 933 q 394 958 374 948 q 434 974 415 968 q 473 983 453 981 q 512 986 492 986 q 648 919 602 986 q 693 728 693 852 q 691 679 693 704 q 686 625 690 653 q 655 457 675 538 q 607 306 635 376 q 543 178 579 235 q 463 79 507 120 q 368 16 419 38 q 260 -7 317 -7 q 183 8 217 -7 q 124 49 148 22 q 87 115 100 76 q 74 203 74 154 q 75 227 74 215 q 77 253 76 240 q 118 401 87 331 q 196 523 149 471 q 306 606 244 575 q 440 636 368 636 q 508 625 474 636 q 568 590 541 614 q 612 526 594 565 q 634 432 630 488 q 648 488 642 459 q 658 544 653 517 q 665 592 662 570 q 669 626 668 613 q 675 680 673 654 q 676 729 676 706 q 635 909 676 847 q 510 971 594 971 q 449 964 475 971 q 403 948 422 956 q 373 932 385 940 q 357 925 362 925 q 353 927 355 925 q 351 931 351 929 l 350 933 m 265 7 q 382 36 326 7 q 483 117 437 65 q 565 241 528 169 q 624 398 601 313 q 614 478 624 438 q 582 551 603 519 q 526 602 560 583 q 442 622 492 622 q 312 594 372 622 q 208 515 253 565 q 133 398 163 465 q 94 254 103 331 q 92 230 92 242 q 91 206 91 218 q 138 59 91 110 q 265 7 185 7 z "},"∆":{"ha":786,"x_min":-29,"x_max":732,"o":"m 732 0 l -29 0 l 464 972 l 478 972 l 732 0 m -3 14 l 709 14 l 475 921 q 471 935 473 928 q 468 949 469 942 q 461 935 465 942 q 454 921 458 928 l -3 14 z "},"∏":{"ha":944,"x_min":139,"x_max":960,"o":"m 960 972 l 958 957 l 798 957 l 650 -250 l 633 -250 l 781 957 l 315 957 l 167 -250 l 150 -250 l 298 957 l 139 957 l 140 972 l 960 972 z "},"∑":{"ha":869,"x_min":-8,"x_max":896,"o":"m 896 972 l 894 957 l 165 957 l 544 363 l 544 360 l 19 -235 l 748 -235 l 746 -250 l -8 -250 l -8 -246 q -6 -240 -7 -242 q -3 -235 -6 -237 l 523 360 l 142 956 q 140 963 140 958 q 141 966 140 964 q 142 972 141 969 l 896 972 z "},"−":{"ha":806,"x_min":139,"x_max":697,"o":"m 140 472 l 697 472 l 696 458 l 139 458 l 140 472 z "},"√":{"ha":767,"x_min":44,"x_max":932,"o":"m 394 0 l 382 0 l 247 496 l 53 496 q 44 504 44 496 l 44 508 l 250 508 q 259 505 256 508 q 263 499 261 502 l 385 47 q 388 33 387 40 q 390 22 390 27 q 393 29 392 25 q 396 37 394 33 q 400 47 397 42 l 913 1189 q 926 1199 917 1199 l 932 1199 l 394 0 z "},"∞":{"ha":869,"x_min":62,"x_max":825,"o":"m 627 213 q 565 228 592 213 q 516 269 538 244 q 476 328 494 295 q 441 397 458 362 q 389 328 415 362 q 334 269 363 295 q 275 228 306 244 q 210 213 244 213 q 152 224 179 213 q 106 256 126 235 q 74 308 85 277 q 62 377 62 338 q 64 410 62 393 q 88 493 69 456 q 133 555 107 529 q 192 593 160 580 q 258 607 225 607 q 320 591 293 607 q 369 550 347 576 q 409 491 391 524 q 444 423 427 458 q 497 491 470 458 q 551 550 523 524 q 610 591 579 576 q 676 607 641 607 q 734 596 707 607 q 781 564 761 585 q 813 512 801 542 q 825 442 825 481 q 823 410 825 426 q 799 327 817 363 q 753 265 780 290 q 694 226 726 240 q 627 213 661 213 m 212 226 q 274 242 244 226 q 331 283 303 258 q 383 341 358 308 q 435 409 409 374 q 400 477 417 444 q 361 536 382 510 q 315 577 340 562 q 256 593 289 593 q 194 581 224 593 q 141 544 165 568 q 100 486 117 520 q 78 410 83 452 q 76 378 76 393 q 87 314 76 342 q 115 267 97 286 q 158 237 133 247 q 212 226 183 226 m 629 226 q 692 239 662 226 q 745 275 722 251 q 786 333 769 299 q 808 410 802 367 q 810 442 810 426 q 800 505 810 477 q 771 553 790 533 q 728 583 753 572 q 674 593 703 593 q 612 577 641 593 q 555 536 583 562 q 502 477 528 510 q 451 410 476 444 q 486 342 468 375 q 524 283 503 309 q 571 242 545 258 q 629 226 597 226 z "},"∫":{"ha":476,"x_min":-121,"x_max":648,"o":"m 352 751 q 391 856 367 812 q 445 928 415 899 q 510 970 476 956 q 581 983 545 983 q 621 980 606 983 q 648 969 635 977 l 646 965 q 639 960 643 960 q 620 965 633 960 q 582 969 608 969 q 515 957 547 969 q 454 918 482 944 q 404 850 426 891 q 369 751 382 808 l 190 -6 q 150 -120 175 -73 q 93 -198 125 -167 q 24 -242 61 -228 q -55 -256 -14 -256 q -93 -253 -75 -256 q -121 -243 -110 -251 l -117 -237 q -110 -233 -115 -233 q -92 -238 -104 -233 q -53 -243 -79 -243 q 19 -230 -15 -243 q 83 -189 53 -217 q 135 -116 112 -161 q 174 -6 158 -71 l 352 751 z "},"≈":{"ha":806,"x_min":153,"x_max":683,"o":"m 563 533 q 625 548 595 533 q 675 586 655 563 l 683 579 q 630 536 663 552 q 561 519 597 519 q 493 533 526 519 q 428 563 460 547 q 365 592 397 578 q 300 606 333 606 q 236 591 265 606 q 188 553 208 576 l 179 560 q 232 603 200 587 q 301 619 264 619 q 371 606 338 619 q 436 576 404 592 q 499 547 467 560 q 563 533 530 533 m 538 328 q 600 343 570 328 q 650 381 630 358 l 658 374 q 605 330 638 347 q 536 314 572 314 q 468 327 501 314 q 403 357 435 341 q 339 386 371 373 q 274 400 307 400 q 210 385 239 400 q 163 347 181 370 l 153 354 q 207 398 175 381 q 276 414 239 414 q 346 400 313 414 q 411 371 379 387 q 474 341 442 355 q 538 328 505 328 z "},"≠":{"ha":806,"x_min":122,"x_max":704,"o":"m 149 579 l 478 579 l 585 781 l 600 781 l 494 579 l 704 579 l 703 565 l 487 565 l 386 375 l 679 375 l 678 361 l 379 361 l 274 161 l 258 161 l 363 361 l 122 361 l 124 375 l 371 375 l 471 565 l 147 565 l 149 579 z "},"≤":{"ha":741,"x_min":80,"x_max":669,"o":"m 131 469 l 669 728 l 669 720 q 653 706 668 713 l 179 479 q 163 471 171 475 q 145 465 154 467 q 160 459 153 463 q 176 451 168 455 l 594 225 q 602 219 600 222 q 605 209 605 216 l 605 203 l 130 461 l 131 469 m 82 69 l 589 69 l 587 56 l 80 56 l 82 69 z "},"≥":{"ha":741,"x_min":88,"x_max":646,"o":"m 595 56 l 88 56 l 90 69 l 597 69 l 595 56 m 644 461 l 106 203 l 107 210 q 122 225 108 218 l 597 451 q 613 459 605 456 q 631 465 622 463 q 615 472 623 468 q 600 479 608 476 l 181 706 q 173 712 176 709 q 171 722 171 715 l 171 728 l 646 469 l 644 461 z "},"◊":{"ha":806,"x_min":118,"x_max":701,"o":"m 118 457 l 404 1042 l 415 1042 l 701 457 l 415 -128 l 404 -128 l 118 457 m 136 457 l 400 -81 q 410 -109 407 -95 q 419 -81 413 -95 l 683 457 l 419 994 q 410 1023 413 1009 q 400 994 407 1009 l 136 457 z "},"♩":{"ha":0,"x_min":-82,"x_max":88,"o":"m -82 -347 l 86 1042 l 88 1042 l -81 -347 l -82 -347 z "},"ﬁ":{"ha":644,"x_min":46,"x_max":532,"o":"m 532 651 l 451 0 l 435 0 l 513 638 l 173 638 l 94 7 l 68 -167 q 64 -174 67 -172 q 60 -175 62 -175 l 57 -175 l 157 638 l 53 640 q 48 641 49 640 q 46 647 46 642 l 46 651 l 158 651 l 168 728 q 198 840 176 791 q 254 920 221 888 q 331 969 288 953 q 424 986 374 986 q 445 985 433 986 q 468 982 457 984 q 490 977 480 980 q 507 971 501 974 l 506 965 q 499 961 504 961 q 474 967 492 961 q 422 972 456 972 q 338 958 377 972 q 268 915 299 944 q 215 839 237 885 q 185 728 194 792 l 174 651 l 532 651 z "},"ﬂ":{"ha":696,"x_min":46,"x_max":610,"o":"m 173 639 l 94 7 l 68 -167 q 64 -174 67 -172 q 60 -175 62 -175 l 57 -175 l 157 639 l 46 643 l 46 651 l 158 651 l 165 704 q 196 820 173 767 q 255 909 219 872 q 339 967 291 947 q 444 988 387 988 q 522 983 484 988 q 593 978 560 978 l 610 978 l 490 0 l 474 0 l 592 967 q 519 970 559 967 q 443 974 479 974 q 344 955 389 974 q 266 900 299 935 q 210 815 232 865 q 181 704 188 765 l 174 651 l 372 651 l 371 639 l 173 639 z "}}}
